%TF.GenerationSoftware,KiCad,Pcbnew,9.0.6*%
%TF.CreationDate,2026-01-30T15:18:38-05:00*%
%TF.ProjectId,camera-control,63616d65-7261-42d6-936f-6e74726f6c2e,rev?*%
%TF.SameCoordinates,Original*%
%TF.FileFunction,Legend,Top*%
%TF.FilePolarity,Positive*%
%FSLAX46Y46*%
G04 Gerber Fmt 4.6, Leading zero omitted, Abs format (unit mm)*
G04 Created by KiCad (PCBNEW 9.0.6) date 2026-01-30 15:18:38*
%MOMM*%
%LPD*%
G01*
G04 APERTURE LIST*
G04 Aperture macros list*
%AMRoundRect*
0 Rectangle with rounded corners*
0 $1 Rounding radius*
0 $2 $3 $4 $5 $6 $7 $8 $9 X,Y pos of 4 corners*
0 Add a 4 corners polygon primitive as box body*
4,1,4,$2,$3,$4,$5,$6,$7,$8,$9,$2,$3,0*
0 Add four circle primitives for the rounded corners*
1,1,$1+$1,$2,$3*
1,1,$1+$1,$4,$5*
1,1,$1+$1,$6,$7*
1,1,$1+$1,$8,$9*
0 Add four rect primitives between the rounded corners*
20,1,$1+$1,$2,$3,$4,$5,0*
20,1,$1+$1,$4,$5,$6,$7,0*
20,1,$1+$1,$6,$7,$8,$9,0*
20,1,$1+$1,$8,$9,$2,$3,0*%
G04 Aperture macros list end*
%ADD10C,0.160020*%
%ADD11C,0.228600*%
%ADD12C,0.120000*%
%ADD13RoundRect,0.249999X-0.850001X-0.850001X0.850001X-0.850001X0.850001X0.850001X-0.850001X0.850001X0*%
%ADD14C,2.200000*%
%ADD15C,2.400000*%
%ADD16C,2.500000*%
%ADD17R,1.800000X1.100000*%
%ADD18RoundRect,0.275000X0.625000X-0.275000X0.625000X0.275000X-0.625000X0.275000X-0.625000X-0.275000X0*%
%ADD19RoundRect,0.275000X-0.625000X0.275000X-0.625000X-0.275000X0.625000X-0.275000X0.625000X0.275000X0*%
%ADD20RoundRect,0.250000X0.750000X-0.600000X0.750000X0.600000X-0.750000X0.600000X-0.750000X-0.600000X0*%
%ADD21O,2.000000X1.700000*%
%ADD22RoundRect,0.250000X-0.550000X-0.550000X0.550000X-0.550000X0.550000X0.550000X-0.550000X0.550000X0*%
%ADD23C,1.600000*%
%ADD24RoundRect,0.250000X-0.600000X-0.750000X0.600000X-0.750000X0.600000X0.750000X-0.600000X0.750000X0*%
%ADD25O,1.700000X2.000000*%
G04 APERTURE END LIST*
D10*
X118283161Y-82317724D02*
X118816561Y-82317724D01*
X117978361Y-82508224D02*
X118549861Y-82698724D01*
X118549861Y-82698724D02*
X118549861Y-82203424D01*
X118016461Y-81974824D02*
X118016461Y-81441424D01*
X118016461Y-81441424D02*
X118816561Y-81784324D01*
X118016461Y-80984224D02*
X118016461Y-80908024D01*
X118016461Y-80908024D02*
X118054561Y-80831824D01*
X118054561Y-80831824D02*
X118092661Y-80793724D01*
X118092661Y-80793724D02*
X118168861Y-80755624D01*
X118168861Y-80755624D02*
X118321261Y-80717524D01*
X118321261Y-80717524D02*
X118511761Y-80717524D01*
X118511761Y-80717524D02*
X118664161Y-80755624D01*
X118664161Y-80755624D02*
X118740361Y-80793724D01*
X118740361Y-80793724D02*
X118778461Y-80831824D01*
X118778461Y-80831824D02*
X118816561Y-80908024D01*
X118816561Y-80908024D02*
X118816561Y-80984224D01*
X118816561Y-80984224D02*
X118778461Y-81060424D01*
X118778461Y-81060424D02*
X118740361Y-81098524D01*
X118740361Y-81098524D02*
X118664161Y-81136624D01*
X118664161Y-81136624D02*
X118511761Y-81174724D01*
X118511761Y-81174724D02*
X118321261Y-81174724D01*
X118321261Y-81174724D02*
X118168861Y-81136624D01*
X118168861Y-81136624D02*
X118092661Y-81098524D01*
X118092661Y-81098524D02*
X118054561Y-81060424D01*
X118054561Y-81060424D02*
X118016461Y-80984224D01*
X118816561Y-80412724D02*
X118816561Y-80222224D01*
X118816561Y-80222224D02*
X118664161Y-80222224D01*
X118664161Y-80222224D02*
X118626061Y-80298424D01*
X118626061Y-80298424D02*
X118549861Y-80374624D01*
X118549861Y-80374624D02*
X118435561Y-80412724D01*
X118435561Y-80412724D02*
X118245061Y-80412724D01*
X118245061Y-80412724D02*
X118130761Y-80374624D01*
X118130761Y-80374624D02*
X118054561Y-80298424D01*
X118054561Y-80298424D02*
X118016461Y-80184124D01*
X118016461Y-80184124D02*
X118016461Y-80031724D01*
X118016461Y-80031724D02*
X118054561Y-79917424D01*
X118054561Y-79917424D02*
X118130761Y-79841224D01*
X118130761Y-79841224D02*
X118245061Y-79803124D01*
X118245061Y-79803124D02*
X118435561Y-79803124D01*
X118435561Y-79803124D02*
X118549861Y-79841224D01*
X118549861Y-79841224D02*
X118626061Y-79917424D01*
X118626061Y-79917424D02*
X118664161Y-79993624D01*
X118664161Y-79993624D02*
X118816561Y-79993624D01*
X118816561Y-79993624D02*
X118816561Y-79803124D01*
X118435561Y-78355324D02*
X118397461Y-78393424D01*
X118397461Y-78393424D02*
X118359361Y-78469624D01*
X118359361Y-78469624D02*
X118359361Y-78545824D01*
X118359361Y-78545824D02*
X118397461Y-78622024D01*
X118397461Y-78622024D02*
X118435561Y-78660124D01*
X118435561Y-78660124D02*
X118511761Y-78698224D01*
X118511761Y-78698224D02*
X118587961Y-78698224D01*
X118587961Y-78698224D02*
X118664161Y-78660124D01*
X118664161Y-78660124D02*
X118702261Y-78622024D01*
X118702261Y-78622024D02*
X118740361Y-78545824D01*
X118740361Y-78545824D02*
X118740361Y-78469624D01*
X118740361Y-78469624D02*
X118702261Y-78393424D01*
X118702261Y-78393424D02*
X118664161Y-78355324D01*
X118359361Y-78355324D02*
X118664161Y-78355324D01*
X118664161Y-78355324D02*
X118702261Y-78317224D01*
X118702261Y-78317224D02*
X118702261Y-78279124D01*
X118702261Y-78279124D02*
X118664161Y-78202924D01*
X118664161Y-78202924D02*
X118587961Y-78164824D01*
X118587961Y-78164824D02*
X118397461Y-78164824D01*
X118397461Y-78164824D02*
X118283161Y-78241024D01*
X118283161Y-78241024D02*
X118206961Y-78355324D01*
X118206961Y-78355324D02*
X118168861Y-78507724D01*
X118168861Y-78507724D02*
X118206961Y-78660124D01*
X118206961Y-78660124D02*
X118283161Y-78774424D01*
X118283161Y-78774424D02*
X118397461Y-78850624D01*
X118397461Y-78850624D02*
X118549861Y-78888724D01*
X118549861Y-78888724D02*
X118702261Y-78850624D01*
X118702261Y-78850624D02*
X118816561Y-78774424D01*
X118816561Y-78774424D02*
X118892761Y-78660124D01*
X118892761Y-78660124D02*
X118930861Y-78507724D01*
X118930861Y-78507724D02*
X118892761Y-78355324D01*
X118892761Y-78355324D02*
X118816561Y-78241024D01*
X118816561Y-76793224D02*
X118816561Y-77250424D01*
X118816561Y-77021824D02*
X118016461Y-77021824D01*
X118016461Y-77021824D02*
X118130761Y-77098024D01*
X118130761Y-77098024D02*
X118206961Y-77174224D01*
X118206961Y-77174224D02*
X118245061Y-77250424D01*
X118016461Y-76526524D02*
X118816561Y-76336024D01*
X118816561Y-76336024D02*
X118245061Y-76183624D01*
X118245061Y-76183624D02*
X118816561Y-76031224D01*
X118816561Y-76031224D02*
X118016461Y-75840724D01*
X133226676Y-80678461D02*
X133340976Y-80716561D01*
X133340976Y-80716561D02*
X133379076Y-80754661D01*
X133379076Y-80754661D02*
X133417176Y-80830861D01*
X133417176Y-80830861D02*
X133417176Y-80945161D01*
X133417176Y-80945161D02*
X133379076Y-81021361D01*
X133379076Y-81021361D02*
X133340976Y-81059461D01*
X133340976Y-81059461D02*
X133264776Y-81097561D01*
X133264776Y-81097561D02*
X132959976Y-81097561D01*
X132959976Y-81097561D02*
X132959976Y-80297461D01*
X132959976Y-80297461D02*
X133226676Y-80297461D01*
X133226676Y-80297461D02*
X133302876Y-80335561D01*
X133302876Y-80335561D02*
X133340976Y-80373661D01*
X133340976Y-80373661D02*
X133379076Y-80449861D01*
X133379076Y-80449861D02*
X133379076Y-80526061D01*
X133379076Y-80526061D02*
X133340976Y-80602261D01*
X133340976Y-80602261D02*
X133302876Y-80640361D01*
X133302876Y-80640361D02*
X133226676Y-80678461D01*
X133226676Y-80678461D02*
X132959976Y-80678461D01*
X133721976Y-81059461D02*
X133836276Y-81097561D01*
X133836276Y-81097561D02*
X134026776Y-81097561D01*
X134026776Y-81097561D02*
X134102976Y-81059461D01*
X134102976Y-81059461D02*
X134141076Y-81021361D01*
X134141076Y-81021361D02*
X134179176Y-80945161D01*
X134179176Y-80945161D02*
X134179176Y-80868961D01*
X134179176Y-80868961D02*
X134141076Y-80792761D01*
X134141076Y-80792761D02*
X134102976Y-80754661D01*
X134102976Y-80754661D02*
X134026776Y-80716561D01*
X134026776Y-80716561D02*
X133874376Y-80678461D01*
X133874376Y-80678461D02*
X133798176Y-80640361D01*
X133798176Y-80640361D02*
X133760076Y-80602261D01*
X133760076Y-80602261D02*
X133721976Y-80526061D01*
X133721976Y-80526061D02*
X133721976Y-80449861D01*
X133721976Y-80449861D02*
X133760076Y-80373661D01*
X133760076Y-80373661D02*
X133798176Y-80335561D01*
X133798176Y-80335561D02*
X133874376Y-80297461D01*
X133874376Y-80297461D02*
X134064876Y-80297461D01*
X134064876Y-80297461D02*
X134179176Y-80335561D01*
X134941176Y-81097561D02*
X134483976Y-81097561D01*
X134712576Y-81097561D02*
X134712576Y-80297461D01*
X134712576Y-80297461D02*
X134636376Y-80411761D01*
X134636376Y-80411761D02*
X134560176Y-80487961D01*
X134560176Y-80487961D02*
X134483976Y-80526061D01*
X135207876Y-80297461D02*
X135741276Y-80297461D01*
X135741276Y-80297461D02*
X135398376Y-81097561D01*
X136198476Y-80297461D02*
X136274676Y-80297461D01*
X136274676Y-80297461D02*
X136350876Y-80335561D01*
X136350876Y-80335561D02*
X136388976Y-80373661D01*
X136388976Y-80373661D02*
X136427076Y-80449861D01*
X136427076Y-80449861D02*
X136465176Y-80602261D01*
X136465176Y-80602261D02*
X136465176Y-80792761D01*
X136465176Y-80792761D02*
X136427076Y-80945161D01*
X136427076Y-80945161D02*
X136388976Y-81021361D01*
X136388976Y-81021361D02*
X136350876Y-81059461D01*
X136350876Y-81059461D02*
X136274676Y-81097561D01*
X136274676Y-81097561D02*
X136198476Y-81097561D01*
X136198476Y-81097561D02*
X136122276Y-81059461D01*
X136122276Y-81059461D02*
X136084176Y-81021361D01*
X136084176Y-81021361D02*
X136046076Y-80945161D01*
X136046076Y-80945161D02*
X136007976Y-80792761D01*
X136007976Y-80792761D02*
X136007976Y-80602261D01*
X136007976Y-80602261D02*
X136046076Y-80449861D01*
X136046076Y-80449861D02*
X136084176Y-80373661D01*
X136084176Y-80373661D02*
X136122276Y-80335561D01*
X136122276Y-80335561D02*
X136198476Y-80297461D01*
X130978776Y-91994161D02*
X131588376Y-91994161D01*
X131283576Y-92298961D02*
X131283576Y-91689361D01*
G36*
X124479780Y-73441717D02*
G01*
X124499519Y-73461455D01*
X124527885Y-73518186D01*
X124561466Y-73652510D01*
X124561466Y-73823312D01*
X124527885Y-73957635D01*
X124499519Y-74014366D01*
X124479780Y-74034104D01*
X124432088Y-74057951D01*
X124393663Y-74057951D01*
X124345970Y-74034104D01*
X124326232Y-74014365D01*
X124297866Y-73957634D01*
X124264286Y-73823311D01*
X124264286Y-73652510D01*
X124297866Y-73518187D01*
X124326232Y-73461456D01*
X124345970Y-73441717D01*
X124393663Y-73417871D01*
X124432088Y-73417871D01*
X124479780Y-73441717D01*
G37*
G36*
X125241780Y-73441717D02*
G01*
X125261519Y-73461455D01*
X125289885Y-73518186D01*
X125323466Y-73652510D01*
X125323466Y-73823312D01*
X125289885Y-73957635D01*
X125261519Y-74014366D01*
X125241780Y-74034104D01*
X125194088Y-74057951D01*
X125155663Y-74057951D01*
X125107970Y-74034104D01*
X125088232Y-74014365D01*
X125059866Y-73957634D01*
X125026286Y-73823311D01*
X125026286Y-73652510D01*
X125059866Y-73518187D01*
X125088232Y-73461456D01*
X125107970Y-73441717D01*
X125155663Y-73417871D01*
X125194088Y-73417871D01*
X125241780Y-73441717D01*
G37*
G36*
X127018649Y-74306871D02*
G01*
X123253994Y-74306871D01*
X123253994Y-73556454D01*
X123342894Y-73556454D01*
X123345107Y-73587594D01*
X123359068Y-73615516D01*
X123382652Y-73635971D01*
X123412269Y-73645843D01*
X123443409Y-73643630D01*
X123458058Y-73638024D01*
X123534257Y-73599924D01*
X123540972Y-73595696D01*
X123542928Y-73594887D01*
X123545127Y-73593081D01*
X123547531Y-73591569D01*
X123548913Y-73589974D01*
X123555052Y-73584937D01*
X123570866Y-73569123D01*
X123570866Y-74057951D01*
X123422276Y-74057951D01*
X123406667Y-74059488D01*
X123377825Y-74071435D01*
X123355750Y-74093510D01*
X123343803Y-74122352D01*
X123343803Y-74153570D01*
X123355750Y-74182412D01*
X123377825Y-74204487D01*
X123406667Y-74216434D01*
X123422276Y-74217971D01*
X123879476Y-74217971D01*
X123895085Y-74216434D01*
X123923927Y-74204487D01*
X123946002Y-74182412D01*
X123957949Y-74153570D01*
X123957949Y-74122352D01*
X123946002Y-74093510D01*
X123923927Y-74071435D01*
X123895085Y-74059488D01*
X123879476Y-74057951D01*
X123730886Y-74057951D01*
X123730886Y-73642661D01*
X124104266Y-73642661D01*
X124104266Y-73833161D01*
X124104533Y-73835882D01*
X124104360Y-73837051D01*
X124105224Y-73842895D01*
X124105803Y-73848770D01*
X124106254Y-73849860D01*
X124106655Y-73852566D01*
X124144755Y-74004966D01*
X124145165Y-74006116D01*
X124145207Y-74006694D01*
X124147697Y-74013202D01*
X124150032Y-74019736D01*
X124150375Y-74020199D01*
X124150813Y-74021343D01*
X124188913Y-74097542D01*
X124193140Y-74104257D01*
X124193950Y-74106213D01*
X124195755Y-74108412D01*
X124197268Y-74110816D01*
X124198862Y-74112198D01*
X124203900Y-74118337D01*
X124242001Y-74156437D01*
X124248135Y-74161471D01*
X124249521Y-74163069D01*
X124251928Y-74164584D01*
X124254125Y-74166387D01*
X124256075Y-74167195D01*
X124262794Y-74171424D01*
X124338994Y-74209524D01*
X124353643Y-74215130D01*
X124356510Y-74215333D01*
X124359167Y-74216434D01*
X124374776Y-74217971D01*
X124450976Y-74217971D01*
X124466585Y-74216434D01*
X124469241Y-74215333D01*
X124472109Y-74215130D01*
X124486758Y-74209524D01*
X124562957Y-74171424D01*
X124569672Y-74167196D01*
X124571628Y-74166387D01*
X124573827Y-74164581D01*
X124576231Y-74163069D01*
X124577613Y-74161474D01*
X124583752Y-74156437D01*
X124621852Y-74118336D01*
X124626886Y-74112201D01*
X124628484Y-74110816D01*
X124629999Y-74108408D01*
X124631802Y-74106212D01*
X124632610Y-74104261D01*
X124636839Y-74097543D01*
X124674939Y-74021343D01*
X124675376Y-74020199D01*
X124675720Y-74019736D01*
X124678054Y-74013202D01*
X124680545Y-74006694D01*
X124680586Y-74006116D01*
X124680997Y-74004966D01*
X124719097Y-73852567D01*
X124719497Y-73849860D01*
X124719949Y-73848770D01*
X124720527Y-73842896D01*
X124721392Y-73837051D01*
X124721218Y-73835882D01*
X124721486Y-73833161D01*
X124721486Y-73642661D01*
X124866266Y-73642661D01*
X124866266Y-73833161D01*
X124866533Y-73835882D01*
X124866360Y-73837051D01*
X124867224Y-73842895D01*
X124867803Y-73848770D01*
X124868254Y-73849860D01*
X124868655Y-73852566D01*
X124906755Y-74004966D01*
X124907165Y-74006116D01*
X124907207Y-74006694D01*
X124909697Y-74013202D01*
X124912032Y-74019736D01*
X124912375Y-74020199D01*
X124912813Y-74021343D01*
X124950913Y-74097542D01*
X124955140Y-74104257D01*
X124955950Y-74106213D01*
X124957755Y-74108412D01*
X124959268Y-74110816D01*
X124960862Y-74112198D01*
X124965900Y-74118337D01*
X125004001Y-74156437D01*
X125010135Y-74161471D01*
X125011521Y-74163069D01*
X125013928Y-74164584D01*
X125016125Y-74166387D01*
X125018075Y-74167195D01*
X125024794Y-74171424D01*
X125100994Y-74209524D01*
X125115643Y-74215130D01*
X125118510Y-74215333D01*
X125121167Y-74216434D01*
X125136776Y-74217971D01*
X125212976Y-74217971D01*
X125228585Y-74216434D01*
X125231241Y-74215333D01*
X125234109Y-74215130D01*
X125248758Y-74209524D01*
X125324957Y-74171424D01*
X125331672Y-74167196D01*
X125333628Y-74166387D01*
X125335827Y-74164581D01*
X125338231Y-74163069D01*
X125339613Y-74161474D01*
X125345752Y-74156437D01*
X125383852Y-74118336D01*
X125388886Y-74112201D01*
X125390484Y-74110816D01*
X125391999Y-74108408D01*
X125393802Y-74106212D01*
X125394610Y-74104261D01*
X125398839Y-74097543D01*
X125436939Y-74021343D01*
X125437376Y-74020199D01*
X125437720Y-74019736D01*
X125440054Y-74013202D01*
X125442545Y-74006694D01*
X125442586Y-74006116D01*
X125442997Y-74004966D01*
X125481097Y-73852567D01*
X125481497Y-73849860D01*
X125481949Y-73848770D01*
X125482527Y-73842896D01*
X125483392Y-73837051D01*
X125483218Y-73835882D01*
X125483486Y-73833161D01*
X125483486Y-73642661D01*
X125483218Y-73639939D01*
X125483392Y-73638771D01*
X125482527Y-73632925D01*
X125481949Y-73627052D01*
X125481497Y-73625961D01*
X125481097Y-73623255D01*
X125476423Y-73604561D01*
X125666366Y-73604561D01*
X125666366Y-74023661D01*
X125667903Y-74039270D01*
X125669003Y-74041926D01*
X125669207Y-74044794D01*
X125674813Y-74059443D01*
X125712913Y-74135642D01*
X125714554Y-74138249D01*
X125714966Y-74139485D01*
X125716299Y-74141022D01*
X125721268Y-74148916D01*
X125728846Y-74155488D01*
X125735421Y-74163069D01*
X125743319Y-74168040D01*
X125744852Y-74169370D01*
X125746082Y-74169780D01*
X125748694Y-74171424D01*
X125824894Y-74209524D01*
X125839543Y-74215130D01*
X125842410Y-74215333D01*
X125845067Y-74216434D01*
X125860676Y-74217971D01*
X125974976Y-74217971D01*
X125990585Y-74216434D01*
X125993241Y-74215333D01*
X125996109Y-74215130D01*
X126010758Y-74209524D01*
X126036827Y-74196489D01*
X126044825Y-74204487D01*
X126073667Y-74216434D01*
X126104885Y-74216434D01*
X126133727Y-74204487D01*
X126155802Y-74182412D01*
X126167749Y-74153570D01*
X126169286Y-74137961D01*
X126169286Y-73604561D01*
X126167749Y-73588952D01*
X126155802Y-73560110D01*
X126133727Y-73538035D01*
X126104885Y-73526088D01*
X126073667Y-73526088D01*
X126044825Y-73538035D01*
X126022750Y-73560110D01*
X126010803Y-73588952D01*
X126009266Y-73604561D01*
X126009266Y-74028619D01*
X126003780Y-74034104D01*
X125956088Y-74057951D01*
X125879563Y-74057951D01*
X125844112Y-74040225D01*
X125826386Y-74004773D01*
X125826386Y-73604561D01*
X125824849Y-73588952D01*
X125812902Y-73560110D01*
X125790827Y-73538035D01*
X125761985Y-73526088D01*
X125730767Y-73526088D01*
X125701925Y-73538035D01*
X125679850Y-73560110D01*
X125667903Y-73588952D01*
X125666366Y-73604561D01*
X125476423Y-73604561D01*
X125442997Y-73470856D01*
X125442586Y-73469705D01*
X125442545Y-73469128D01*
X125440054Y-73462619D01*
X125437720Y-73456086D01*
X125437376Y-73455622D01*
X125436939Y-73454479D01*
X125398839Y-73378279D01*
X125394610Y-73371560D01*
X125393802Y-73369610D01*
X125391999Y-73367413D01*
X125390484Y-73365006D01*
X125388886Y-73363620D01*
X125383852Y-73357486D01*
X125364228Y-73337861D01*
X126390266Y-73337861D01*
X126390266Y-74137961D01*
X126391803Y-74153570D01*
X126403750Y-74182412D01*
X126425825Y-74204487D01*
X126454667Y-74216434D01*
X126485885Y-74216434D01*
X126514727Y-74204487D01*
X126536802Y-74182412D01*
X126548749Y-74153570D01*
X126550286Y-74137961D01*
X126550286Y-73798871D01*
X126736976Y-73798871D01*
X126752585Y-73797334D01*
X126781427Y-73785387D01*
X126803502Y-73763312D01*
X126815449Y-73734470D01*
X126815449Y-73703252D01*
X126803502Y-73674410D01*
X126781427Y-73652335D01*
X126752585Y-73640388D01*
X126736976Y-73638851D01*
X126550286Y-73638851D01*
X126550286Y-73417871D01*
X126851276Y-73417871D01*
X126866885Y-73416334D01*
X126895727Y-73404387D01*
X126917802Y-73382312D01*
X126929749Y-73353470D01*
X126929749Y-73322252D01*
X126917802Y-73293410D01*
X126895727Y-73271335D01*
X126866885Y-73259388D01*
X126851276Y-73257851D01*
X126470276Y-73257851D01*
X126454667Y-73259388D01*
X126425825Y-73271335D01*
X126403750Y-73293410D01*
X126391803Y-73322252D01*
X126390266Y-73337861D01*
X125364228Y-73337861D01*
X125345752Y-73319385D01*
X125339613Y-73314347D01*
X125338231Y-73312753D01*
X125335827Y-73311240D01*
X125333628Y-73309435D01*
X125331672Y-73308625D01*
X125324957Y-73304398D01*
X125248758Y-73266298D01*
X125234109Y-73260692D01*
X125231241Y-73260488D01*
X125228585Y-73259388D01*
X125212976Y-73257851D01*
X125136776Y-73257851D01*
X125121167Y-73259388D01*
X125118510Y-73260488D01*
X125115643Y-73260692D01*
X125100994Y-73266298D01*
X125024794Y-73304398D01*
X125018075Y-73308626D01*
X125016125Y-73309435D01*
X125013928Y-73311237D01*
X125011521Y-73312753D01*
X125010135Y-73314350D01*
X125004001Y-73319385D01*
X124965900Y-73357485D01*
X124960862Y-73363623D01*
X124959268Y-73365006D01*
X124957755Y-73367409D01*
X124955950Y-73369609D01*
X124955140Y-73371564D01*
X124950913Y-73378280D01*
X124912813Y-73454479D01*
X124912375Y-73455622D01*
X124912032Y-73456086D01*
X124909697Y-73462619D01*
X124907207Y-73469128D01*
X124907165Y-73469705D01*
X124906755Y-73470856D01*
X124868655Y-73623256D01*
X124868254Y-73625961D01*
X124867803Y-73627052D01*
X124867224Y-73632926D01*
X124866360Y-73638771D01*
X124866533Y-73639939D01*
X124866266Y-73642661D01*
X124721486Y-73642661D01*
X124721218Y-73639939D01*
X124721392Y-73638771D01*
X124720527Y-73632925D01*
X124719949Y-73627052D01*
X124719497Y-73625961D01*
X124719097Y-73623255D01*
X124680997Y-73470856D01*
X124680586Y-73469705D01*
X124680545Y-73469128D01*
X124678054Y-73462619D01*
X124675720Y-73456086D01*
X124675376Y-73455622D01*
X124674939Y-73454479D01*
X124636839Y-73378279D01*
X124632610Y-73371560D01*
X124631802Y-73369610D01*
X124629999Y-73367413D01*
X124628484Y-73365006D01*
X124626886Y-73363620D01*
X124621852Y-73357486D01*
X124583752Y-73319385D01*
X124577613Y-73314347D01*
X124576231Y-73312753D01*
X124573827Y-73311240D01*
X124571628Y-73309435D01*
X124569672Y-73308625D01*
X124562957Y-73304398D01*
X124486758Y-73266298D01*
X124472109Y-73260692D01*
X124469241Y-73260488D01*
X124466585Y-73259388D01*
X124450976Y-73257851D01*
X124374776Y-73257851D01*
X124359167Y-73259388D01*
X124356510Y-73260488D01*
X124353643Y-73260692D01*
X124338994Y-73266298D01*
X124262794Y-73304398D01*
X124256075Y-73308626D01*
X124254125Y-73309435D01*
X124251928Y-73311237D01*
X124249521Y-73312753D01*
X124248135Y-73314350D01*
X124242001Y-73319385D01*
X124203900Y-73357485D01*
X124198862Y-73363623D01*
X124197268Y-73365006D01*
X124195755Y-73367409D01*
X124193950Y-73369609D01*
X124193140Y-73371564D01*
X124188913Y-73378280D01*
X124150813Y-73454479D01*
X124150375Y-73455622D01*
X124150032Y-73456086D01*
X124147697Y-73462619D01*
X124145207Y-73469128D01*
X124145165Y-73469705D01*
X124144755Y-73470856D01*
X124106655Y-73623256D01*
X124106254Y-73625961D01*
X124105803Y-73627052D01*
X124105224Y-73632926D01*
X124104360Y-73638771D01*
X124104533Y-73639939D01*
X124104266Y-73642661D01*
X123730886Y-73642661D01*
X123730886Y-73337861D01*
X123730880Y-73337804D01*
X123730886Y-73337777D01*
X123730869Y-73337695D01*
X123729349Y-73322252D01*
X123726317Y-73314933D01*
X123724764Y-73307165D01*
X123720400Y-73300649D01*
X123717402Y-73293410D01*
X123711804Y-73287812D01*
X123707393Y-73281225D01*
X123700865Y-73276873D01*
X123695327Y-73271335D01*
X123688012Y-73268305D01*
X123681418Y-73263909D01*
X123673726Y-73262387D01*
X123666485Y-73259388D01*
X123658563Y-73259388D01*
X123650793Y-73257851D01*
X123643107Y-73259388D01*
X123635267Y-73259388D01*
X123627948Y-73262419D01*
X123620180Y-73263973D01*
X123613664Y-73268336D01*
X123606425Y-73271335D01*
X123600825Y-73276934D01*
X123594241Y-73281344D01*
X123584407Y-73293352D01*
X123584350Y-73293410D01*
X123584339Y-73293435D01*
X123584304Y-73293479D01*
X123512500Y-73401185D01*
X123451080Y-73462605D01*
X123386494Y-73494898D01*
X123373221Y-73503253D01*
X123352766Y-73526837D01*
X123342894Y-73556454D01*
X123253994Y-73556454D01*
X123253994Y-73168951D01*
X127018649Y-73168951D01*
X127018649Y-74306871D01*
G37*
X139563976Y-79268761D02*
X140173576Y-79268761D01*
X139868776Y-79573561D02*
X139868776Y-78963961D01*
X140375976Y-94004161D02*
X140337876Y-94042261D01*
X140337876Y-94042261D02*
X140223576Y-94080361D01*
X140223576Y-94080361D02*
X140147376Y-94080361D01*
X140147376Y-94080361D02*
X140033076Y-94042261D01*
X140033076Y-94042261D02*
X139956876Y-93966061D01*
X139956876Y-93966061D02*
X139918776Y-93889861D01*
X139918776Y-93889861D02*
X139880676Y-93737461D01*
X139880676Y-93737461D02*
X139880676Y-93623161D01*
X139880676Y-93623161D02*
X139918776Y-93470761D01*
X139918776Y-93470761D02*
X139956876Y-93394561D01*
X139956876Y-93394561D02*
X140033076Y-93318361D01*
X140033076Y-93318361D02*
X140147376Y-93280261D01*
X140147376Y-93280261D02*
X140223576Y-93280261D01*
X140223576Y-93280261D02*
X140337876Y-93318361D01*
X140337876Y-93318361D02*
X140375976Y-93356461D01*
X141137976Y-94080361D02*
X140680776Y-94080361D01*
X140909376Y-94080361D02*
X140909376Y-93280261D01*
X140909376Y-93280261D02*
X140833176Y-93394561D01*
X140833176Y-93394561D02*
X140756976Y-93470761D01*
X140756976Y-93470761D02*
X140680776Y-93508861D01*
X141291176Y-70607361D02*
X141253076Y-70645461D01*
X141253076Y-70645461D02*
X141138776Y-70683561D01*
X141138776Y-70683561D02*
X141062576Y-70683561D01*
X141062576Y-70683561D02*
X140948276Y-70645461D01*
X140948276Y-70645461D02*
X140872076Y-70569261D01*
X140872076Y-70569261D02*
X140833976Y-70493061D01*
X140833976Y-70493061D02*
X140795876Y-70340661D01*
X140795876Y-70340661D02*
X140795876Y-70226361D01*
X140795876Y-70226361D02*
X140833976Y-70073961D01*
X140833976Y-70073961D02*
X140872076Y-69997761D01*
X140872076Y-69997761D02*
X140948276Y-69921561D01*
X140948276Y-69921561D02*
X141062576Y-69883461D01*
X141062576Y-69883461D02*
X141138776Y-69883461D01*
X141138776Y-69883461D02*
X141253076Y-69921561D01*
X141253076Y-69921561D02*
X141291176Y-69959661D01*
X141786476Y-69883461D02*
X141862676Y-69883461D01*
X141862676Y-69883461D02*
X141938876Y-69921561D01*
X141938876Y-69921561D02*
X141976976Y-69959661D01*
X141976976Y-69959661D02*
X142015076Y-70035861D01*
X142015076Y-70035861D02*
X142053176Y-70188261D01*
X142053176Y-70188261D02*
X142053176Y-70378761D01*
X142053176Y-70378761D02*
X142015076Y-70531161D01*
X142015076Y-70531161D02*
X141976976Y-70607361D01*
X141976976Y-70607361D02*
X141938876Y-70645461D01*
X141938876Y-70645461D02*
X141862676Y-70683561D01*
X141862676Y-70683561D02*
X141786476Y-70683561D01*
X141786476Y-70683561D02*
X141710276Y-70645461D01*
X141710276Y-70645461D02*
X141672176Y-70607361D01*
X141672176Y-70607361D02*
X141634076Y-70531161D01*
X141634076Y-70531161D02*
X141595976Y-70378761D01*
X141595976Y-70378761D02*
X141595976Y-70188261D01*
X141595976Y-70188261D02*
X141634076Y-70035861D01*
X141634076Y-70035861D02*
X141672176Y-69959661D01*
X141672176Y-69959661D02*
X141710276Y-69921561D01*
X141710276Y-69921561D02*
X141786476Y-69883461D01*
X139589376Y-88819161D02*
X140198976Y-88819161D01*
X139894176Y-89123961D02*
X139894176Y-88514361D01*
X132134476Y-72880661D02*
X132172576Y-72842561D01*
X132172576Y-72842561D02*
X132248776Y-72804461D01*
X132248776Y-72804461D02*
X132439276Y-72804461D01*
X132439276Y-72804461D02*
X132515476Y-72842561D01*
X132515476Y-72842561D02*
X132553576Y-72880661D01*
X132553576Y-72880661D02*
X132591676Y-72956861D01*
X132591676Y-72956861D02*
X132591676Y-73033061D01*
X132591676Y-73033061D02*
X132553576Y-73147361D01*
X132553576Y-73147361D02*
X132096376Y-73604561D01*
X132096376Y-73604561D02*
X132591676Y-73604561D01*
X132934576Y-73604561D02*
X132934576Y-72804461D01*
X132934576Y-72804461D02*
X133391776Y-73604561D01*
X133391776Y-73604561D02*
X133391776Y-72804461D01*
X133696576Y-72804461D02*
X134229976Y-72804461D01*
X134229976Y-72804461D02*
X133887076Y-73604561D01*
X134687176Y-72804461D02*
X134763376Y-72804461D01*
X134763376Y-72804461D02*
X134839576Y-72842561D01*
X134839576Y-72842561D02*
X134877676Y-72880661D01*
X134877676Y-72880661D02*
X134915776Y-72956861D01*
X134915776Y-72956861D02*
X134953876Y-73109261D01*
X134953876Y-73109261D02*
X134953876Y-73299761D01*
X134953876Y-73299761D02*
X134915776Y-73452161D01*
X134915776Y-73452161D02*
X134877676Y-73528361D01*
X134877676Y-73528361D02*
X134839576Y-73566461D01*
X134839576Y-73566461D02*
X134763376Y-73604561D01*
X134763376Y-73604561D02*
X134687176Y-73604561D01*
X134687176Y-73604561D02*
X134610976Y-73566461D01*
X134610976Y-73566461D02*
X134572876Y-73528361D01*
X134572876Y-73528361D02*
X134534776Y-73452161D01*
X134534776Y-73452161D02*
X134496676Y-73299761D01*
X134496676Y-73299761D02*
X134496676Y-73109261D01*
X134496676Y-73109261D02*
X134534776Y-72956861D01*
X134534776Y-72956861D02*
X134572876Y-72880661D01*
X134572876Y-72880661D02*
X134610976Y-72842561D01*
X134610976Y-72842561D02*
X134687176Y-72804461D01*
X135449176Y-72804461D02*
X135525376Y-72804461D01*
X135525376Y-72804461D02*
X135601576Y-72842561D01*
X135601576Y-72842561D02*
X135639676Y-72880661D01*
X135639676Y-72880661D02*
X135677776Y-72956861D01*
X135677776Y-72956861D02*
X135715876Y-73109261D01*
X135715876Y-73109261D02*
X135715876Y-73299761D01*
X135715876Y-73299761D02*
X135677776Y-73452161D01*
X135677776Y-73452161D02*
X135639676Y-73528361D01*
X135639676Y-73528361D02*
X135601576Y-73566461D01*
X135601576Y-73566461D02*
X135525376Y-73604561D01*
X135525376Y-73604561D02*
X135449176Y-73604561D01*
X135449176Y-73604561D02*
X135372976Y-73566461D01*
X135372976Y-73566461D02*
X135334876Y-73528361D01*
X135334876Y-73528361D02*
X135296776Y-73452161D01*
X135296776Y-73452161D02*
X135258676Y-73299761D01*
X135258676Y-73299761D02*
X135258676Y-73109261D01*
X135258676Y-73109261D02*
X135296776Y-72956861D01*
X135296776Y-72956861D02*
X135334876Y-72880661D01*
X135334876Y-72880661D02*
X135372976Y-72842561D01*
X135372976Y-72842561D02*
X135449176Y-72804461D01*
X136211176Y-72804461D02*
X136287376Y-72804461D01*
X136287376Y-72804461D02*
X136363576Y-72842561D01*
X136363576Y-72842561D02*
X136401676Y-72880661D01*
X136401676Y-72880661D02*
X136439776Y-72956861D01*
X136439776Y-72956861D02*
X136477876Y-73109261D01*
X136477876Y-73109261D02*
X136477876Y-73299761D01*
X136477876Y-73299761D02*
X136439776Y-73452161D01*
X136439776Y-73452161D02*
X136401676Y-73528361D01*
X136401676Y-73528361D02*
X136363576Y-73566461D01*
X136363576Y-73566461D02*
X136287376Y-73604561D01*
X136287376Y-73604561D02*
X136211176Y-73604561D01*
X136211176Y-73604561D02*
X136134976Y-73566461D01*
X136134976Y-73566461D02*
X136096876Y-73528361D01*
X136096876Y-73528361D02*
X136058776Y-73452161D01*
X136058776Y-73452161D02*
X136020676Y-73299761D01*
X136020676Y-73299761D02*
X136020676Y-73109261D01*
X136020676Y-73109261D02*
X136058776Y-72956861D01*
X136058776Y-72956861D02*
X136096876Y-72880661D01*
X136096876Y-72880661D02*
X136134976Y-72842561D01*
X136134976Y-72842561D02*
X136211176Y-72804461D01*
X124235076Y-87409461D02*
X124349376Y-87447561D01*
X124349376Y-87447561D02*
X124539876Y-87447561D01*
X124539876Y-87447561D02*
X124616076Y-87409461D01*
X124616076Y-87409461D02*
X124654176Y-87371361D01*
X124654176Y-87371361D02*
X124692276Y-87295161D01*
X124692276Y-87295161D02*
X124692276Y-87218961D01*
X124692276Y-87218961D02*
X124654176Y-87142761D01*
X124654176Y-87142761D02*
X124616076Y-87104661D01*
X124616076Y-87104661D02*
X124539876Y-87066561D01*
X124539876Y-87066561D02*
X124387476Y-87028461D01*
X124387476Y-87028461D02*
X124311276Y-86990361D01*
X124311276Y-86990361D02*
X124273176Y-86952261D01*
X124273176Y-86952261D02*
X124235076Y-86876061D01*
X124235076Y-86876061D02*
X124235076Y-86799861D01*
X124235076Y-86799861D02*
X124273176Y-86723661D01*
X124273176Y-86723661D02*
X124311276Y-86685561D01*
X124311276Y-86685561D02*
X124387476Y-86647461D01*
X124387476Y-86647461D02*
X124577976Y-86647461D01*
X124577976Y-86647461D02*
X124692276Y-86685561D01*
X125035176Y-87447561D02*
X125035176Y-86647461D01*
X125835276Y-86685561D02*
X125759076Y-86647461D01*
X125759076Y-86647461D02*
X125644776Y-86647461D01*
X125644776Y-86647461D02*
X125530476Y-86685561D01*
X125530476Y-86685561D02*
X125454276Y-86761761D01*
X125454276Y-86761761D02*
X125416176Y-86837961D01*
X125416176Y-86837961D02*
X125378076Y-86990361D01*
X125378076Y-86990361D02*
X125378076Y-87104661D01*
X125378076Y-87104661D02*
X125416176Y-87257061D01*
X125416176Y-87257061D02*
X125454276Y-87333261D01*
X125454276Y-87333261D02*
X125530476Y-87409461D01*
X125530476Y-87409461D02*
X125644776Y-87447561D01*
X125644776Y-87447561D02*
X125720976Y-87447561D01*
X125720976Y-87447561D02*
X125835276Y-87409461D01*
X125835276Y-87409461D02*
X125873376Y-87371361D01*
X125873376Y-87371361D02*
X125873376Y-87104661D01*
X125873376Y-87104661D02*
X125720976Y-87104661D01*
X128248276Y-86660161D02*
X128172076Y-86622061D01*
X128172076Y-86622061D02*
X128057776Y-86622061D01*
X128057776Y-86622061D02*
X127943476Y-86660161D01*
X127943476Y-86660161D02*
X127867276Y-86736361D01*
X127867276Y-86736361D02*
X127829176Y-86812561D01*
X127829176Y-86812561D02*
X127791076Y-86964961D01*
X127791076Y-86964961D02*
X127791076Y-87079261D01*
X127791076Y-87079261D02*
X127829176Y-87231661D01*
X127829176Y-87231661D02*
X127867276Y-87307861D01*
X127867276Y-87307861D02*
X127943476Y-87384061D01*
X127943476Y-87384061D02*
X128057776Y-87422161D01*
X128057776Y-87422161D02*
X128133976Y-87422161D01*
X128133976Y-87422161D02*
X128248276Y-87384061D01*
X128248276Y-87384061D02*
X128286376Y-87345961D01*
X128286376Y-87345961D02*
X128286376Y-87079261D01*
X128286376Y-87079261D02*
X128133976Y-87079261D01*
X128629276Y-87422161D02*
X128629276Y-86622061D01*
X128629276Y-86622061D02*
X129086476Y-87422161D01*
X129086476Y-87422161D02*
X129086476Y-86622061D01*
X129467476Y-87422161D02*
X129467476Y-86622061D01*
X129467476Y-86622061D02*
X129657976Y-86622061D01*
X129657976Y-86622061D02*
X129772276Y-86660161D01*
X129772276Y-86660161D02*
X129848476Y-86736361D01*
X129848476Y-86736361D02*
X129886576Y-86812561D01*
X129886576Y-86812561D02*
X129924676Y-86964961D01*
X129924676Y-86964961D02*
X129924676Y-87079261D01*
X129924676Y-87079261D02*
X129886576Y-87231661D01*
X129886576Y-87231661D02*
X129848476Y-87307861D01*
X129848476Y-87307861D02*
X129772276Y-87384061D01*
X129772276Y-87384061D02*
X129657976Y-87422161D01*
X129657976Y-87422161D02*
X129467476Y-87422161D01*
X140224376Y-89962161D02*
X140224376Y-89162061D01*
X140224376Y-89162061D02*
X140529176Y-89162061D01*
X140529176Y-89162061D02*
X140605376Y-89200161D01*
X140605376Y-89200161D02*
X140643476Y-89238261D01*
X140643476Y-89238261D02*
X140681576Y-89314461D01*
X140681576Y-89314461D02*
X140681576Y-89428761D01*
X140681576Y-89428761D02*
X140643476Y-89504961D01*
X140643476Y-89504961D02*
X140605376Y-89543061D01*
X140605376Y-89543061D02*
X140529176Y-89581161D01*
X140529176Y-89581161D02*
X140224376Y-89581161D01*
X140948276Y-89162061D02*
X141138776Y-89962161D01*
X141138776Y-89962161D02*
X141291176Y-89390661D01*
X141291176Y-89390661D02*
X141443576Y-89962161D01*
X141443576Y-89962161D02*
X141634076Y-89162061D01*
X142396076Y-89962161D02*
X142129376Y-89581161D01*
X141938876Y-89962161D02*
X141938876Y-89162061D01*
X141938876Y-89162061D02*
X142243676Y-89162061D01*
X142243676Y-89162061D02*
X142319876Y-89200161D01*
X142319876Y-89200161D02*
X142357976Y-89238261D01*
X142357976Y-89238261D02*
X142396076Y-89314461D01*
X142396076Y-89314461D02*
X142396076Y-89428761D01*
X142396076Y-89428761D02*
X142357976Y-89504961D01*
X142357976Y-89504961D02*
X142319876Y-89543061D01*
X142319876Y-89543061D02*
X142243676Y-89581161D01*
X142243676Y-89581161D02*
X141938876Y-89581161D01*
G36*
X124479780Y-82230117D02*
G01*
X124499519Y-82249855D01*
X124527885Y-82306586D01*
X124561466Y-82440910D01*
X124561466Y-82611712D01*
X124527885Y-82746035D01*
X124499519Y-82802766D01*
X124479780Y-82822504D01*
X124432088Y-82846351D01*
X124393663Y-82846351D01*
X124345970Y-82822504D01*
X124326232Y-82802765D01*
X124297866Y-82746034D01*
X124264286Y-82611711D01*
X124264286Y-82440910D01*
X124297866Y-82306587D01*
X124326232Y-82249856D01*
X124345970Y-82230117D01*
X124393663Y-82206271D01*
X124432088Y-82206271D01*
X124479780Y-82230117D01*
G37*
G36*
X125241780Y-82230117D02*
G01*
X125261519Y-82249855D01*
X125289885Y-82306586D01*
X125323466Y-82440910D01*
X125323466Y-82611712D01*
X125289885Y-82746035D01*
X125261519Y-82802766D01*
X125241780Y-82822504D01*
X125194088Y-82846351D01*
X125155663Y-82846351D01*
X125107970Y-82822504D01*
X125088232Y-82802765D01*
X125059866Y-82746034D01*
X125026286Y-82611711D01*
X125026286Y-82440910D01*
X125059866Y-82306587D01*
X125088232Y-82249856D01*
X125107970Y-82230117D01*
X125155663Y-82206271D01*
X125194088Y-82206271D01*
X125241780Y-82230117D01*
G37*
G36*
X127018649Y-83095271D02*
G01*
X123253994Y-83095271D01*
X123253994Y-82344854D01*
X123342894Y-82344854D01*
X123345107Y-82375994D01*
X123359068Y-82403916D01*
X123382652Y-82424371D01*
X123412269Y-82434243D01*
X123443409Y-82432030D01*
X123458058Y-82426424D01*
X123534257Y-82388324D01*
X123540972Y-82384096D01*
X123542928Y-82383287D01*
X123545127Y-82381481D01*
X123547531Y-82379969D01*
X123548913Y-82378374D01*
X123555052Y-82373337D01*
X123570866Y-82357523D01*
X123570866Y-82846351D01*
X123422276Y-82846351D01*
X123406667Y-82847888D01*
X123377825Y-82859835D01*
X123355750Y-82881910D01*
X123343803Y-82910752D01*
X123343803Y-82941970D01*
X123355750Y-82970812D01*
X123377825Y-82992887D01*
X123406667Y-83004834D01*
X123422276Y-83006371D01*
X123879476Y-83006371D01*
X123895085Y-83004834D01*
X123923927Y-82992887D01*
X123946002Y-82970812D01*
X123957949Y-82941970D01*
X123957949Y-82910752D01*
X123946002Y-82881910D01*
X123923927Y-82859835D01*
X123895085Y-82847888D01*
X123879476Y-82846351D01*
X123730886Y-82846351D01*
X123730886Y-82431061D01*
X124104266Y-82431061D01*
X124104266Y-82621561D01*
X124104533Y-82624282D01*
X124104360Y-82625451D01*
X124105224Y-82631295D01*
X124105803Y-82637170D01*
X124106254Y-82638260D01*
X124106655Y-82640966D01*
X124144755Y-82793366D01*
X124145165Y-82794516D01*
X124145207Y-82795094D01*
X124147697Y-82801602D01*
X124150032Y-82808136D01*
X124150375Y-82808599D01*
X124150813Y-82809743D01*
X124188913Y-82885942D01*
X124193140Y-82892657D01*
X124193950Y-82894613D01*
X124195755Y-82896812D01*
X124197268Y-82899216D01*
X124198862Y-82900598D01*
X124203900Y-82906737D01*
X124242001Y-82944837D01*
X124248135Y-82949871D01*
X124249521Y-82951469D01*
X124251928Y-82952984D01*
X124254125Y-82954787D01*
X124256075Y-82955595D01*
X124262794Y-82959824D01*
X124338994Y-82997924D01*
X124353643Y-83003530D01*
X124356510Y-83003733D01*
X124359167Y-83004834D01*
X124374776Y-83006371D01*
X124450976Y-83006371D01*
X124466585Y-83004834D01*
X124469241Y-83003733D01*
X124472109Y-83003530D01*
X124486758Y-82997924D01*
X124562957Y-82959824D01*
X124569672Y-82955596D01*
X124571628Y-82954787D01*
X124573827Y-82952981D01*
X124576231Y-82951469D01*
X124577613Y-82949874D01*
X124583752Y-82944837D01*
X124621852Y-82906736D01*
X124626886Y-82900601D01*
X124628484Y-82899216D01*
X124629999Y-82896808D01*
X124631802Y-82894612D01*
X124632610Y-82892661D01*
X124636839Y-82885943D01*
X124674939Y-82809743D01*
X124675376Y-82808599D01*
X124675720Y-82808136D01*
X124678054Y-82801602D01*
X124680545Y-82795094D01*
X124680586Y-82794516D01*
X124680997Y-82793366D01*
X124719097Y-82640967D01*
X124719497Y-82638260D01*
X124719949Y-82637170D01*
X124720527Y-82631296D01*
X124721392Y-82625451D01*
X124721218Y-82624282D01*
X124721486Y-82621561D01*
X124721486Y-82431061D01*
X124866266Y-82431061D01*
X124866266Y-82621561D01*
X124866533Y-82624282D01*
X124866360Y-82625451D01*
X124867224Y-82631295D01*
X124867803Y-82637170D01*
X124868254Y-82638260D01*
X124868655Y-82640966D01*
X124906755Y-82793366D01*
X124907165Y-82794516D01*
X124907207Y-82795094D01*
X124909697Y-82801602D01*
X124912032Y-82808136D01*
X124912375Y-82808599D01*
X124912813Y-82809743D01*
X124950913Y-82885942D01*
X124955140Y-82892657D01*
X124955950Y-82894613D01*
X124957755Y-82896812D01*
X124959268Y-82899216D01*
X124960862Y-82900598D01*
X124965900Y-82906737D01*
X125004001Y-82944837D01*
X125010135Y-82949871D01*
X125011521Y-82951469D01*
X125013928Y-82952984D01*
X125016125Y-82954787D01*
X125018075Y-82955595D01*
X125024794Y-82959824D01*
X125100994Y-82997924D01*
X125115643Y-83003530D01*
X125118510Y-83003733D01*
X125121167Y-83004834D01*
X125136776Y-83006371D01*
X125212976Y-83006371D01*
X125228585Y-83004834D01*
X125231241Y-83003733D01*
X125234109Y-83003530D01*
X125248758Y-82997924D01*
X125324957Y-82959824D01*
X125331672Y-82955596D01*
X125333628Y-82954787D01*
X125335827Y-82952981D01*
X125338231Y-82951469D01*
X125339613Y-82949874D01*
X125345752Y-82944837D01*
X125383852Y-82906736D01*
X125388886Y-82900601D01*
X125390484Y-82899216D01*
X125391999Y-82896808D01*
X125393802Y-82894612D01*
X125394610Y-82892661D01*
X125398839Y-82885943D01*
X125436939Y-82809743D01*
X125437376Y-82808599D01*
X125437720Y-82808136D01*
X125440054Y-82801602D01*
X125442545Y-82795094D01*
X125442586Y-82794516D01*
X125442997Y-82793366D01*
X125481097Y-82640967D01*
X125481497Y-82638260D01*
X125481949Y-82637170D01*
X125482527Y-82631296D01*
X125483392Y-82625451D01*
X125483218Y-82624282D01*
X125483486Y-82621561D01*
X125483486Y-82431061D01*
X125483218Y-82428339D01*
X125483392Y-82427171D01*
X125482527Y-82421325D01*
X125481949Y-82415452D01*
X125481497Y-82414361D01*
X125481097Y-82411655D01*
X125476423Y-82392961D01*
X125666366Y-82392961D01*
X125666366Y-82812061D01*
X125667903Y-82827670D01*
X125669003Y-82830326D01*
X125669207Y-82833194D01*
X125674813Y-82847843D01*
X125712913Y-82924042D01*
X125714554Y-82926649D01*
X125714966Y-82927885D01*
X125716299Y-82929422D01*
X125721268Y-82937316D01*
X125728846Y-82943888D01*
X125735421Y-82951469D01*
X125743319Y-82956440D01*
X125744852Y-82957770D01*
X125746082Y-82958180D01*
X125748694Y-82959824D01*
X125824894Y-82997924D01*
X125839543Y-83003530D01*
X125842410Y-83003733D01*
X125845067Y-83004834D01*
X125860676Y-83006371D01*
X125974976Y-83006371D01*
X125990585Y-83004834D01*
X125993241Y-83003733D01*
X125996109Y-83003530D01*
X126010758Y-82997924D01*
X126036827Y-82984889D01*
X126044825Y-82992887D01*
X126073667Y-83004834D01*
X126104885Y-83004834D01*
X126133727Y-82992887D01*
X126155802Y-82970812D01*
X126167749Y-82941970D01*
X126169286Y-82926361D01*
X126169286Y-82392961D01*
X126167749Y-82377352D01*
X126155802Y-82348510D01*
X126133727Y-82326435D01*
X126104885Y-82314488D01*
X126073667Y-82314488D01*
X126044825Y-82326435D01*
X126022750Y-82348510D01*
X126010803Y-82377352D01*
X126009266Y-82392961D01*
X126009266Y-82817019D01*
X126003780Y-82822504D01*
X125956088Y-82846351D01*
X125879563Y-82846351D01*
X125844112Y-82828625D01*
X125826386Y-82793173D01*
X125826386Y-82392961D01*
X125824849Y-82377352D01*
X125812902Y-82348510D01*
X125790827Y-82326435D01*
X125761985Y-82314488D01*
X125730767Y-82314488D01*
X125701925Y-82326435D01*
X125679850Y-82348510D01*
X125667903Y-82377352D01*
X125666366Y-82392961D01*
X125476423Y-82392961D01*
X125442997Y-82259256D01*
X125442586Y-82258105D01*
X125442545Y-82257528D01*
X125440054Y-82251019D01*
X125437720Y-82244486D01*
X125437376Y-82244022D01*
X125436939Y-82242879D01*
X125398839Y-82166679D01*
X125394610Y-82159960D01*
X125393802Y-82158010D01*
X125391999Y-82155813D01*
X125390484Y-82153406D01*
X125388886Y-82152020D01*
X125383852Y-82145886D01*
X125364228Y-82126261D01*
X126390266Y-82126261D01*
X126390266Y-82926361D01*
X126391803Y-82941970D01*
X126403750Y-82970812D01*
X126425825Y-82992887D01*
X126454667Y-83004834D01*
X126485885Y-83004834D01*
X126514727Y-82992887D01*
X126536802Y-82970812D01*
X126548749Y-82941970D01*
X126550286Y-82926361D01*
X126550286Y-82587271D01*
X126736976Y-82587271D01*
X126752585Y-82585734D01*
X126781427Y-82573787D01*
X126803502Y-82551712D01*
X126815449Y-82522870D01*
X126815449Y-82491652D01*
X126803502Y-82462810D01*
X126781427Y-82440735D01*
X126752585Y-82428788D01*
X126736976Y-82427251D01*
X126550286Y-82427251D01*
X126550286Y-82206271D01*
X126851276Y-82206271D01*
X126866885Y-82204734D01*
X126895727Y-82192787D01*
X126917802Y-82170712D01*
X126929749Y-82141870D01*
X126929749Y-82110652D01*
X126917802Y-82081810D01*
X126895727Y-82059735D01*
X126866885Y-82047788D01*
X126851276Y-82046251D01*
X126470276Y-82046251D01*
X126454667Y-82047788D01*
X126425825Y-82059735D01*
X126403750Y-82081810D01*
X126391803Y-82110652D01*
X126390266Y-82126261D01*
X125364228Y-82126261D01*
X125345752Y-82107785D01*
X125339613Y-82102747D01*
X125338231Y-82101153D01*
X125335827Y-82099640D01*
X125333628Y-82097835D01*
X125331672Y-82097025D01*
X125324957Y-82092798D01*
X125248758Y-82054698D01*
X125234109Y-82049092D01*
X125231241Y-82048888D01*
X125228585Y-82047788D01*
X125212976Y-82046251D01*
X125136776Y-82046251D01*
X125121167Y-82047788D01*
X125118510Y-82048888D01*
X125115643Y-82049092D01*
X125100994Y-82054698D01*
X125024794Y-82092798D01*
X125018075Y-82097026D01*
X125016125Y-82097835D01*
X125013928Y-82099637D01*
X125011521Y-82101153D01*
X125010135Y-82102750D01*
X125004001Y-82107785D01*
X124965900Y-82145885D01*
X124960862Y-82152023D01*
X124959268Y-82153406D01*
X124957755Y-82155809D01*
X124955950Y-82158009D01*
X124955140Y-82159964D01*
X124950913Y-82166680D01*
X124912813Y-82242879D01*
X124912375Y-82244022D01*
X124912032Y-82244486D01*
X124909697Y-82251019D01*
X124907207Y-82257528D01*
X124907165Y-82258105D01*
X124906755Y-82259256D01*
X124868655Y-82411656D01*
X124868254Y-82414361D01*
X124867803Y-82415452D01*
X124867224Y-82421326D01*
X124866360Y-82427171D01*
X124866533Y-82428339D01*
X124866266Y-82431061D01*
X124721486Y-82431061D01*
X124721218Y-82428339D01*
X124721392Y-82427171D01*
X124720527Y-82421325D01*
X124719949Y-82415452D01*
X124719497Y-82414361D01*
X124719097Y-82411655D01*
X124680997Y-82259256D01*
X124680586Y-82258105D01*
X124680545Y-82257528D01*
X124678054Y-82251019D01*
X124675720Y-82244486D01*
X124675376Y-82244022D01*
X124674939Y-82242879D01*
X124636839Y-82166679D01*
X124632610Y-82159960D01*
X124631802Y-82158010D01*
X124629999Y-82155813D01*
X124628484Y-82153406D01*
X124626886Y-82152020D01*
X124621852Y-82145886D01*
X124583752Y-82107785D01*
X124577613Y-82102747D01*
X124576231Y-82101153D01*
X124573827Y-82099640D01*
X124571628Y-82097835D01*
X124569672Y-82097025D01*
X124562957Y-82092798D01*
X124486758Y-82054698D01*
X124472109Y-82049092D01*
X124469241Y-82048888D01*
X124466585Y-82047788D01*
X124450976Y-82046251D01*
X124374776Y-82046251D01*
X124359167Y-82047788D01*
X124356510Y-82048888D01*
X124353643Y-82049092D01*
X124338994Y-82054698D01*
X124262794Y-82092798D01*
X124256075Y-82097026D01*
X124254125Y-82097835D01*
X124251928Y-82099637D01*
X124249521Y-82101153D01*
X124248135Y-82102750D01*
X124242001Y-82107785D01*
X124203900Y-82145885D01*
X124198862Y-82152023D01*
X124197268Y-82153406D01*
X124195755Y-82155809D01*
X124193950Y-82158009D01*
X124193140Y-82159964D01*
X124188913Y-82166680D01*
X124150813Y-82242879D01*
X124150375Y-82244022D01*
X124150032Y-82244486D01*
X124147697Y-82251019D01*
X124145207Y-82257528D01*
X124145165Y-82258105D01*
X124144755Y-82259256D01*
X124106655Y-82411656D01*
X124106254Y-82414361D01*
X124105803Y-82415452D01*
X124105224Y-82421326D01*
X124104360Y-82427171D01*
X124104533Y-82428339D01*
X124104266Y-82431061D01*
X123730886Y-82431061D01*
X123730886Y-82126261D01*
X123730880Y-82126204D01*
X123730886Y-82126177D01*
X123730869Y-82126095D01*
X123729349Y-82110652D01*
X123726317Y-82103333D01*
X123724764Y-82095565D01*
X123720400Y-82089049D01*
X123717402Y-82081810D01*
X123711804Y-82076212D01*
X123707393Y-82069625D01*
X123700865Y-82065273D01*
X123695327Y-82059735D01*
X123688012Y-82056705D01*
X123681418Y-82052309D01*
X123673726Y-82050787D01*
X123666485Y-82047788D01*
X123658563Y-82047788D01*
X123650793Y-82046251D01*
X123643107Y-82047788D01*
X123635267Y-82047788D01*
X123627948Y-82050819D01*
X123620180Y-82052373D01*
X123613664Y-82056736D01*
X123606425Y-82059735D01*
X123600825Y-82065334D01*
X123594241Y-82069744D01*
X123584407Y-82081752D01*
X123584350Y-82081810D01*
X123584339Y-82081835D01*
X123584304Y-82081879D01*
X123512500Y-82189585D01*
X123451080Y-82251005D01*
X123386494Y-82283298D01*
X123373221Y-82291653D01*
X123352766Y-82315237D01*
X123342894Y-82344854D01*
X123253994Y-82344854D01*
X123253994Y-81957351D01*
X127018649Y-81957351D01*
X127018649Y-83095271D01*
G37*
D11*
G36*
X125678596Y-65665353D02*
G01*
X125666194Y-65672330D01*
X125484170Y-65672330D01*
X125446527Y-65651156D01*
X125423386Y-65599087D01*
X125423386Y-65538744D01*
X125446527Y-65486675D01*
X125484170Y-65465502D01*
X125678596Y-65465502D01*
X125678596Y-65665353D01*
G37*
G36*
X127929358Y-65160103D02*
G01*
X127949737Y-65205955D01*
X127697291Y-65262755D01*
X127697291Y-65212173D01*
X127720433Y-65160103D01*
X127758075Y-65138930D01*
X127891717Y-65138930D01*
X127929358Y-65160103D01*
G37*
G36*
X129452310Y-65665353D02*
G01*
X129439908Y-65672330D01*
X129257884Y-65672330D01*
X129220241Y-65651156D01*
X129197100Y-65599087D01*
X129197100Y-65538744D01*
X129220241Y-65486675D01*
X129257884Y-65465502D01*
X129452310Y-65465502D01*
X129452310Y-65665353D01*
G37*
G36*
X132154847Y-65169298D02*
G01*
X132178709Y-65196143D01*
X132210024Y-65266601D01*
X132210024Y-65544658D01*
X132178708Y-65615118D01*
X132154847Y-65641962D01*
X132100860Y-65672330D01*
X132015598Y-65672330D01*
X131961611Y-65641963D01*
X131937748Y-65615117D01*
X131906433Y-65544658D01*
X131906433Y-65266601D01*
X131937748Y-65196142D01*
X131961610Y-65169298D01*
X132015598Y-65138930D01*
X132100859Y-65138930D01*
X132154847Y-65169298D01*
G37*
G36*
X135202846Y-65169298D02*
G01*
X135226708Y-65196143D01*
X135258023Y-65266601D01*
X135258023Y-65544658D01*
X135226707Y-65615118D01*
X135202846Y-65641962D01*
X135148859Y-65672330D01*
X135063597Y-65672330D01*
X135009610Y-65641963D01*
X134985747Y-65615117D01*
X134954432Y-65544658D01*
X134954432Y-65266601D01*
X134985747Y-65196142D01*
X135009609Y-65169298D01*
X135063597Y-65138930D01*
X135148858Y-65138930D01*
X135202846Y-65169298D01*
G37*
G36*
X136193858Y-66027930D02*
G01*
X124051786Y-66027930D01*
X124051786Y-65133487D01*
X124178786Y-65133487D01*
X124178786Y-65296773D01*
X124178957Y-65298510D01*
X124178814Y-65299324D01*
X124180008Y-65309187D01*
X124180982Y-65319072D01*
X124181298Y-65319835D01*
X124181508Y-65321568D01*
X124229889Y-65539282D01*
X124229965Y-65539516D01*
X124229969Y-65539640D01*
X124233456Y-65550163D01*
X124236870Y-65560574D01*
X124236940Y-65560674D01*
X124237018Y-65560909D01*
X124285399Y-65669766D01*
X124290272Y-65678348D01*
X124291246Y-65681155D01*
X124294080Y-65685054D01*
X124296463Y-65689251D01*
X124298618Y-65691299D01*
X124304419Y-65699280D01*
X124401181Y-65808139D01*
X124417637Y-65823346D01*
X124422455Y-65825682D01*
X124426369Y-65829339D01*
X124446477Y-65839225D01*
X124591620Y-65893653D01*
X124607246Y-65897819D01*
X124609454Y-65898734D01*
X124611391Y-65898924D01*
X124613271Y-65899426D01*
X124615658Y-65899344D01*
X124631753Y-65900930D01*
X124728515Y-65900930D01*
X124744610Y-65899344D01*
X124746998Y-65899426D01*
X124748878Y-65898924D01*
X124750814Y-65898734D01*
X124753020Y-65897820D01*
X124768648Y-65893653D01*
X124913791Y-65839224D01*
X124933900Y-65829339D01*
X124937814Y-65825681D01*
X124942631Y-65823346D01*
X124959087Y-65808138D01*
X125007468Y-65753710D01*
X125020641Y-65735584D01*
X125035259Y-65693450D01*
X125032640Y-65648930D01*
X125013183Y-65608800D01*
X124979850Y-65579171D01*
X124937716Y-65564553D01*
X124893195Y-65567172D01*
X124853066Y-65586629D01*
X124836610Y-65601837D01*
X124807030Y-65635114D01*
X124707788Y-65672330D01*
X124652478Y-65672330D01*
X124553237Y-65635114D01*
X124487082Y-65560689D01*
X124466547Y-65514487D01*
X125194786Y-65514487D01*
X125194786Y-65623344D01*
X125196982Y-65645643D01*
X125197550Y-65647014D01*
X125197588Y-65648496D01*
X125204637Y-65669765D01*
X125253018Y-65778623D01*
X125255053Y-65782209D01*
X125255528Y-65783902D01*
X125257286Y-65786141D01*
X125264081Y-65798109D01*
X125274338Y-65807855D01*
X125283072Y-65818977D01*
X125294340Y-65826861D01*
X125296411Y-65828829D01*
X125298056Y-65829461D01*
X125301431Y-65831823D01*
X125398192Y-65886251D01*
X125418704Y-65895269D01*
X125425553Y-65896092D01*
X125431930Y-65898734D01*
X125454229Y-65900930D01*
X125696134Y-65900930D01*
X125718433Y-65898734D01*
X125724807Y-65896093D01*
X125731658Y-65895270D01*
X125746490Y-65888748D01*
X125770597Y-65898734D01*
X125815195Y-65898734D01*
X125856398Y-65881667D01*
X125887933Y-65850132D01*
X125905000Y-65808929D01*
X125907196Y-65786630D01*
X125907196Y-65187916D01*
X125905000Y-65165617D01*
X125904431Y-65164245D01*
X125904394Y-65162763D01*
X125897345Y-65141494D01*
X125848964Y-65032637D01*
X125846929Y-65029053D01*
X125846455Y-65027360D01*
X125844694Y-65025118D01*
X125844417Y-65024630D01*
X126162405Y-65024630D01*
X126162405Y-65786630D01*
X126164601Y-65808929D01*
X126181668Y-65850132D01*
X126213203Y-65881667D01*
X126254406Y-65898734D01*
X126299004Y-65898734D01*
X126340207Y-65881667D01*
X126371742Y-65850132D01*
X126388809Y-65808929D01*
X126391005Y-65786630D01*
X126391005Y-65176944D01*
X126397801Y-65169298D01*
X126451789Y-65138930D01*
X126537050Y-65138930D01*
X126574691Y-65160103D01*
X126597834Y-65212173D01*
X126597834Y-65786630D01*
X126600030Y-65808929D01*
X126617097Y-65850132D01*
X126648632Y-65881667D01*
X126689835Y-65898734D01*
X126734433Y-65898734D01*
X126775636Y-65881667D01*
X126807171Y-65850132D01*
X126824238Y-65808929D01*
X126826434Y-65786630D01*
X126826434Y-65212173D01*
X126849576Y-65160103D01*
X126887218Y-65138930D01*
X126972478Y-65138930D01*
X127010120Y-65160104D01*
X127033262Y-65212173D01*
X127033262Y-65786630D01*
X127035458Y-65808929D01*
X127052525Y-65850132D01*
X127084060Y-65881667D01*
X127125263Y-65898734D01*
X127169861Y-65898734D01*
X127211064Y-65881667D01*
X127242599Y-65850132D01*
X127259666Y-65808929D01*
X127261862Y-65786630D01*
X127261862Y-65187916D01*
X127468691Y-65187916D01*
X127468691Y-65623344D01*
X127470887Y-65645643D01*
X127471455Y-65647014D01*
X127471493Y-65648496D01*
X127478542Y-65669765D01*
X127526923Y-65778623D01*
X127528958Y-65782209D01*
X127529433Y-65783902D01*
X127531191Y-65786141D01*
X127537986Y-65798109D01*
X127548243Y-65807855D01*
X127556977Y-65818977D01*
X127568245Y-65826861D01*
X127570316Y-65828829D01*
X127571961Y-65829461D01*
X127575336Y-65831823D01*
X127672097Y-65886251D01*
X127692609Y-65895269D01*
X127699458Y-65896092D01*
X127705835Y-65898734D01*
X127728134Y-65900930D01*
X127921658Y-65900930D01*
X127943957Y-65898734D01*
X127950331Y-65896093D01*
X127957182Y-65895270D01*
X127977694Y-65886251D01*
X128074456Y-65831824D01*
X128092815Y-65818977D01*
X128120359Y-65783902D01*
X128132384Y-65740957D01*
X128127059Y-65696678D01*
X128105195Y-65657807D01*
X128070120Y-65630263D01*
X128027174Y-65618238D01*
X127982895Y-65623563D01*
X127962383Y-65632581D01*
X127891718Y-65672330D01*
X127758075Y-65672330D01*
X127720432Y-65651156D01*
X127697291Y-65599087D01*
X127697291Y-65497069D01*
X128091891Y-65408285D01*
X128113164Y-65401248D01*
X128121209Y-65395576D01*
X128130303Y-65391810D01*
X128139260Y-65382852D01*
X128149616Y-65375553D01*
X128154878Y-65367234D01*
X128161838Y-65360275D01*
X128166686Y-65348568D01*
X128173459Y-65337864D01*
X128175137Y-65328168D01*
X128178905Y-65319072D01*
X128181101Y-65296773D01*
X128181101Y-65187916D01*
X128178905Y-65165617D01*
X128178336Y-65164245D01*
X128178299Y-65162763D01*
X128171250Y-65141494D01*
X128122869Y-65032637D01*
X128120834Y-65029053D01*
X128120360Y-65027360D01*
X128118599Y-65025118D01*
X128118322Y-65024630D01*
X128387929Y-65024630D01*
X128387929Y-65786630D01*
X128390125Y-65808929D01*
X128407192Y-65850132D01*
X128438727Y-65881667D01*
X128479930Y-65898734D01*
X128524528Y-65898734D01*
X128565731Y-65881667D01*
X128597266Y-65850132D01*
X128614333Y-65808929D01*
X128616529Y-65786630D01*
X128616529Y-65514487D01*
X128968500Y-65514487D01*
X128968500Y-65623344D01*
X128970696Y-65645643D01*
X128971264Y-65647014D01*
X128971302Y-65648496D01*
X128978351Y-65669765D01*
X129026732Y-65778623D01*
X129028767Y-65782209D01*
X129029242Y-65783902D01*
X129031000Y-65786141D01*
X129037795Y-65798109D01*
X129048052Y-65807855D01*
X129056786Y-65818977D01*
X129068054Y-65826861D01*
X129070125Y-65828829D01*
X129071770Y-65829461D01*
X129075145Y-65831823D01*
X129171906Y-65886251D01*
X129192418Y-65895269D01*
X129199267Y-65896092D01*
X129205644Y-65898734D01*
X129227943Y-65900930D01*
X129469848Y-65900930D01*
X129492147Y-65898734D01*
X129498521Y-65896093D01*
X129505372Y-65895270D01*
X129520204Y-65888748D01*
X129544311Y-65898734D01*
X129588909Y-65898734D01*
X129630112Y-65881667D01*
X129661647Y-65850132D01*
X129678714Y-65808929D01*
X129680910Y-65786630D01*
X129680910Y-65187916D01*
X129678714Y-65165617D01*
X129678145Y-65164245D01*
X129678108Y-65162763D01*
X129671059Y-65141494D01*
X129667500Y-65133487D01*
X130661833Y-65133487D01*
X130661833Y-65296773D01*
X130662004Y-65298510D01*
X130661861Y-65299324D01*
X130663055Y-65309187D01*
X130664029Y-65319072D01*
X130664345Y-65319835D01*
X130664555Y-65321568D01*
X130712936Y-65539282D01*
X130713012Y-65539516D01*
X130713016Y-65539640D01*
X130716503Y-65550163D01*
X130719917Y-65560574D01*
X130719987Y-65560674D01*
X130720065Y-65560909D01*
X130768446Y-65669766D01*
X130773319Y-65678348D01*
X130774293Y-65681155D01*
X130777127Y-65685054D01*
X130779510Y-65689251D01*
X130781665Y-65691299D01*
X130787466Y-65699280D01*
X130884228Y-65808139D01*
X130900684Y-65823346D01*
X130905502Y-65825682D01*
X130909416Y-65829339D01*
X130929524Y-65839225D01*
X131074667Y-65893653D01*
X131090293Y-65897819D01*
X131092501Y-65898734D01*
X131094438Y-65898924D01*
X131096318Y-65899426D01*
X131098705Y-65899344D01*
X131114800Y-65900930D01*
X131211562Y-65900930D01*
X131227657Y-65899344D01*
X131230045Y-65899426D01*
X131231925Y-65898924D01*
X131233861Y-65898734D01*
X131236067Y-65897820D01*
X131251695Y-65893653D01*
X131396838Y-65839224D01*
X131416947Y-65829339D01*
X131420861Y-65825681D01*
X131425678Y-65823346D01*
X131442134Y-65808138D01*
X131490515Y-65753710D01*
X131503688Y-65735584D01*
X131518306Y-65693450D01*
X131515687Y-65648930D01*
X131496230Y-65608800D01*
X131462897Y-65579171D01*
X131420763Y-65564553D01*
X131376242Y-65567172D01*
X131336113Y-65586629D01*
X131319657Y-65601837D01*
X131290077Y-65635114D01*
X131190835Y-65672330D01*
X131135525Y-65672330D01*
X131036284Y-65635114D01*
X130970129Y-65560689D01*
X130933608Y-65478518D01*
X130890433Y-65284226D01*
X130890433Y-65242344D01*
X131677833Y-65242344D01*
X131677833Y-65568916D01*
X131680029Y-65591215D01*
X131680597Y-65592586D01*
X131680635Y-65594069D01*
X131687684Y-65615338D01*
X131736065Y-65724195D01*
X131740938Y-65732777D01*
X131741912Y-65735584D01*
X131744746Y-65739483D01*
X131747129Y-65743680D01*
X131749284Y-65745728D01*
X131755085Y-65753709D01*
X131803466Y-65808138D01*
X131812662Y-65816636D01*
X131814500Y-65818977D01*
X131817359Y-65820977D01*
X131819922Y-65823346D01*
X131822599Y-65824644D01*
X131832859Y-65831823D01*
X131929620Y-65886251D01*
X131950132Y-65895269D01*
X131956981Y-65896092D01*
X131963358Y-65898734D01*
X131985657Y-65900930D01*
X132130800Y-65900930D01*
X132153099Y-65898734D01*
X132159473Y-65896093D01*
X132166324Y-65895270D01*
X132186836Y-65886251D01*
X132283598Y-65831824D01*
X132293860Y-65824642D01*
X132296535Y-65823346D01*
X132299096Y-65820978D01*
X132301957Y-65818977D01*
X132303794Y-65816636D01*
X132312991Y-65808138D01*
X132361372Y-65753710D01*
X132367173Y-65745727D01*
X132369328Y-65743680D01*
X132371710Y-65739484D01*
X132374545Y-65735584D01*
X132375518Y-65732777D01*
X132380392Y-65724195D01*
X132428773Y-65615338D01*
X132435822Y-65594069D01*
X132435859Y-65592586D01*
X132436428Y-65591215D01*
X132438624Y-65568916D01*
X132438624Y-65242344D01*
X132436428Y-65220045D01*
X132435859Y-65218673D01*
X132435822Y-65217191D01*
X132428773Y-65195922D01*
X132380392Y-65087065D01*
X132375519Y-65078484D01*
X132374545Y-65075675D01*
X132371708Y-65071771D01*
X132369328Y-65067580D01*
X132367174Y-65065533D01*
X132361372Y-65057550D01*
X132332109Y-65024630D01*
X132645452Y-65024630D01*
X132645452Y-65786630D01*
X132647648Y-65808929D01*
X132664715Y-65850132D01*
X132696250Y-65881667D01*
X132737453Y-65898734D01*
X132782051Y-65898734D01*
X132823254Y-65881667D01*
X132854789Y-65850132D01*
X132871856Y-65808929D01*
X132874052Y-65786630D01*
X132874052Y-65176944D01*
X132880848Y-65169298D01*
X132934836Y-65138930D01*
X133020097Y-65138930D01*
X133057738Y-65160103D01*
X133080881Y-65212173D01*
X133080881Y-65786630D01*
X133083077Y-65808929D01*
X133100144Y-65850132D01*
X133131679Y-65881667D01*
X133172882Y-65898734D01*
X133217480Y-65898734D01*
X133258683Y-65881667D01*
X133290218Y-65850132D01*
X133307285Y-65808929D01*
X133309481Y-65786630D01*
X133309481Y-65187916D01*
X133307285Y-65165617D01*
X133306716Y-65164245D01*
X133306679Y-65162763D01*
X133299630Y-65141494D01*
X133251249Y-65032637D01*
X133249214Y-65029053D01*
X133248740Y-65027360D01*
X133246979Y-65025118D01*
X133240185Y-65013152D01*
X133229932Y-65003409D01*
X133229085Y-65002331D01*
X133421743Y-65002331D01*
X133421743Y-65046929D01*
X133438810Y-65088132D01*
X133470345Y-65119667D01*
X133511548Y-65136734D01*
X133533847Y-65138930D01*
X133564690Y-65138930D01*
X133564690Y-65623344D01*
X133566886Y-65645643D01*
X133567454Y-65647014D01*
X133567492Y-65648496D01*
X133574541Y-65669765D01*
X133622922Y-65778623D01*
X133624957Y-65782209D01*
X133625432Y-65783902D01*
X133627190Y-65786141D01*
X133633985Y-65798109D01*
X133644242Y-65807855D01*
X133652976Y-65818977D01*
X133664244Y-65826861D01*
X133666315Y-65828829D01*
X133667960Y-65829461D01*
X133671335Y-65831823D01*
X133768096Y-65886251D01*
X133788608Y-65895269D01*
X133795457Y-65896092D01*
X133801834Y-65898734D01*
X133824133Y-65900930D01*
X133920895Y-65900930D01*
X133943194Y-65898734D01*
X133984397Y-65881667D01*
X134015932Y-65850132D01*
X134032999Y-65808929D01*
X134032999Y-65764331D01*
X134015932Y-65723128D01*
X133984397Y-65691593D01*
X133943194Y-65674526D01*
X133920895Y-65672330D01*
X133854074Y-65672330D01*
X133816431Y-65651156D01*
X133793290Y-65599087D01*
X133793290Y-65138930D01*
X133920895Y-65138930D01*
X133943194Y-65136734D01*
X133984397Y-65119667D01*
X134015932Y-65088132D01*
X134032999Y-65046929D01*
X134032999Y-65024630D01*
X134145261Y-65024630D01*
X134145261Y-65786630D01*
X134147457Y-65808929D01*
X134164524Y-65850132D01*
X134196059Y-65881667D01*
X134237262Y-65898734D01*
X134281860Y-65898734D01*
X134323063Y-65881667D01*
X134354598Y-65850132D01*
X134371665Y-65808929D01*
X134373861Y-65786630D01*
X134373861Y-65266601D01*
X134384642Y-65242344D01*
X134725832Y-65242344D01*
X134725832Y-65568916D01*
X134728028Y-65591215D01*
X134728596Y-65592586D01*
X134728634Y-65594069D01*
X134735683Y-65615338D01*
X134784064Y-65724195D01*
X134788937Y-65732777D01*
X134789911Y-65735584D01*
X134792745Y-65739483D01*
X134795128Y-65743680D01*
X134797283Y-65745728D01*
X134803084Y-65753709D01*
X134851465Y-65808138D01*
X134860661Y-65816636D01*
X134862499Y-65818977D01*
X134865358Y-65820977D01*
X134867921Y-65823346D01*
X134870598Y-65824644D01*
X134880858Y-65831823D01*
X134977619Y-65886251D01*
X134998131Y-65895269D01*
X135004980Y-65896092D01*
X135011357Y-65898734D01*
X135033656Y-65900930D01*
X135178799Y-65900930D01*
X135201098Y-65898734D01*
X135207472Y-65896093D01*
X135214323Y-65895270D01*
X135234835Y-65886251D01*
X135331597Y-65831824D01*
X135341859Y-65824642D01*
X135344534Y-65823346D01*
X135347095Y-65820978D01*
X135349956Y-65818977D01*
X135351793Y-65816636D01*
X135360990Y-65808138D01*
X135409371Y-65753710D01*
X135415172Y-65745727D01*
X135417327Y-65743680D01*
X135419709Y-65739484D01*
X135422544Y-65735584D01*
X135423517Y-65732777D01*
X135428391Y-65724195D01*
X135476772Y-65615338D01*
X135483821Y-65594069D01*
X135483858Y-65592586D01*
X135484427Y-65591215D01*
X135486623Y-65568916D01*
X135486623Y-65242344D01*
X135484427Y-65220045D01*
X135483858Y-65218673D01*
X135483821Y-65217191D01*
X135476772Y-65195922D01*
X135428391Y-65087065D01*
X135423518Y-65078484D01*
X135422544Y-65075675D01*
X135419707Y-65071771D01*
X135417327Y-65067580D01*
X135415173Y-65065533D01*
X135409371Y-65057550D01*
X135360989Y-65003122D01*
X135351794Y-64994624D01*
X135349957Y-64992285D01*
X135347097Y-64990284D01*
X135344533Y-64987914D01*
X135341855Y-64986615D01*
X135331598Y-64979438D01*
X135234836Y-64925009D01*
X135214324Y-64915991D01*
X135207473Y-64915167D01*
X135201098Y-64912526D01*
X135178799Y-64910330D01*
X135033656Y-64910330D01*
X135011357Y-64912526D01*
X135004980Y-64915167D01*
X134998131Y-64915991D01*
X134977619Y-64925009D01*
X134880857Y-64979438D01*
X134870597Y-64986617D01*
X134867922Y-64987914D01*
X134865360Y-64990281D01*
X134862498Y-64992284D01*
X134860659Y-64994625D01*
X134851466Y-65003121D01*
X134803085Y-65057550D01*
X134797283Y-65065531D01*
X134795128Y-65067580D01*
X134792747Y-65071773D01*
X134789911Y-65075675D01*
X134788936Y-65078484D01*
X134784064Y-65087065D01*
X134735683Y-65195922D01*
X134728634Y-65217191D01*
X134728596Y-65218673D01*
X134728028Y-65220045D01*
X134725832Y-65242344D01*
X134384642Y-65242344D01*
X134405176Y-65196142D01*
X134429038Y-65169298D01*
X134483026Y-65138930D01*
X134549847Y-65138930D01*
X134572146Y-65136734D01*
X134613349Y-65119667D01*
X134644884Y-65088132D01*
X134661951Y-65046929D01*
X134661951Y-65002331D01*
X134644884Y-64961128D01*
X134613349Y-64929593D01*
X134572146Y-64912526D01*
X134549847Y-64910330D01*
X134453085Y-64910330D01*
X134430786Y-64912526D01*
X134424409Y-64915167D01*
X134417560Y-64915991D01*
X134397048Y-64925009D01*
X134346763Y-64953293D01*
X134323063Y-64929593D01*
X134281860Y-64912526D01*
X134237262Y-64912526D01*
X134196059Y-64929593D01*
X134164524Y-64961128D01*
X134147457Y-65002331D01*
X134145261Y-65024630D01*
X134032999Y-65024630D01*
X134032999Y-65002331D01*
X134015932Y-64961128D01*
X133984397Y-64929593D01*
X133943194Y-64912526D01*
X133920895Y-64910330D01*
X133793290Y-64910330D01*
X133793290Y-64643630D01*
X135693451Y-64643630D01*
X135693451Y-65623344D01*
X135695647Y-65645643D01*
X135696215Y-65647014D01*
X135696253Y-65648496D01*
X135703302Y-65669765D01*
X135751683Y-65778623D01*
X135753718Y-65782209D01*
X135754193Y-65783902D01*
X135755951Y-65786141D01*
X135762746Y-65798109D01*
X135773003Y-65807855D01*
X135781737Y-65818977D01*
X135793005Y-65826861D01*
X135795076Y-65828829D01*
X135796721Y-65829461D01*
X135800096Y-65831823D01*
X135896857Y-65886251D01*
X135917369Y-65895269D01*
X135961648Y-65900594D01*
X136004594Y-65888569D01*
X136039669Y-65861025D01*
X136061533Y-65822154D01*
X136066858Y-65777875D01*
X136054833Y-65734930D01*
X136027289Y-65699855D01*
X136008930Y-65687008D01*
X135945192Y-65651156D01*
X135922051Y-65599087D01*
X135922051Y-64643630D01*
X135919855Y-64621331D01*
X135902788Y-64580128D01*
X135871253Y-64548593D01*
X135830050Y-64531526D01*
X135785452Y-64531526D01*
X135744249Y-64548593D01*
X135712714Y-64580128D01*
X135695647Y-64621331D01*
X135693451Y-64643630D01*
X133793290Y-64643630D01*
X133791094Y-64621331D01*
X133774027Y-64580128D01*
X133742492Y-64548593D01*
X133701289Y-64531526D01*
X133656691Y-64531526D01*
X133615488Y-64548593D01*
X133583953Y-64580128D01*
X133566886Y-64621331D01*
X133564690Y-64643630D01*
X133564690Y-64910330D01*
X133533847Y-64910330D01*
X133511548Y-64912526D01*
X133470345Y-64929593D01*
X133438810Y-64961128D01*
X133421743Y-65002331D01*
X133229085Y-65002331D01*
X133221196Y-64992285D01*
X133209921Y-64984395D01*
X133207855Y-64982432D01*
X133206213Y-64981800D01*
X133202837Y-64979438D01*
X133106075Y-64925009D01*
X133085563Y-64915991D01*
X133078712Y-64915167D01*
X133072337Y-64912526D01*
X133050038Y-64910330D01*
X132904895Y-64910330D01*
X132882596Y-64912526D01*
X132876219Y-64915167D01*
X132869370Y-64915991D01*
X132848858Y-64925009D01*
X132829537Y-64935876D01*
X132823254Y-64929593D01*
X132782051Y-64912526D01*
X132737453Y-64912526D01*
X132696250Y-64929593D01*
X132664715Y-64961128D01*
X132647648Y-65002331D01*
X132645452Y-65024630D01*
X132332109Y-65024630D01*
X132312990Y-65003122D01*
X132303795Y-64994624D01*
X132301958Y-64992285D01*
X132299098Y-64990284D01*
X132296534Y-64987914D01*
X132293856Y-64986615D01*
X132283599Y-64979438D01*
X132186837Y-64925009D01*
X132166325Y-64915991D01*
X132159474Y-64915167D01*
X132153099Y-64912526D01*
X132130800Y-64910330D01*
X131985657Y-64910330D01*
X131963358Y-64912526D01*
X131956981Y-64915167D01*
X131950132Y-64915991D01*
X131929620Y-64925009D01*
X131832858Y-64979438D01*
X131822598Y-64986617D01*
X131819923Y-64987914D01*
X131817361Y-64990281D01*
X131814499Y-64992284D01*
X131812660Y-64994625D01*
X131803467Y-65003121D01*
X131755086Y-65057550D01*
X131749284Y-65065531D01*
X131747129Y-65067580D01*
X131744748Y-65071773D01*
X131741912Y-65075675D01*
X131740937Y-65078484D01*
X131736065Y-65087065D01*
X131687684Y-65195922D01*
X131680635Y-65217191D01*
X131680597Y-65218673D01*
X131680029Y-65220045D01*
X131677833Y-65242344D01*
X130890433Y-65242344D01*
X130890433Y-65146033D01*
X130933608Y-64951741D01*
X130970128Y-64869573D01*
X131036286Y-64795144D01*
X131135526Y-64757930D01*
X131190836Y-64757930D01*
X131290076Y-64795145D01*
X131319658Y-64828425D01*
X131336114Y-64843632D01*
X131376244Y-64863089D01*
X131420764Y-64865707D01*
X131462898Y-64851089D01*
X131496231Y-64821460D01*
X131515688Y-64781330D01*
X131518306Y-64736810D01*
X131503688Y-64694675D01*
X131490515Y-64676550D01*
X131442133Y-64622122D01*
X131425677Y-64606914D01*
X131420859Y-64604578D01*
X131416947Y-64600923D01*
X131396839Y-64591037D01*
X131251696Y-64536608D01*
X131236068Y-64532440D01*
X131233861Y-64531526D01*
X131231924Y-64531335D01*
X131230045Y-64530834D01*
X131227657Y-64530915D01*
X131211562Y-64529330D01*
X131114800Y-64529330D01*
X131098704Y-64530915D01*
X131096317Y-64530834D01*
X131094437Y-64531335D01*
X131092501Y-64531526D01*
X131090293Y-64532440D01*
X131074666Y-64536608D01*
X130929523Y-64591037D01*
X130909415Y-64600923D01*
X130905502Y-64604578D01*
X130900684Y-64606915D01*
X130884228Y-64622122D01*
X130787466Y-64730979D01*
X130781664Y-64738961D01*
X130779510Y-64741009D01*
X130777127Y-64745204D01*
X130774293Y-64749105D01*
X130773319Y-64751911D01*
X130768446Y-64760494D01*
X130720065Y-64869351D01*
X130719987Y-64869585D01*
X130719917Y-64869686D01*
X130716503Y-64880096D01*
X130713016Y-64890620D01*
X130713012Y-64890743D01*
X130712936Y-64890978D01*
X130664555Y-65108692D01*
X130664345Y-65110424D01*
X130664029Y-65111188D01*
X130663055Y-65121072D01*
X130661861Y-65130936D01*
X130662004Y-65131749D01*
X130661833Y-65133487D01*
X129667500Y-65133487D01*
X129622678Y-65032637D01*
X129620643Y-65029053D01*
X129620169Y-65027360D01*
X129618408Y-65025118D01*
X129611614Y-65013152D01*
X129601361Y-65003409D01*
X129592625Y-64992285D01*
X129581350Y-64984395D01*
X129579284Y-64982432D01*
X129577642Y-64981800D01*
X129574266Y-64979438D01*
X129477504Y-64925009D01*
X129456992Y-64915991D01*
X129450141Y-64915167D01*
X129443766Y-64912526D01*
X129421467Y-64910330D01*
X129227943Y-64910330D01*
X129205644Y-64912526D01*
X129199267Y-64915167D01*
X129192418Y-64915991D01*
X129171906Y-64925009D01*
X129075144Y-64979438D01*
X129056785Y-64992284D01*
X129029241Y-65027360D01*
X129017216Y-65070306D01*
X129022542Y-65114584D01*
X129044406Y-65153455D01*
X129079482Y-65180999D01*
X129122428Y-65193024D01*
X129166706Y-65187698D01*
X129187218Y-65178680D01*
X129257884Y-65138930D01*
X129391526Y-65138930D01*
X129429167Y-65160103D01*
X129452310Y-65212173D01*
X129452310Y-65229925D01*
X129439907Y-65236902D01*
X129227943Y-65236902D01*
X129205644Y-65239098D01*
X129199267Y-65241739D01*
X129192418Y-65242563D01*
X129171906Y-65251581D01*
X129075145Y-65306009D01*
X129071769Y-65308370D01*
X129070126Y-65309003D01*
X129068058Y-65310967D01*
X129056786Y-65318855D01*
X129048049Y-65329979D01*
X129037796Y-65339723D01*
X129031000Y-65351690D01*
X129029242Y-65353930D01*
X129028768Y-65355621D01*
X129026732Y-65359208D01*
X128978351Y-65468065D01*
X128971302Y-65489334D01*
X128971264Y-65490816D01*
X128970696Y-65492188D01*
X128968500Y-65514487D01*
X128616529Y-65514487D01*
X128616529Y-65266601D01*
X128647844Y-65196142D01*
X128671706Y-65169298D01*
X128725694Y-65138930D01*
X128792515Y-65138930D01*
X128814814Y-65136734D01*
X128856017Y-65119667D01*
X128887552Y-65088132D01*
X128904619Y-65046929D01*
X128904619Y-65002331D01*
X128887552Y-64961128D01*
X128856017Y-64929593D01*
X128814814Y-64912526D01*
X128792515Y-64910330D01*
X128695753Y-64910330D01*
X128673454Y-64912526D01*
X128667077Y-64915167D01*
X128660228Y-64915991D01*
X128639716Y-64925009D01*
X128589431Y-64953293D01*
X128565731Y-64929593D01*
X128524528Y-64912526D01*
X128479930Y-64912526D01*
X128438727Y-64929593D01*
X128407192Y-64961128D01*
X128390125Y-65002331D01*
X128387929Y-65024630D01*
X128118322Y-65024630D01*
X128111805Y-65013152D01*
X128101552Y-65003409D01*
X128092816Y-64992285D01*
X128081541Y-64984395D01*
X128079475Y-64982432D01*
X128077833Y-64981800D01*
X128074457Y-64979438D01*
X127977695Y-64925009D01*
X127957183Y-64915991D01*
X127950332Y-64915167D01*
X127943957Y-64912526D01*
X127921658Y-64910330D01*
X127728134Y-64910330D01*
X127705835Y-64912526D01*
X127699458Y-64915167D01*
X127692609Y-64915991D01*
X127672097Y-64925009D01*
X127575335Y-64979438D01*
X127571958Y-64981800D01*
X127570317Y-64982432D01*
X127568252Y-64984393D01*
X127556976Y-64992284D01*
X127548237Y-65003411D01*
X127537987Y-65013152D01*
X127531192Y-65025118D01*
X127529432Y-65027360D01*
X127528957Y-65029053D01*
X127526923Y-65032637D01*
X127478542Y-65141494D01*
X127471493Y-65162763D01*
X127471455Y-65164245D01*
X127470887Y-65165617D01*
X127468691Y-65187916D01*
X127261862Y-65187916D01*
X127259666Y-65165617D01*
X127259097Y-65164245D01*
X127259060Y-65162763D01*
X127252011Y-65141494D01*
X127203630Y-65032637D01*
X127201595Y-65029053D01*
X127201121Y-65027360D01*
X127199360Y-65025118D01*
X127192566Y-65013152D01*
X127182313Y-65003409D01*
X127173577Y-64992285D01*
X127162300Y-64984393D01*
X127160236Y-64982432D01*
X127158595Y-64981801D01*
X127155219Y-64979438D01*
X127058458Y-64925009D01*
X127037946Y-64915991D01*
X127031094Y-64915166D01*
X127024719Y-64912526D01*
X127002420Y-64910330D01*
X126857277Y-64910330D01*
X126834978Y-64912526D01*
X126828601Y-64915167D01*
X126821752Y-64915991D01*
X126801240Y-64925009D01*
X126712134Y-64975131D01*
X126623028Y-64925009D01*
X126602516Y-64915991D01*
X126595665Y-64915167D01*
X126589290Y-64912526D01*
X126566991Y-64910330D01*
X126421848Y-64910330D01*
X126399549Y-64912526D01*
X126393172Y-64915167D01*
X126386323Y-64915991D01*
X126365811Y-64925009D01*
X126346490Y-64935876D01*
X126340207Y-64929593D01*
X126299004Y-64912526D01*
X126254406Y-64912526D01*
X126213203Y-64929593D01*
X126181668Y-64961128D01*
X126164601Y-65002331D01*
X126162405Y-65024630D01*
X125844417Y-65024630D01*
X125837900Y-65013152D01*
X125827647Y-65003409D01*
X125818911Y-64992285D01*
X125807636Y-64984395D01*
X125805570Y-64982432D01*
X125803928Y-64981800D01*
X125800552Y-64979438D01*
X125703790Y-64925009D01*
X125683278Y-64915991D01*
X125676427Y-64915167D01*
X125670052Y-64912526D01*
X125647753Y-64910330D01*
X125454229Y-64910330D01*
X125431930Y-64912526D01*
X125425553Y-64915167D01*
X125418704Y-64915991D01*
X125398192Y-64925009D01*
X125301430Y-64979438D01*
X125283071Y-64992284D01*
X125255527Y-65027360D01*
X125243502Y-65070306D01*
X125248828Y-65114584D01*
X125270692Y-65153455D01*
X125305768Y-65180999D01*
X125348714Y-65193024D01*
X125392992Y-65187698D01*
X125413504Y-65178680D01*
X125484170Y-65138930D01*
X125617812Y-65138930D01*
X125655453Y-65160103D01*
X125678596Y-65212173D01*
X125678596Y-65229925D01*
X125666193Y-65236902D01*
X125454229Y-65236902D01*
X125431930Y-65239098D01*
X125425553Y-65241739D01*
X125418704Y-65242563D01*
X125398192Y-65251581D01*
X125301431Y-65306009D01*
X125298055Y-65308370D01*
X125296412Y-65309003D01*
X125294344Y-65310967D01*
X125283072Y-65318855D01*
X125274335Y-65329979D01*
X125264082Y-65339723D01*
X125257286Y-65351690D01*
X125255528Y-65353930D01*
X125255054Y-65355621D01*
X125253018Y-65359208D01*
X125204637Y-65468065D01*
X125197588Y-65489334D01*
X125197550Y-65490816D01*
X125196982Y-65492188D01*
X125194786Y-65514487D01*
X124466547Y-65514487D01*
X124450561Y-65478518D01*
X124407386Y-65284226D01*
X124407386Y-65146033D01*
X124450561Y-64951741D01*
X124487081Y-64869573D01*
X124553239Y-64795144D01*
X124652479Y-64757930D01*
X124707789Y-64757930D01*
X124807029Y-64795145D01*
X124836611Y-64828425D01*
X124853067Y-64843632D01*
X124893197Y-64863089D01*
X124937717Y-64865707D01*
X124979851Y-64851089D01*
X125013184Y-64821460D01*
X125032641Y-64781330D01*
X125035259Y-64736810D01*
X125020641Y-64694675D01*
X125007468Y-64676550D01*
X124959086Y-64622122D01*
X124942630Y-64606914D01*
X124937812Y-64604578D01*
X124933900Y-64600923D01*
X124913792Y-64591037D01*
X124768649Y-64536608D01*
X124753021Y-64532440D01*
X124750814Y-64531526D01*
X124748877Y-64531335D01*
X124746998Y-64530834D01*
X124744610Y-64530915D01*
X124728515Y-64529330D01*
X124631753Y-64529330D01*
X124615657Y-64530915D01*
X124613270Y-64530834D01*
X124611390Y-64531335D01*
X124609454Y-64531526D01*
X124607246Y-64532440D01*
X124591619Y-64536608D01*
X124446476Y-64591037D01*
X124426368Y-64600923D01*
X124422455Y-64604578D01*
X124417637Y-64606915D01*
X124401181Y-64622122D01*
X124304419Y-64730979D01*
X124298617Y-64738961D01*
X124296463Y-64741009D01*
X124294080Y-64745204D01*
X124291246Y-64749105D01*
X124290272Y-64751911D01*
X124285399Y-64760494D01*
X124237018Y-64869351D01*
X124236940Y-64869585D01*
X124236870Y-64869686D01*
X124233456Y-64880096D01*
X124229969Y-64890620D01*
X124229965Y-64890743D01*
X124229889Y-64890978D01*
X124181508Y-65108692D01*
X124181298Y-65110424D01*
X124180982Y-65111188D01*
X124180008Y-65121072D01*
X124178814Y-65130936D01*
X124178957Y-65131749D01*
X124178786Y-65133487D01*
X124051786Y-65133487D01*
X124051786Y-64402330D01*
X136193858Y-64402330D01*
X136193858Y-66027930D01*
G37*
D10*
X132058276Y-87714261D02*
X132096376Y-87676161D01*
X132096376Y-87676161D02*
X132172576Y-87638061D01*
X132172576Y-87638061D02*
X132363076Y-87638061D01*
X132363076Y-87638061D02*
X132439276Y-87676161D01*
X132439276Y-87676161D02*
X132477376Y-87714261D01*
X132477376Y-87714261D02*
X132515476Y-87790461D01*
X132515476Y-87790461D02*
X132515476Y-87866661D01*
X132515476Y-87866661D02*
X132477376Y-87980961D01*
X132477376Y-87980961D02*
X132020176Y-88438161D01*
X132020176Y-88438161D02*
X132515476Y-88438161D01*
X132858376Y-88438161D02*
X132858376Y-87638061D01*
X132858376Y-87638061D02*
X133315576Y-88438161D01*
X133315576Y-88438161D02*
X133315576Y-87638061D01*
X133620376Y-87638061D02*
X134153776Y-87638061D01*
X134153776Y-87638061D02*
X133810876Y-88438161D01*
X134610976Y-87638061D02*
X134687176Y-87638061D01*
X134687176Y-87638061D02*
X134763376Y-87676161D01*
X134763376Y-87676161D02*
X134801476Y-87714261D01*
X134801476Y-87714261D02*
X134839576Y-87790461D01*
X134839576Y-87790461D02*
X134877676Y-87942861D01*
X134877676Y-87942861D02*
X134877676Y-88133361D01*
X134877676Y-88133361D02*
X134839576Y-88285761D01*
X134839576Y-88285761D02*
X134801476Y-88361961D01*
X134801476Y-88361961D02*
X134763376Y-88400061D01*
X134763376Y-88400061D02*
X134687176Y-88438161D01*
X134687176Y-88438161D02*
X134610976Y-88438161D01*
X134610976Y-88438161D02*
X134534776Y-88400061D01*
X134534776Y-88400061D02*
X134496676Y-88361961D01*
X134496676Y-88361961D02*
X134458576Y-88285761D01*
X134458576Y-88285761D02*
X134420476Y-88133361D01*
X134420476Y-88133361D02*
X134420476Y-87942861D01*
X134420476Y-87942861D02*
X134458576Y-87790461D01*
X134458576Y-87790461D02*
X134496676Y-87714261D01*
X134496676Y-87714261D02*
X134534776Y-87676161D01*
X134534776Y-87676161D02*
X134610976Y-87638061D01*
X135372976Y-87638061D02*
X135449176Y-87638061D01*
X135449176Y-87638061D02*
X135525376Y-87676161D01*
X135525376Y-87676161D02*
X135563476Y-87714261D01*
X135563476Y-87714261D02*
X135601576Y-87790461D01*
X135601576Y-87790461D02*
X135639676Y-87942861D01*
X135639676Y-87942861D02*
X135639676Y-88133361D01*
X135639676Y-88133361D02*
X135601576Y-88285761D01*
X135601576Y-88285761D02*
X135563476Y-88361961D01*
X135563476Y-88361961D02*
X135525376Y-88400061D01*
X135525376Y-88400061D02*
X135449176Y-88438161D01*
X135449176Y-88438161D02*
X135372976Y-88438161D01*
X135372976Y-88438161D02*
X135296776Y-88400061D01*
X135296776Y-88400061D02*
X135258676Y-88361961D01*
X135258676Y-88361961D02*
X135220576Y-88285761D01*
X135220576Y-88285761D02*
X135182476Y-88133361D01*
X135182476Y-88133361D02*
X135182476Y-87942861D01*
X135182476Y-87942861D02*
X135220576Y-87790461D01*
X135220576Y-87790461D02*
X135258676Y-87714261D01*
X135258676Y-87714261D02*
X135296776Y-87676161D01*
X135296776Y-87676161D02*
X135372976Y-87638061D01*
X136134976Y-87638061D02*
X136211176Y-87638061D01*
X136211176Y-87638061D02*
X136287376Y-87676161D01*
X136287376Y-87676161D02*
X136325476Y-87714261D01*
X136325476Y-87714261D02*
X136363576Y-87790461D01*
X136363576Y-87790461D02*
X136401676Y-87942861D01*
X136401676Y-87942861D02*
X136401676Y-88133361D01*
X136401676Y-88133361D02*
X136363576Y-88285761D01*
X136363576Y-88285761D02*
X136325476Y-88361961D01*
X136325476Y-88361961D02*
X136287376Y-88400061D01*
X136287376Y-88400061D02*
X136211176Y-88438161D01*
X136211176Y-88438161D02*
X136134976Y-88438161D01*
X136134976Y-88438161D02*
X136058776Y-88400061D01*
X136058776Y-88400061D02*
X136020676Y-88361961D01*
X136020676Y-88361961D02*
X135982576Y-88285761D01*
X135982576Y-88285761D02*
X135944476Y-88133361D01*
X135944476Y-88133361D02*
X135944476Y-87942861D01*
X135944476Y-87942861D02*
X135982576Y-87790461D01*
X135982576Y-87790461D02*
X136020676Y-87714261D01*
X136020676Y-87714261D02*
X136058776Y-87676161D01*
X136058776Y-87676161D02*
X136134976Y-87638061D01*
D12*
%TO.C,J2*%
X124160800Y-87788200D02*
X129940800Y-87788200D01*
X124160800Y-88308200D02*
X129940800Y-88308200D01*
X124160800Y-93608200D02*
X124750800Y-93608200D01*
X124160800Y-94228200D02*
X124160800Y-87788200D01*
X124750800Y-94228200D02*
X124160800Y-94228200D01*
X126810800Y-93608200D02*
X127290800Y-93608200D01*
X127290800Y-94228200D02*
X126810800Y-94228200D01*
X129350800Y-93608200D02*
X129940800Y-93608200D01*
X129940800Y-87788200D02*
X129940800Y-94228200D01*
X129940800Y-94228200D02*
X129350800Y-94228200D01*
X126220800Y-95188200D02*
X125340800Y-95188200D01*
X125780800Y-94578200D01*
X126220800Y-95188200D01*
G36*
X126220800Y-95188200D02*
G01*
X125340800Y-95188200D01*
X125780800Y-94578200D01*
X126220800Y-95188200D01*
G37*
%TO.C,R0*%
X120000000Y-73195000D02*
X120000000Y-73305000D01*
X120000000Y-85555000D02*
X120000000Y-85445000D01*
X117630000Y-85445000D02*
X122370000Y-85445000D01*
X122370000Y-73305000D01*
X117630000Y-73305000D01*
X117630000Y-85445000D01*
%TO.C,Q2*%
X136343000Y-71777000D02*
X136343000Y-68177000D01*
X132043000Y-69197000D02*
G75*
G02*
X136320684Y-68168555I2450000J-780000D01*
G01*
X136334741Y-71788875D02*
G75*
G02*
X132043000Y-70797000I-1841741J1811875D01*
G01*
%TO.C,Q3*%
X132033400Y-83037000D02*
X132033400Y-86637000D01*
X132041659Y-83025125D02*
G75*
G02*
X136333400Y-84017000I1841741J-1811875D01*
G01*
X136333400Y-85617000D02*
G75*
G02*
X132055716Y-86645445I-2450000J780000D01*
G01*
%TO.C,Q4*%
X136355000Y-75644600D02*
X136355000Y-79244600D01*
X132055000Y-76624600D02*
G75*
G02*
X136346741Y-75632725I2450000J-820000D01*
G01*
X136332684Y-79253045D02*
G75*
G02*
X132055000Y-78224600I-1827684J1808445D01*
G01*
%TO.C,J5*%
X138020200Y-70917600D02*
X138020200Y-78637600D01*
X138020200Y-78637600D02*
X142040200Y-78637600D01*
X138520200Y-71417600D02*
X139730200Y-71417600D01*
X138520200Y-78137600D02*
X138520200Y-71417600D01*
X139730200Y-71417600D02*
X139730200Y-70917600D01*
X139730200Y-78137600D02*
X138520200Y-78137600D01*
X139730200Y-78637600D02*
X139730200Y-78137600D01*
X139840200Y-78937600D02*
X142340200Y-78937600D01*
X140540200Y-70917600D02*
X140540200Y-71917600D01*
X140540200Y-71917600D02*
X142040200Y-71917600D01*
X140540200Y-77637600D02*
X142040200Y-77637600D01*
X140540200Y-78637600D02*
X140540200Y-77637600D01*
X142040200Y-70917600D02*
X138020200Y-70917600D01*
X142040200Y-78637600D02*
X142040200Y-70917600D01*
X142340200Y-78937600D02*
X142340200Y-76437600D01*
%TO.C,J4*%
X138046307Y-80468707D02*
X138046307Y-88188707D01*
X138046307Y-88188707D02*
X142066307Y-88188707D01*
X138546307Y-80968707D02*
X139756307Y-80968707D01*
X138546307Y-87688707D02*
X138546307Y-80968707D01*
X139756307Y-80968707D02*
X139756307Y-80468707D01*
X139756307Y-87688707D02*
X138546307Y-87688707D01*
X139756307Y-88188707D02*
X139756307Y-87688707D01*
X139866307Y-88488707D02*
X142366307Y-88488707D01*
X140566307Y-80468707D02*
X140566307Y-81468707D01*
X140566307Y-81468707D02*
X142066307Y-81468707D01*
X140566307Y-87188707D02*
X142066307Y-87188707D01*
X140566307Y-88188707D02*
X140566307Y-87188707D01*
X142066307Y-80468707D02*
X138046307Y-80468707D01*
X142066307Y-88188707D02*
X142066307Y-80468707D01*
X142366307Y-88488707D02*
X142366307Y-85988707D01*
%TO.C,C1*%
X122928589Y-77784200D02*
X123678589Y-77784200D01*
X123303589Y-77409200D02*
X123303589Y-78159200D01*
X127070800Y-76129200D02*
X127070800Y-83789200D01*
X127110800Y-76129200D02*
X127110800Y-83789200D01*
X127150800Y-76130200D02*
X127150800Y-83788200D01*
X127190800Y-76131200D02*
X127190800Y-83787200D01*
X127230800Y-76132200D02*
X127230800Y-83786200D01*
X127270800Y-76134200D02*
X127270800Y-83784200D01*
X127310800Y-76136200D02*
X127310800Y-78919200D01*
X127310800Y-80999200D02*
X127310800Y-83782200D01*
X127350800Y-76139200D02*
X127350800Y-78919200D01*
X127350800Y-80999200D02*
X127350800Y-83779200D01*
X127390800Y-76142200D02*
X127390800Y-78919200D01*
X127390800Y-80999200D02*
X127390800Y-83776200D01*
X127430800Y-76146200D02*
X127430800Y-78919200D01*
X127430800Y-80999200D02*
X127430800Y-83772200D01*
X127470800Y-76150200D02*
X127470800Y-78919200D01*
X127470800Y-80999200D02*
X127470800Y-83768200D01*
X127510800Y-76154200D02*
X127510800Y-78919200D01*
X127510800Y-80999200D02*
X127510800Y-83764200D01*
X127550800Y-76159200D02*
X127550800Y-78919200D01*
X127550800Y-80999200D02*
X127550800Y-83759200D01*
X127590800Y-76164200D02*
X127590800Y-78919200D01*
X127590800Y-80999200D02*
X127590800Y-83754200D01*
X127630800Y-76170200D02*
X127630800Y-78919200D01*
X127630800Y-80999200D02*
X127630800Y-83748200D01*
X127670800Y-76176200D02*
X127670800Y-78919200D01*
X127670800Y-80999200D02*
X127670800Y-83742200D01*
X127710800Y-76182200D02*
X127710800Y-78919200D01*
X127710800Y-80999200D02*
X127710800Y-83736200D01*
X127750800Y-76189200D02*
X127750800Y-78919200D01*
X127750800Y-80999200D02*
X127750800Y-83729200D01*
X127790800Y-76197200D02*
X127790800Y-78919200D01*
X127790800Y-80999200D02*
X127790800Y-83721200D01*
X127830800Y-76204200D02*
X127830800Y-78919200D01*
X127830800Y-80999200D02*
X127830800Y-83714200D01*
X127870800Y-76213200D02*
X127870800Y-78919200D01*
X127870800Y-80999200D02*
X127870800Y-83705200D01*
X127910800Y-76221200D02*
X127910800Y-78919200D01*
X127910800Y-80999200D02*
X127910800Y-83697200D01*
X127950800Y-76230200D02*
X127950800Y-78919200D01*
X127950800Y-80999200D02*
X127950800Y-83688200D01*
X127990800Y-76240200D02*
X127990800Y-78919200D01*
X127990800Y-80999200D02*
X127990800Y-83678200D01*
X128030800Y-76250200D02*
X128030800Y-78919200D01*
X128030800Y-80999200D02*
X128030800Y-83668200D01*
X128070800Y-76260200D02*
X128070800Y-78919200D01*
X128070800Y-80999200D02*
X128070800Y-83658200D01*
X128110800Y-76271200D02*
X128110800Y-78919200D01*
X128110800Y-80999200D02*
X128110800Y-83647200D01*
X128150800Y-76283200D02*
X128150800Y-78919200D01*
X128150800Y-80999200D02*
X128150800Y-83635200D01*
X128190800Y-76295200D02*
X128190800Y-78919200D01*
X128190800Y-80999200D02*
X128190800Y-83623200D01*
X128230800Y-76307200D02*
X128230800Y-78919200D01*
X128230800Y-80999200D02*
X128230800Y-83611200D01*
X128270800Y-76320200D02*
X128270800Y-78919200D01*
X128270800Y-80999200D02*
X128270800Y-83598200D01*
X128310800Y-76333200D02*
X128310800Y-78919200D01*
X128310800Y-80999200D02*
X128310800Y-83585200D01*
X128350800Y-76347200D02*
X128350800Y-78919200D01*
X128350800Y-80999200D02*
X128350800Y-83571200D01*
X128390800Y-76361200D02*
X128390800Y-78919200D01*
X128390800Y-80999200D02*
X128390800Y-83557200D01*
X128430800Y-76376200D02*
X128430800Y-78919200D01*
X128430800Y-80999200D02*
X128430800Y-83542200D01*
X128470800Y-76391200D02*
X128470800Y-78919200D01*
X128470800Y-80999200D02*
X128470800Y-83527200D01*
X128510800Y-76407200D02*
X128510800Y-78919200D01*
X128510800Y-80999200D02*
X128510800Y-83511200D01*
X128550800Y-76423200D02*
X128550800Y-78919200D01*
X128550800Y-80999200D02*
X128550800Y-83495200D01*
X128590800Y-76440200D02*
X128590800Y-78919200D01*
X128590800Y-80999200D02*
X128590800Y-83478200D01*
X128630800Y-76457200D02*
X128630800Y-78919200D01*
X128630800Y-80999200D02*
X128630800Y-83461200D01*
X128670800Y-76475200D02*
X128670800Y-78919200D01*
X128670800Y-80999200D02*
X128670800Y-83443200D01*
X128710800Y-76494200D02*
X128710800Y-78919200D01*
X128710800Y-80999200D02*
X128710800Y-83424200D01*
X128750800Y-76513200D02*
X128750800Y-78919200D01*
X128750800Y-80999200D02*
X128750800Y-83405200D01*
X128790800Y-76532200D02*
X128790800Y-78919200D01*
X128790800Y-80999200D02*
X128790800Y-83386200D01*
X128830800Y-76552200D02*
X128830800Y-78919200D01*
X128830800Y-80999200D02*
X128830800Y-83366200D01*
X128870800Y-76573200D02*
X128870800Y-78919200D01*
X128870800Y-80999200D02*
X128870800Y-83345200D01*
X128910800Y-76594200D02*
X128910800Y-78919200D01*
X128910800Y-80999200D02*
X128910800Y-83324200D01*
X128950800Y-76616200D02*
X128950800Y-78919200D01*
X128950800Y-80999200D02*
X128950800Y-83302200D01*
X128990800Y-76639200D02*
X128990800Y-78919200D01*
X128990800Y-80999200D02*
X128990800Y-83279200D01*
X129030800Y-76662200D02*
X129030800Y-78919200D01*
X129030800Y-80999200D02*
X129030800Y-83256200D01*
X129070800Y-76686200D02*
X129070800Y-78919200D01*
X129070800Y-80999200D02*
X129070800Y-83232200D01*
X129110800Y-76710200D02*
X129110800Y-78919200D01*
X129110800Y-80999200D02*
X129110800Y-83208200D01*
X129150800Y-76735200D02*
X129150800Y-78919200D01*
X129150800Y-80999200D02*
X129150800Y-83183200D01*
X129190800Y-76761200D02*
X129190800Y-78919200D01*
X129190800Y-80999200D02*
X129190800Y-83157200D01*
X129230800Y-76788200D02*
X129230800Y-78919200D01*
X129230800Y-80999200D02*
X129230800Y-83130200D01*
X129270800Y-76815200D02*
X129270800Y-78919200D01*
X129270800Y-80999200D02*
X129270800Y-83103200D01*
X129310800Y-76843200D02*
X129310800Y-78919200D01*
X129310800Y-80999200D02*
X129310800Y-83075200D01*
X129350800Y-76872200D02*
X129350800Y-78919200D01*
X129350800Y-80999200D02*
X129350800Y-83046200D01*
X129390800Y-76902200D02*
X129390800Y-83016200D01*
X129430800Y-76932200D02*
X129430800Y-82986200D01*
X129470800Y-76963200D02*
X129470800Y-82955200D01*
X129510800Y-76995200D02*
X129510800Y-82923200D01*
X129550800Y-77028200D02*
X129550800Y-82890200D01*
X129590800Y-77062200D02*
X129590800Y-82856200D01*
X129630800Y-77097200D02*
X129630800Y-82821200D01*
X129670800Y-77132200D02*
X129670800Y-82786200D01*
X129710800Y-77169200D02*
X129710800Y-82749200D01*
X129750800Y-77207200D02*
X129750800Y-82711200D01*
X129790800Y-77246200D02*
X129790800Y-82672200D01*
X129830800Y-77286200D02*
X129830800Y-82632200D01*
X129870800Y-77328200D02*
X129870800Y-82590200D01*
X129910800Y-77370200D02*
X129910800Y-82548200D01*
X129950800Y-77414200D02*
X129950800Y-82504200D01*
X129990800Y-77459200D02*
X129990800Y-82459200D01*
X130030800Y-77506200D02*
X130030800Y-82412200D01*
X130070800Y-77554200D02*
X130070800Y-82364200D01*
X130110800Y-77604200D02*
X130110800Y-82314200D01*
X130150800Y-77656200D02*
X130150800Y-82262200D01*
X130190800Y-77709200D02*
X130190800Y-82209200D01*
X130230800Y-77765200D02*
X130230800Y-82153200D01*
X130270800Y-77823200D02*
X130270800Y-82095200D01*
X130310800Y-77883200D02*
X130310800Y-82035200D01*
X130350800Y-77945200D02*
X130350800Y-81973200D01*
X130390800Y-78010200D02*
X130390800Y-81908200D01*
X130430800Y-78079200D02*
X130430800Y-81839200D01*
X130470800Y-78151200D02*
X130470800Y-81767200D01*
X130510800Y-78226200D02*
X130510800Y-81692200D01*
X130550800Y-78306200D02*
X130550800Y-81612200D01*
X130590800Y-78391200D02*
X130590800Y-81527200D01*
X130630800Y-78481200D02*
X130630800Y-81437200D01*
X130670800Y-78579200D02*
X130670800Y-81339200D01*
X130710800Y-78685200D02*
X130710800Y-81233200D01*
X130750800Y-78801200D02*
X130750800Y-81117200D01*
X130790800Y-78932200D02*
X130790800Y-80986200D01*
X130830800Y-79083200D02*
X130830800Y-80835200D01*
X130870800Y-79266200D02*
X130870800Y-80652200D01*
X130910800Y-79518200D02*
X130910800Y-80400200D01*
X130940800Y-79959200D02*
G75*
G02*
X123200800Y-79959200I-3870000J0D01*
G01*
X123200800Y-79959200D02*
G75*
G02*
X130940800Y-79959200I3870000J0D01*
G01*
%TO.C,C0*%
X122928589Y-68980400D02*
X123678589Y-68980400D01*
X123303589Y-68605400D02*
X123303589Y-69355400D01*
X127070800Y-67325400D02*
X127070800Y-74985400D01*
X127110800Y-67325400D02*
X127110800Y-74985400D01*
X127150800Y-67326400D02*
X127150800Y-74984400D01*
X127190800Y-67327400D02*
X127190800Y-74983400D01*
X127230800Y-67328400D02*
X127230800Y-74982400D01*
X127270800Y-67330400D02*
X127270800Y-74980400D01*
X127310800Y-67332400D02*
X127310800Y-70115400D01*
X127310800Y-72195400D02*
X127310800Y-74978400D01*
X127350800Y-67335400D02*
X127350800Y-70115400D01*
X127350800Y-72195400D02*
X127350800Y-74975400D01*
X127390800Y-67338400D02*
X127390800Y-70115400D01*
X127390800Y-72195400D02*
X127390800Y-74972400D01*
X127430800Y-67342400D02*
X127430800Y-70115400D01*
X127430800Y-72195400D02*
X127430800Y-74968400D01*
X127470800Y-67346400D02*
X127470800Y-70115400D01*
X127470800Y-72195400D02*
X127470800Y-74964400D01*
X127510800Y-67350400D02*
X127510800Y-70115400D01*
X127510800Y-72195400D02*
X127510800Y-74960400D01*
X127550800Y-67355400D02*
X127550800Y-70115400D01*
X127550800Y-72195400D02*
X127550800Y-74955400D01*
X127590800Y-67360400D02*
X127590800Y-70115400D01*
X127590800Y-72195400D02*
X127590800Y-74950400D01*
X127630800Y-67366400D02*
X127630800Y-70115400D01*
X127630800Y-72195400D02*
X127630800Y-74944400D01*
X127670800Y-67372400D02*
X127670800Y-70115400D01*
X127670800Y-72195400D02*
X127670800Y-74938400D01*
X127710800Y-67378400D02*
X127710800Y-70115400D01*
X127710800Y-72195400D02*
X127710800Y-74932400D01*
X127750800Y-67385400D02*
X127750800Y-70115400D01*
X127750800Y-72195400D02*
X127750800Y-74925400D01*
X127790800Y-67393400D02*
X127790800Y-70115400D01*
X127790800Y-72195400D02*
X127790800Y-74917400D01*
X127830800Y-67400400D02*
X127830800Y-70115400D01*
X127830800Y-72195400D02*
X127830800Y-74910400D01*
X127870800Y-67409400D02*
X127870800Y-70115400D01*
X127870800Y-72195400D02*
X127870800Y-74901400D01*
X127910800Y-67417400D02*
X127910800Y-70115400D01*
X127910800Y-72195400D02*
X127910800Y-74893400D01*
X127950800Y-67426400D02*
X127950800Y-70115400D01*
X127950800Y-72195400D02*
X127950800Y-74884400D01*
X127990800Y-67436400D02*
X127990800Y-70115400D01*
X127990800Y-72195400D02*
X127990800Y-74874400D01*
X128030800Y-67446400D02*
X128030800Y-70115400D01*
X128030800Y-72195400D02*
X128030800Y-74864400D01*
X128070800Y-67456400D02*
X128070800Y-70115400D01*
X128070800Y-72195400D02*
X128070800Y-74854400D01*
X128110800Y-67467400D02*
X128110800Y-70115400D01*
X128110800Y-72195400D02*
X128110800Y-74843400D01*
X128150800Y-67479400D02*
X128150800Y-70115400D01*
X128150800Y-72195400D02*
X128150800Y-74831400D01*
X128190800Y-67491400D02*
X128190800Y-70115400D01*
X128190800Y-72195400D02*
X128190800Y-74819400D01*
X128230800Y-67503400D02*
X128230800Y-70115400D01*
X128230800Y-72195400D02*
X128230800Y-74807400D01*
X128270800Y-67516400D02*
X128270800Y-70115400D01*
X128270800Y-72195400D02*
X128270800Y-74794400D01*
X128310800Y-67529400D02*
X128310800Y-70115400D01*
X128310800Y-72195400D02*
X128310800Y-74781400D01*
X128350800Y-67543400D02*
X128350800Y-70115400D01*
X128350800Y-72195400D02*
X128350800Y-74767400D01*
X128390800Y-67557400D02*
X128390800Y-70115400D01*
X128390800Y-72195400D02*
X128390800Y-74753400D01*
X128430800Y-67572400D02*
X128430800Y-70115400D01*
X128430800Y-72195400D02*
X128430800Y-74738400D01*
X128470800Y-67587400D02*
X128470800Y-70115400D01*
X128470800Y-72195400D02*
X128470800Y-74723400D01*
X128510800Y-67603400D02*
X128510800Y-70115400D01*
X128510800Y-72195400D02*
X128510800Y-74707400D01*
X128550800Y-67619400D02*
X128550800Y-70115400D01*
X128550800Y-72195400D02*
X128550800Y-74691400D01*
X128590800Y-67636400D02*
X128590800Y-70115400D01*
X128590800Y-72195400D02*
X128590800Y-74674400D01*
X128630800Y-67653400D02*
X128630800Y-70115400D01*
X128630800Y-72195400D02*
X128630800Y-74657400D01*
X128670800Y-67671400D02*
X128670800Y-70115400D01*
X128670800Y-72195400D02*
X128670800Y-74639400D01*
X128710800Y-67690400D02*
X128710800Y-70115400D01*
X128710800Y-72195400D02*
X128710800Y-74620400D01*
X128750800Y-67709400D02*
X128750800Y-70115400D01*
X128750800Y-72195400D02*
X128750800Y-74601400D01*
X128790800Y-67728400D02*
X128790800Y-70115400D01*
X128790800Y-72195400D02*
X128790800Y-74582400D01*
X128830800Y-67748400D02*
X128830800Y-70115400D01*
X128830800Y-72195400D02*
X128830800Y-74562400D01*
X128870800Y-67769400D02*
X128870800Y-70115400D01*
X128870800Y-72195400D02*
X128870800Y-74541400D01*
X128910800Y-67790400D02*
X128910800Y-70115400D01*
X128910800Y-72195400D02*
X128910800Y-74520400D01*
X128950800Y-67812400D02*
X128950800Y-70115400D01*
X128950800Y-72195400D02*
X128950800Y-74498400D01*
X128990800Y-67835400D02*
X128990800Y-70115400D01*
X128990800Y-72195400D02*
X128990800Y-74475400D01*
X129030800Y-67858400D02*
X129030800Y-70115400D01*
X129030800Y-72195400D02*
X129030800Y-74452400D01*
X129070800Y-67882400D02*
X129070800Y-70115400D01*
X129070800Y-72195400D02*
X129070800Y-74428400D01*
X129110800Y-67906400D02*
X129110800Y-70115400D01*
X129110800Y-72195400D02*
X129110800Y-74404400D01*
X129150800Y-67931400D02*
X129150800Y-70115400D01*
X129150800Y-72195400D02*
X129150800Y-74379400D01*
X129190800Y-67957400D02*
X129190800Y-70115400D01*
X129190800Y-72195400D02*
X129190800Y-74353400D01*
X129230800Y-67984400D02*
X129230800Y-70115400D01*
X129230800Y-72195400D02*
X129230800Y-74326400D01*
X129270800Y-68011400D02*
X129270800Y-70115400D01*
X129270800Y-72195400D02*
X129270800Y-74299400D01*
X129310800Y-68039400D02*
X129310800Y-70115400D01*
X129310800Y-72195400D02*
X129310800Y-74271400D01*
X129350800Y-68068400D02*
X129350800Y-70115400D01*
X129350800Y-72195400D02*
X129350800Y-74242400D01*
X129390800Y-68098400D02*
X129390800Y-74212400D01*
X129430800Y-68128400D02*
X129430800Y-74182400D01*
X129470800Y-68159400D02*
X129470800Y-74151400D01*
X129510800Y-68191400D02*
X129510800Y-74119400D01*
X129550800Y-68224400D02*
X129550800Y-74086400D01*
X129590800Y-68258400D02*
X129590800Y-74052400D01*
X129630800Y-68293400D02*
X129630800Y-74017400D01*
X129670800Y-68328400D02*
X129670800Y-73982400D01*
X129710800Y-68365400D02*
X129710800Y-73945400D01*
X129750800Y-68403400D02*
X129750800Y-73907400D01*
X129790800Y-68442400D02*
X129790800Y-73868400D01*
X129830800Y-68482400D02*
X129830800Y-73828400D01*
X129870800Y-68524400D02*
X129870800Y-73786400D01*
X129910800Y-68566400D02*
X129910800Y-73744400D01*
X129950800Y-68610400D02*
X129950800Y-73700400D01*
X129990800Y-68655400D02*
X129990800Y-73655400D01*
X130030800Y-68702400D02*
X130030800Y-73608400D01*
X130070800Y-68750400D02*
X130070800Y-73560400D01*
X130110800Y-68800400D02*
X130110800Y-73510400D01*
X130150800Y-68852400D02*
X130150800Y-73458400D01*
X130190800Y-68905400D02*
X130190800Y-73405400D01*
X130230800Y-68961400D02*
X130230800Y-73349400D01*
X130270800Y-69019400D02*
X130270800Y-73291400D01*
X130310800Y-69079400D02*
X130310800Y-73231400D01*
X130350800Y-69141400D02*
X130350800Y-73169400D01*
X130390800Y-69206400D02*
X130390800Y-73104400D01*
X130430800Y-69275400D02*
X130430800Y-73035400D01*
X130470800Y-69347400D02*
X130470800Y-72963400D01*
X130510800Y-69422400D02*
X130510800Y-72888400D01*
X130550800Y-69502400D02*
X130550800Y-72808400D01*
X130590800Y-69587400D02*
X130590800Y-72723400D01*
X130630800Y-69677400D02*
X130630800Y-72633400D01*
X130670800Y-69775400D02*
X130670800Y-72535400D01*
X130710800Y-69881400D02*
X130710800Y-72429400D01*
X130750800Y-69997400D02*
X130750800Y-72313400D01*
X130790800Y-70128400D02*
X130790800Y-72182400D01*
X130830800Y-70279400D02*
X130830800Y-72031400D01*
X130870800Y-70462400D02*
X130870800Y-71848400D01*
X130910800Y-70714400D02*
X130910800Y-71596400D01*
X130940800Y-71155400D02*
G75*
G02*
X123200800Y-71155400I-3870000J0D01*
G01*
X123200800Y-71155400D02*
G75*
G02*
X130940800Y-71155400I3870000J0D01*
G01*
%TO.C,J6*%
X131603000Y-91986600D02*
X131603000Y-94486600D01*
X131603000Y-94486600D02*
X134103000Y-94486600D01*
X131903000Y-90166600D02*
X131903000Y-94186600D01*
X131903000Y-91876600D02*
X132403000Y-91876600D01*
X131903000Y-92686600D02*
X132903000Y-92686600D01*
X131903000Y-94186600D02*
X139623000Y-94186600D01*
X132403000Y-90666600D02*
X139123000Y-90666600D01*
X132403000Y-91876600D02*
X132403000Y-90666600D01*
X132903000Y-92686600D02*
X132903000Y-94186600D01*
X138623000Y-92686600D02*
X138623000Y-94186600D01*
X139123000Y-90666600D02*
X139123000Y-91876600D01*
X139123000Y-91876600D02*
X139623000Y-91876600D01*
X139623000Y-90166600D02*
X131903000Y-90166600D01*
X139623000Y-92686600D02*
X138623000Y-92686600D01*
X139623000Y-94186600D02*
X139623000Y-90166600D01*
%TD*%
%LPC*%
D13*
%TO.C,J2*%
X125780800Y-91008200D03*
D14*
X128320800Y-91008200D03*
%TD*%
D15*
%TO.C,R0*%
X120000000Y-86995000D03*
X120000000Y-71755000D03*
%TD*%
D16*
%TO.C,REF\u002A\u002A*%
X120000000Y-66730000D03*
%TD*%
D17*
%TO.C,Q2*%
X134893000Y-71247000D03*
D18*
X132823000Y-69977000D03*
X134893000Y-68707000D03*
%TD*%
D17*
%TO.C,Q3*%
X133483400Y-83567000D03*
D19*
X135553400Y-84837000D03*
X133483400Y-86107000D03*
%TD*%
D16*
%TO.C,REF\u002A\u002A*%
X120000000Y-92000000D03*
%TD*%
D17*
%TO.C,Q4*%
X134905000Y-76174600D03*
D19*
X132835000Y-77444600D03*
X134905000Y-78714600D03*
%TD*%
D20*
%TO.C,J5*%
X139730200Y-76027600D03*
D21*
X139730200Y-73527600D03*
%TD*%
D20*
%TO.C,J4*%
X139756307Y-85578707D03*
D21*
X139756307Y-83078707D03*
%TD*%
D22*
%TO.C,C1*%
X125820800Y-79959200D03*
D23*
X128320800Y-79959200D03*
%TD*%
D16*
%TO.C,REF\u002A\u002A*%
X140000000Y-66730000D03*
%TD*%
D22*
%TO.C,C0*%
X125820800Y-71155400D03*
D23*
X128320800Y-71155400D03*
%TD*%
D24*
%TO.C,J6*%
X134513000Y-91876600D03*
D25*
X137013000Y-91876600D03*
%TD*%
%LPD*%
M02*
