M48
; DRILL file {KiCad 9.0.6} date 2026-01-30T15:18:34-0500
; FORMAT={-:-/ absolute / metric / decimal}
; #@! TF.CreationDate,2026-01-30T15:18:34-05:00
; #@! TF.GenerationSoftware,Kicad,Pcbnew,9.0.6
; #@! TF.FileFunction,Plated,1,2,PTH
FMAT,2
METRIC
; #@! TA.AperFunction,Plated,PTH,ComponentDrill
T1C0.750
; #@! TA.AperFunction,Plated,PTH,ComponentDrill
T2C0.800
; #@! TA.AperFunction,Plated,PTH,ComponentDrill
T3C1.000
; #@! TA.AperFunction,Plated,PTH,ComponentDrill
T4C1.100
; #@! TA.AperFunction,Plated,PTH,ComponentDrill
T5C1.200
%
G90
G05
T1
X133.223Y-69.977
X133.235Y-77.445
X133.883Y-83.567
X133.883Y-86.107
X134.493Y-68.707
X134.493Y-71.247
X134.505Y-76.175
X134.505Y-78.715
X135.153Y-84.837
T2
X125.821Y-71.155
X125.821Y-79.959
X128.321Y-71.155
X128.321Y-79.959
T3
X134.513Y-91.877
X137.013Y-91.877
X139.73Y-73.528
X139.73Y-76.028
X139.756Y-83.079
X139.756Y-85.579
T4
X125.781Y-91.008
X128.321Y-91.008
T5
X120.0Y-71.755
X120.0Y-86.995
M30
