%TF.GenerationSoftware,KiCad,Pcbnew,9.0.6*%
%TF.CreationDate,2026-01-30T15:18:38-05:00*%
%TF.ProjectId,camera-control,63616d65-7261-42d6-936f-6e74726f6c2e,rev?*%
%TF.SameCoordinates,Original*%
%TF.FileFunction,Copper,L1,Top*%
%TF.FilePolarity,Positive*%
%FSLAX46Y46*%
G04 Gerber Fmt 4.6, Leading zero omitted, Abs format (unit mm)*
G04 Created by KiCad (PCBNEW 9.0.6) date 2026-01-30 15:18:38*
%MOMM*%
%LPD*%
G01*
G04 APERTURE LIST*
G04 Aperture macros list*
%AMRoundRect*
0 Rectangle with rounded corners*
0 $1 Rounding radius*
0 $2 $3 $4 $5 $6 $7 $8 $9 X,Y pos of 4 corners*
0 Add a 4 corners polygon primitive as box body*
4,1,4,$2,$3,$4,$5,$6,$7,$8,$9,$2,$3,0*
0 Add four circle primitives for the rounded corners*
1,1,$1+$1,$2,$3*
1,1,$1+$1,$4,$5*
1,1,$1+$1,$6,$7*
1,1,$1+$1,$8,$9*
0 Add four rect primitives between the rounded corners*
20,1,$1+$1,$2,$3,$4,$5,0*
20,1,$1+$1,$4,$5,$6,$7,0*
20,1,$1+$1,$6,$7,$8,$9,0*
20,1,$1+$1,$8,$9,$2,$3,0*%
G04 Aperture macros list end*
%TA.AperFunction,ComponentPad*%
%ADD10RoundRect,0.249999X-0.850001X-0.850001X0.850001X-0.850001X0.850001X0.850001X-0.850001X0.850001X0*%
%TD*%
%TA.AperFunction,ComponentPad*%
%ADD11C,2.200000*%
%TD*%
%TA.AperFunction,ComponentPad*%
%ADD12C,2.400000*%
%TD*%
%TA.AperFunction,ComponentPad*%
%ADD13R,1.800000X1.100000*%
%TD*%
%TA.AperFunction,ComponentPad*%
%ADD14RoundRect,0.275000X0.625000X-0.275000X0.625000X0.275000X-0.625000X0.275000X-0.625000X-0.275000X0*%
%TD*%
%TA.AperFunction,ComponentPad*%
%ADD15RoundRect,0.275000X-0.625000X0.275000X-0.625000X-0.275000X0.625000X-0.275000X0.625000X0.275000X0*%
%TD*%
%TA.AperFunction,ComponentPad*%
%ADD16RoundRect,0.250000X0.750000X-0.600000X0.750000X0.600000X-0.750000X0.600000X-0.750000X-0.600000X0*%
%TD*%
%TA.AperFunction,ComponentPad*%
%ADD17O,2.000000X1.700000*%
%TD*%
%TA.AperFunction,ComponentPad*%
%ADD18RoundRect,0.250000X-0.550000X-0.550000X0.550000X-0.550000X0.550000X0.550000X-0.550000X0.550000X0*%
%TD*%
%TA.AperFunction,ComponentPad*%
%ADD19C,1.600000*%
%TD*%
%TA.AperFunction,ComponentPad*%
%ADD20RoundRect,0.250000X-0.600000X-0.750000X0.600000X-0.750000X0.600000X0.750000X-0.600000X0.750000X0*%
%TD*%
%TA.AperFunction,ComponentPad*%
%ADD21O,1.700000X2.000000*%
%TD*%
%TA.AperFunction,Conductor*%
%ADD22C,1.000000*%
%TD*%
%TA.AperFunction,Conductor*%
%ADD23C,0.600000*%
%TD*%
%TA.AperFunction,Conductor*%
%ADD24C,0.200000*%
%TD*%
G04 APERTURE END LIST*
D10*
%TO.P,J2,1*%
%TO.N,/FLUCTUS IN*%
X125780800Y-91008200D03*
D11*
%TO.P,J2,2*%
%TO.N,GND*%
X128320800Y-91008200D03*
%TD*%
D12*
%TO.P,R0,1*%
%TO.N,/STAGE 2*%
X120000000Y-86995000D03*
%TO.P,R0,2*%
%TO.N,7V4*%
X120000000Y-71755000D03*
%TD*%
D13*
%TO.P,Q2,1*%
%TO.N,GND*%
X134893000Y-71247000D03*
D14*
%TO.P,Q2,2*%
%TO.N,/STAGE 2*%
X132823000Y-69977000D03*
%TO.P,Q2,3*%
%TO.N,Net-(J5-Pin_2)*%
X134893000Y-68707000D03*
%TD*%
D13*
%TO.P,Q3,1*%
%TO.N,GND*%
X133483400Y-83567000D03*
D15*
%TO.P,Q3,2*%
%TO.N,/STAGE 2*%
X135553400Y-84837000D03*
%TO.P,Q3,3*%
%TO.N,Net-(J6-Pin_2)*%
X133483400Y-86107000D03*
%TD*%
D13*
%TO.P,Q4,1*%
%TO.N,GND*%
X134905000Y-76174600D03*
D15*
%TO.P,Q4,2*%
%TO.N,/FLUCTUS IN*%
X132835000Y-77444600D03*
%TO.P,Q4,3*%
%TO.N,/STAGE 2*%
X134905000Y-78714600D03*
%TD*%
D16*
%TO.P,J5,1,Pin_1*%
%TO.N,7V4*%
X139730200Y-76027600D03*
D17*
%TO.P,J5,2,Pin_2*%
%TO.N,Net-(J5-Pin_2)*%
X139730200Y-73527600D03*
%TD*%
D16*
%TO.P,J4,1,Pin_1*%
%TO.N,7V4*%
X139756307Y-85578707D03*
D17*
%TO.P,J4,2,Pin_2*%
%TO.N,GND*%
X139756307Y-83078707D03*
%TD*%
D18*
%TO.P,C1,1*%
%TO.N,7V4*%
X125820800Y-79959200D03*
D19*
%TO.P,C1,2*%
%TO.N,Net-(J6-Pin_2)*%
X128320800Y-79959200D03*
%TD*%
D18*
%TO.P,C0,1*%
%TO.N,7V4*%
X125820800Y-71155400D03*
D19*
%TO.P,C0,2*%
%TO.N,Net-(J5-Pin_2)*%
X128320800Y-71155400D03*
%TD*%
D20*
%TO.P,J6,1,Pin_1*%
%TO.N,7V4*%
X134513000Y-91876600D03*
D21*
%TO.P,J6,2,Pin_2*%
%TO.N,Net-(J6-Pin_2)*%
X137013000Y-91876600D03*
%TD*%
D22*
%TO.N,Net-(J5-Pin_2)*%
X139730200Y-73527600D02*
X139730200Y-72318600D01*
X136118600Y-68707000D02*
X134909600Y-68707000D01*
X134454200Y-68707000D02*
X130769200Y-68707000D01*
X135090800Y-68707000D02*
X135166200Y-68707000D01*
X130769200Y-68707000D02*
X128473200Y-71003000D01*
D23*
X134909600Y-68707000D02*
X134493000Y-68707000D01*
D22*
X139730200Y-72318600D02*
X136118600Y-68707000D01*
%TO.N,Net-(J6-Pin_2)*%
X128320800Y-83058000D02*
X131368800Y-86106000D01*
X131368800Y-86106000D02*
X133693600Y-86106000D01*
X134022800Y-86246400D02*
X137013000Y-89236600D01*
X128320800Y-79959200D02*
X128320800Y-83058000D01*
X137013000Y-89236600D02*
X137013000Y-91876600D01*
D24*
X128320800Y-80645200D02*
X128320800Y-79959200D01*
X137013000Y-91206000D02*
X137058400Y-91160600D01*
%TO.N,/STAGE 2*%
X123571000Y-77470000D02*
X120000000Y-81041000D01*
X133223000Y-69977000D02*
X133223000Y-73431400D01*
X129184400Y-77470000D02*
X123571000Y-77470000D01*
X133223000Y-73431400D02*
X129184400Y-77470000D01*
X134505000Y-78714600D02*
X130429000Y-78714600D01*
X135153400Y-84837000D02*
X135153400Y-79363000D01*
X130429000Y-78714600D02*
X129184400Y-77470000D01*
X120000000Y-81041000D02*
X120000000Y-86995000D01*
X135153400Y-79363000D02*
X134505000Y-78714600D01*
%TD*%
%TA.AperFunction,Conductor*%
%TO.N,7V4*%
G36*
X140003032Y-63230648D02*
G01*
X140336929Y-63247052D01*
X140349037Y-63248245D01*
X140452146Y-63263539D01*
X140676699Y-63296849D01*
X140688617Y-63299219D01*
X141009951Y-63379709D01*
X141021588Y-63383240D01*
X141092806Y-63408722D01*
X141333467Y-63494832D01*
X141344688Y-63499479D01*
X141644163Y-63641120D01*
X141654871Y-63646844D01*
X141938988Y-63817137D01*
X141949106Y-63823897D01*
X142215170Y-64021224D01*
X142224576Y-64028944D01*
X142470013Y-64251395D01*
X142478604Y-64259986D01*
X142665755Y-64466475D01*
X142701055Y-64505423D01*
X142708775Y-64514829D01*
X142906102Y-64780893D01*
X142912862Y-64791011D01*
X143041776Y-65006092D01*
X143083148Y-65075116D01*
X143088883Y-65085844D01*
X143174301Y-65266446D01*
X143230514Y-65385297D01*
X143235170Y-65396540D01*
X143346759Y-65708411D01*
X143350292Y-65720055D01*
X143430777Y-66041369D01*
X143433151Y-66053305D01*
X143481754Y-66380962D01*
X143482947Y-66393071D01*
X143499351Y-66726966D01*
X143499500Y-66733051D01*
X143499500Y-91996948D01*
X143499351Y-92003033D01*
X143482947Y-92336928D01*
X143481754Y-92349037D01*
X143433151Y-92676694D01*
X143430777Y-92688630D01*
X143350292Y-93009944D01*
X143346759Y-93021588D01*
X143235170Y-93333459D01*
X143230514Y-93344702D01*
X143088885Y-93644151D01*
X143083148Y-93654883D01*
X142912862Y-93938988D01*
X142906102Y-93949106D01*
X142708775Y-94215170D01*
X142701055Y-94224576D01*
X142478611Y-94470006D01*
X142470006Y-94478611D01*
X142224576Y-94701055D01*
X142215170Y-94708775D01*
X141949106Y-94906102D01*
X141938988Y-94912862D01*
X141654883Y-95083148D01*
X141644151Y-95088885D01*
X141344702Y-95230514D01*
X141333459Y-95235170D01*
X141021588Y-95346759D01*
X141009944Y-95350292D01*
X140688630Y-95430777D01*
X140676694Y-95433151D01*
X140349037Y-95481754D01*
X140336928Y-95482947D01*
X140021989Y-95498419D01*
X140003031Y-95499351D01*
X139996949Y-95499500D01*
X120003051Y-95499500D01*
X119996968Y-95499351D01*
X119976900Y-95498365D01*
X119663071Y-95482947D01*
X119650962Y-95481754D01*
X119323305Y-95433151D01*
X119311369Y-95430777D01*
X118990055Y-95350292D01*
X118978411Y-95346759D01*
X118666540Y-95235170D01*
X118655301Y-95230515D01*
X118355844Y-95088883D01*
X118345121Y-95083150D01*
X118061011Y-94912862D01*
X118050893Y-94906102D01*
X117784829Y-94708775D01*
X117775423Y-94701055D01*
X117736475Y-94665755D01*
X117529986Y-94478604D01*
X117521395Y-94470013D01*
X117298944Y-94224576D01*
X117291224Y-94215170D01*
X117093897Y-93949106D01*
X117087137Y-93938988D01*
X116916844Y-93654871D01*
X116911120Y-93644163D01*
X116769479Y-93344688D01*
X116764829Y-93333459D01*
X116756777Y-93310956D01*
X116692902Y-93132438D01*
X116653240Y-93021588D01*
X116649707Y-93009944D01*
X116569219Y-92688617D01*
X116566848Y-92676694D01*
X116555204Y-92598199D01*
X116522403Y-92377067D01*
X116518245Y-92349037D01*
X116517052Y-92336927D01*
X116500649Y-92003032D01*
X116500500Y-91996948D01*
X116500500Y-91881902D01*
X118499500Y-91881902D01*
X118499500Y-92118097D01*
X118536446Y-92351368D01*
X118609433Y-92575996D01*
X118690153Y-92734416D01*
X118716657Y-92786433D01*
X118855483Y-92977510D01*
X119022490Y-93144517D01*
X119213567Y-93283343D01*
X119267761Y-93310956D01*
X119424003Y-93390566D01*
X119424005Y-93390566D01*
X119424008Y-93390568D01*
X119544412Y-93429689D01*
X119648631Y-93463553D01*
X119881903Y-93500500D01*
X119881908Y-93500500D01*
X120118097Y-93500500D01*
X120351368Y-93463553D01*
X120575992Y-93390568D01*
X120786433Y-93283343D01*
X120977510Y-93144517D01*
X121144517Y-92977510D01*
X121283343Y-92786433D01*
X121390568Y-92575992D01*
X121463553Y-92351368D01*
X121473497Y-92288586D01*
X121500500Y-92118097D01*
X121500500Y-91881902D01*
X121463553Y-91648631D01*
X121396537Y-91442379D01*
X121390568Y-91424008D01*
X121390566Y-91424005D01*
X121390566Y-91424003D01*
X121283342Y-91213566D01*
X121144517Y-91022490D01*
X120977510Y-90855483D01*
X120786433Y-90716657D01*
X120575996Y-90609433D01*
X120351368Y-90536446D01*
X120118097Y-90499500D01*
X120118092Y-90499500D01*
X119881908Y-90499500D01*
X119881903Y-90499500D01*
X119648631Y-90536446D01*
X119424003Y-90609433D01*
X119213566Y-90716657D01*
X119104550Y-90795862D01*
X119022490Y-90855483D01*
X119022488Y-90855485D01*
X119022487Y-90855485D01*
X118855485Y-91022487D01*
X118855485Y-91022488D01*
X118855483Y-91022490D01*
X118816160Y-91076613D01*
X118716657Y-91213566D01*
X118609433Y-91424003D01*
X118536446Y-91648631D01*
X118499500Y-91881902D01*
X116500500Y-91881902D01*
X116500500Y-90108182D01*
X124180300Y-90108182D01*
X124180300Y-91908217D01*
X124190800Y-92010996D01*
X124226290Y-92118097D01*
X124245986Y-92177535D01*
X124338088Y-92326856D01*
X124462144Y-92450912D01*
X124611465Y-92543014D01*
X124778002Y-92598199D01*
X124880790Y-92608700D01*
X124880795Y-92608700D01*
X126680805Y-92608700D01*
X126680810Y-92608700D01*
X126783598Y-92598199D01*
X126950135Y-92543014D01*
X127099456Y-92450912D01*
X127223512Y-92326856D01*
X127223515Y-92326850D01*
X127228295Y-92322071D01*
X127289618Y-92288586D01*
X127359310Y-92293570D01*
X127388858Y-92309431D01*
X127481955Y-92377070D01*
X127588006Y-92431105D01*
X127706416Y-92491439D01*
X127706418Y-92491439D01*
X127706421Y-92491441D01*
X127946015Y-92569290D01*
X128194838Y-92608700D01*
X128194839Y-92608700D01*
X128446761Y-92608700D01*
X128446762Y-92608700D01*
X128695585Y-92569290D01*
X128935179Y-92491441D01*
X129159645Y-92377070D01*
X129363456Y-92228993D01*
X129541593Y-92050856D01*
X129689670Y-91847045D01*
X129804041Y-91622579D01*
X129881890Y-91382985D01*
X129921300Y-91134162D01*
X129921300Y-90882238D01*
X129881890Y-90633415D01*
X129804041Y-90393821D01*
X129804039Y-90393818D01*
X129804039Y-90393816D01*
X129762547Y-90312384D01*
X129689670Y-90169355D01*
X129645225Y-90108182D01*
X129541598Y-89965550D01*
X129541594Y-89965545D01*
X129363454Y-89787405D01*
X129363449Y-89787401D01*
X129159648Y-89639332D01*
X129159647Y-89639331D01*
X129159645Y-89639330D01*
X129089547Y-89603613D01*
X128935183Y-89524960D01*
X128695585Y-89447110D01*
X128446762Y-89407700D01*
X128194838Y-89407700D01*
X128128538Y-89418201D01*
X127946014Y-89447110D01*
X127706416Y-89524960D01*
X127481958Y-89639328D01*
X127481955Y-89639329D01*
X127481955Y-89639330D01*
X127388860Y-89706966D01*
X127323055Y-89730445D01*
X127255001Y-89714619D01*
X127228296Y-89694328D01*
X127099457Y-89565489D01*
X127099456Y-89565488D01*
X126950135Y-89473386D01*
X126783598Y-89418201D01*
X126783596Y-89418200D01*
X126680817Y-89407700D01*
X126680810Y-89407700D01*
X124880790Y-89407700D01*
X124880782Y-89407700D01*
X124778003Y-89418200D01*
X124778002Y-89418201D01*
X124695469Y-89445549D01*
X124611467Y-89473385D01*
X124611462Y-89473387D01*
X124462142Y-89565489D01*
X124338089Y-89689542D01*
X124245987Y-89838862D01*
X124245986Y-89838865D01*
X124190801Y-90005402D01*
X124190801Y-90005403D01*
X124190800Y-90005403D01*
X124180300Y-90108182D01*
X116500500Y-90108182D01*
X116500500Y-86883549D01*
X118299500Y-86883549D01*
X118299500Y-87106450D01*
X118299501Y-87106466D01*
X118328594Y-87327452D01*
X118328595Y-87327457D01*
X118328596Y-87327463D01*
X118328597Y-87327465D01*
X118386290Y-87542780D01*
X118386293Y-87542790D01*
X118471593Y-87748722D01*
X118471595Y-87748726D01*
X118583052Y-87941774D01*
X118583057Y-87941780D01*
X118583058Y-87941782D01*
X118718751Y-88118622D01*
X118718757Y-88118629D01*
X118876370Y-88276242D01*
X118876376Y-88276247D01*
X119053226Y-88411948D01*
X119246274Y-88523405D01*
X119376140Y-88577197D01*
X119428337Y-88598818D01*
X119452219Y-88608710D01*
X119667537Y-88666404D01*
X119888543Y-88695500D01*
X119888550Y-88695500D01*
X120111450Y-88695500D01*
X120111457Y-88695500D01*
X120332463Y-88666404D01*
X120547781Y-88608710D01*
X120753726Y-88523405D01*
X120946774Y-88411948D01*
X121123624Y-88276247D01*
X121281247Y-88118624D01*
X121416948Y-87941774D01*
X121528405Y-87748726D01*
X121613710Y-87542781D01*
X121671404Y-87327463D01*
X121700500Y-87106457D01*
X121700500Y-86883543D01*
X121671404Y-86662537D01*
X121613710Y-86447219D01*
X121528405Y-86241274D01*
X121416948Y-86048226D01*
X121414190Y-86044632D01*
X121399936Y-86026055D01*
X121395982Y-86020903D01*
X121385752Y-86004431D01*
X121385595Y-86004524D01*
X121331707Y-85912233D01*
X121062167Y-85450604D01*
X120617417Y-84688901D01*
X120600500Y-84626377D01*
X120600500Y-81341097D01*
X120620185Y-81274058D01*
X120636819Y-81253416D01*
X121820079Y-80070157D01*
X123783417Y-78106819D01*
X123844740Y-78073334D01*
X123871098Y-78070500D01*
X128884303Y-78070500D01*
X128951342Y-78090185D01*
X128971984Y-78106819D01*
X129944139Y-79078974D01*
X129944149Y-79078985D01*
X129948479Y-79083315D01*
X129948480Y-79083316D01*
X130060284Y-79195120D01*
X130087797Y-79211004D01*
X130147095Y-79245239D01*
X130147097Y-79245241D01*
X130197213Y-79274176D01*
X130197215Y-79274177D01*
X130349942Y-79315100D01*
X130349943Y-79315100D01*
X133273219Y-79315100D01*
X133336712Y-79332588D01*
X133906089Y-79672008D01*
X133921446Y-79680188D01*
X133941394Y-79692722D01*
X133952708Y-79696680D01*
X133960907Y-79701011D01*
X133962150Y-79702220D01*
X133967461Y-79704731D01*
X134493363Y-80024772D01*
X134540398Y-80076438D01*
X134552900Y-80130699D01*
X134552900Y-82392500D01*
X134533215Y-82459539D01*
X134480411Y-82505294D01*
X134428900Y-82516500D01*
X132535529Y-82516500D01*
X132535523Y-82516501D01*
X132475916Y-82522908D01*
X132341071Y-82573202D01*
X132341064Y-82573206D01*
X132225855Y-82659452D01*
X132225852Y-82659455D01*
X132139606Y-82774664D01*
X132139602Y-82774671D01*
X132089308Y-82909517D01*
X132082901Y-82969116D01*
X132082900Y-82969135D01*
X132082900Y-84164870D01*
X132082901Y-84164876D01*
X132089308Y-84224483D01*
X132139602Y-84359328D01*
X132139606Y-84359335D01*
X132225852Y-84474544D01*
X132225855Y-84474547D01*
X132341064Y-84560793D01*
X132341071Y-84560797D01*
X132475917Y-84611091D01*
X132475916Y-84611091D01*
X132482844Y-84611835D01*
X132535527Y-84617500D01*
X134028900Y-84617499D01*
X134037585Y-84620049D01*
X134046547Y-84618761D01*
X134070587Y-84629739D01*
X134095939Y-84637184D01*
X134101866Y-84644024D01*
X134110103Y-84647786D01*
X134124390Y-84670018D01*
X134141694Y-84689987D01*
X134143981Y-84700502D01*
X134147877Y-84706564D01*
X134152900Y-84741499D01*
X134152900Y-84932500D01*
X134133215Y-84999539D01*
X134080411Y-85045294D01*
X134028900Y-85056500D01*
X132814841Y-85056500D01*
X132684751Y-85071157D01*
X132684741Y-85071159D01*
X132606491Y-85098541D01*
X132565536Y-85105500D01*
X131834582Y-85105500D01*
X131767543Y-85085815D01*
X131746901Y-85069181D01*
X129357619Y-82679899D01*
X129324134Y-82618576D01*
X129321300Y-82592218D01*
X129321300Y-81631028D01*
X129323690Y-81606798D01*
X129598899Y-80225510D01*
X129606595Y-80172192D01*
X129606578Y-80171884D01*
X129606804Y-80167551D01*
X129606870Y-80166114D01*
X129606879Y-80166114D01*
X129607931Y-80145955D01*
X129621300Y-80061552D01*
X129621300Y-79856848D01*
X129603715Y-79745824D01*
X129589277Y-79654665D01*
X129526018Y-79459976D01*
X129452199Y-79315100D01*
X129433087Y-79277590D01*
X129373170Y-79195120D01*
X129312771Y-79111986D01*
X129168013Y-78967228D01*
X129002413Y-78846915D01*
X129002412Y-78846914D01*
X129002410Y-78846913D01*
X128943475Y-78816884D01*
X128820023Y-78753981D01*
X128625334Y-78690722D01*
X128450795Y-78663078D01*
X128423152Y-78658700D01*
X128218448Y-78658700D01*
X128194129Y-78662551D01*
X128016265Y-78690722D01*
X127821576Y-78753981D01*
X127639186Y-78846915D01*
X127473586Y-78967228D01*
X127328832Y-79111982D01*
X127287887Y-79168339D01*
X127232557Y-79211004D01*
X127162944Y-79216983D01*
X127101149Y-79184377D01*
X127069863Y-79134456D01*
X127055159Y-79090082D01*
X127055156Y-79090075D01*
X126963115Y-78940854D01*
X126839145Y-78816884D01*
X126689924Y-78724843D01*
X126689919Y-78724841D01*
X126523497Y-78669694D01*
X126523490Y-78669693D01*
X126420786Y-78659200D01*
X126070800Y-78659200D01*
X126070800Y-79643514D01*
X126066406Y-79639120D01*
X125975194Y-79586459D01*
X125873461Y-79559200D01*
X125768139Y-79559200D01*
X125666406Y-79586459D01*
X125575194Y-79639120D01*
X125570800Y-79643514D01*
X125570800Y-78659200D01*
X125220828Y-78659200D01*
X125220812Y-78659201D01*
X125118102Y-78669694D01*
X124951680Y-78724841D01*
X124951675Y-78724843D01*
X124802454Y-78816884D01*
X124678484Y-78940854D01*
X124586443Y-79090075D01*
X124586441Y-79090080D01*
X124531294Y-79256502D01*
X124531293Y-79256509D01*
X124520800Y-79359213D01*
X124520800Y-79709200D01*
X125505114Y-79709200D01*
X125500720Y-79713594D01*
X125448059Y-79804806D01*
X125420800Y-79906539D01*
X125420800Y-80011861D01*
X125448059Y-80113594D01*
X125500720Y-80204806D01*
X125505114Y-80209200D01*
X124520801Y-80209200D01*
X124520801Y-80559186D01*
X124531294Y-80661897D01*
X124586441Y-80828319D01*
X124586443Y-80828324D01*
X124678484Y-80977545D01*
X124802454Y-81101515D01*
X124951675Y-81193556D01*
X124951680Y-81193558D01*
X125118102Y-81248705D01*
X125118109Y-81248706D01*
X125220819Y-81259199D01*
X125570799Y-81259199D01*
X125570800Y-81259198D01*
X125570800Y-80274886D01*
X125575194Y-80279280D01*
X125666406Y-80331941D01*
X125768139Y-80359200D01*
X125873461Y-80359200D01*
X125975194Y-80331941D01*
X126066406Y-80279280D01*
X126070800Y-80274886D01*
X126070800Y-81259199D01*
X126420772Y-81259199D01*
X126420786Y-81259198D01*
X126523497Y-81248705D01*
X126689919Y-81193558D01*
X126689924Y-81193556D01*
X126839145Y-81101515D01*
X126963115Y-80977545D01*
X126970986Y-80964785D01*
X127022933Y-80918060D01*
X127091895Y-80906836D01*
X127155978Y-80934678D01*
X127194835Y-80992746D01*
X127198136Y-81005650D01*
X127317910Y-81606798D01*
X127320300Y-81631028D01*
X127320300Y-83156542D01*
X127338445Y-83247764D01*
X127339283Y-83251976D01*
X127358749Y-83349836D01*
X127377436Y-83394950D01*
X127380457Y-83402245D01*
X127380458Y-83402246D01*
X127434164Y-83531907D01*
X127434171Y-83531920D01*
X127543660Y-83695781D01*
X127543663Y-83695785D01*
X127687337Y-83839459D01*
X127687359Y-83839479D01*
X130588535Y-86740655D01*
X130588564Y-86740686D01*
X130731014Y-86883136D01*
X130731018Y-86883139D01*
X130894879Y-86992628D01*
X130894892Y-86992635D01*
X131023633Y-87045961D01*
X131076959Y-87068049D01*
X131076964Y-87068051D01*
X131145135Y-87081611D01*
X131176416Y-87087833D01*
X131270256Y-87106500D01*
X131270259Y-87106500D01*
X131270260Y-87106500D01*
X131467340Y-87106500D01*
X132559820Y-87106500D01*
X132600775Y-87113459D01*
X132684743Y-87142841D01*
X132684749Y-87142841D01*
X132684751Y-87142842D01*
X132726150Y-87147506D01*
X132814842Y-87157499D01*
X132814845Y-87157500D01*
X132814848Y-87157500D01*
X133467618Y-87157500D01*
X133534657Y-87177185D01*
X133555299Y-87193819D01*
X135976181Y-89614701D01*
X135990884Y-89641628D01*
X136007477Y-89667447D01*
X136008368Y-89673647D01*
X136009666Y-89676024D01*
X136012500Y-89702382D01*
X136012500Y-89951813D01*
X136009608Y-89978436D01*
X135880887Y-90563979D01*
X135847268Y-90625229D01*
X135785872Y-90658580D01*
X135716191Y-90653443D01*
X135672098Y-90625037D01*
X135581345Y-90534284D01*
X135432124Y-90442243D01*
X135432119Y-90442241D01*
X135265697Y-90387094D01*
X135265690Y-90387093D01*
X135162986Y-90376600D01*
X134763000Y-90376600D01*
X134763000Y-91443588D01*
X134705993Y-91410675D01*
X134578826Y-91376600D01*
X134447174Y-91376600D01*
X134320007Y-91410675D01*
X134263000Y-91443588D01*
X134263000Y-90376600D01*
X133863028Y-90376600D01*
X133863012Y-90376601D01*
X133760302Y-90387094D01*
X133593880Y-90442241D01*
X133593875Y-90442243D01*
X133444654Y-90534284D01*
X133320684Y-90658254D01*
X133228643Y-90807475D01*
X133228641Y-90807480D01*
X133173494Y-90973902D01*
X133173493Y-90973909D01*
X133163000Y-91076613D01*
X133163000Y-91626600D01*
X134079988Y-91626600D01*
X134047075Y-91683607D01*
X134013000Y-91810774D01*
X134013000Y-91942426D01*
X134047075Y-92069593D01*
X134079988Y-92126600D01*
X133163001Y-92126600D01*
X133163001Y-92676586D01*
X133173494Y-92779297D01*
X133228641Y-92945719D01*
X133228643Y-92945724D01*
X133320684Y-93094945D01*
X133444654Y-93218915D01*
X133593875Y-93310956D01*
X133593880Y-93310958D01*
X133760302Y-93366105D01*
X133760309Y-93366106D01*
X133863019Y-93376599D01*
X134262999Y-93376599D01*
X134263000Y-93376598D01*
X134263000Y-92309612D01*
X134320007Y-92342525D01*
X134447174Y-92376600D01*
X134578826Y-92376600D01*
X134705993Y-92342525D01*
X134763000Y-92309612D01*
X134763000Y-93376599D01*
X135162972Y-93376599D01*
X135162986Y-93376598D01*
X135265697Y-93366105D01*
X135432119Y-93310958D01*
X135432124Y-93310956D01*
X135581345Y-93218915D01*
X135705317Y-93094943D01*
X135800815Y-92940116D01*
X135852763Y-92893391D01*
X135921725Y-92882168D01*
X135985808Y-92910012D01*
X135994035Y-92917531D01*
X136133213Y-93056709D01*
X136305179Y-93181648D01*
X136305181Y-93181649D01*
X136305184Y-93181651D01*
X136494588Y-93278157D01*
X136696757Y-93343846D01*
X136906713Y-93377100D01*
X136906714Y-93377100D01*
X137119286Y-93377100D01*
X137119287Y-93377100D01*
X137329243Y-93343846D01*
X137531412Y-93278157D01*
X137720816Y-93181651D01*
X137771931Y-93144514D01*
X137892786Y-93056709D01*
X137892788Y-93056706D01*
X137892792Y-93056704D01*
X138043104Y-92906392D01*
X138043106Y-92906388D01*
X138043109Y-92906386D01*
X138168048Y-92734420D01*
X138168047Y-92734420D01*
X138168051Y-92734416D01*
X138264557Y-92545012D01*
X138330246Y-92342843D01*
X138363500Y-92132887D01*
X138363500Y-91620313D01*
X138341537Y-91481654D01*
X138340348Y-91471392D01*
X138338210Y-91442378D01*
X138058361Y-90169355D01*
X138016392Y-89978437D01*
X138013500Y-89951814D01*
X138013500Y-89138056D01*
X137975052Y-88944770D01*
X137975051Y-88944769D01*
X137975051Y-88944765D01*
X137975049Y-88944760D01*
X137899635Y-88762692D01*
X137899628Y-88762679D01*
X137790140Y-88598819D01*
X137790139Y-88598818D01*
X137650782Y-88459461D01*
X137650781Y-88459460D01*
X135290500Y-86099180D01*
X135257016Y-86037858D01*
X135262000Y-85968166D01*
X135303872Y-85912233D01*
X135369336Y-85887816D01*
X135378182Y-85887500D01*
X136221955Y-85887500D01*
X136221956Y-85887499D01*
X136352057Y-85872841D01*
X136517006Y-85815122D01*
X136664976Y-85722147D01*
X136788547Y-85598576D01*
X136881522Y-85450606D01*
X136939241Y-85285657D01*
X136953900Y-85155552D01*
X136953900Y-84518448D01*
X136943845Y-84429207D01*
X136939242Y-84388351D01*
X136939241Y-84388349D01*
X136939241Y-84388343D01*
X136881522Y-84223394D01*
X136788547Y-84075424D01*
X136664976Y-83951853D01*
X136517006Y-83858878D01*
X136517005Y-83858877D01*
X136517004Y-83858877D01*
X136352058Y-83801159D01*
X136352048Y-83801157D01*
X136221958Y-83786500D01*
X136221952Y-83786500D01*
X136005798Y-83786500D01*
X136004051Y-83785987D01*
X136002293Y-83786450D01*
X135970655Y-83776181D01*
X135938759Y-83766815D01*
X135937017Y-83765262D01*
X135935836Y-83764879D01*
X135909827Y-83741021D01*
X135781929Y-83584700D01*
X135754712Y-83520349D01*
X135753900Y-83506179D01*
X135753900Y-82972420D01*
X138255807Y-82972420D01*
X138255807Y-83184993D01*
X138281915Y-83349836D01*
X138289061Y-83394950D01*
X138333565Y-83531920D01*
X138354751Y-83597121D01*
X138451258Y-83786527D01*
X138576197Y-83958493D01*
X138715375Y-84097671D01*
X138748860Y-84158994D01*
X138743876Y-84228686D01*
X138702004Y-84284619D01*
X138692791Y-84290890D01*
X138537966Y-84386387D01*
X138537962Y-84386390D01*
X138413991Y-84510361D01*
X138321950Y-84659582D01*
X138321948Y-84659587D01*
X138266801Y-84826009D01*
X138266800Y-84826016D01*
X138256307Y-84928720D01*
X138256307Y-85328707D01*
X139323295Y-85328707D01*
X139290382Y-85385714D01*
X139256307Y-85512881D01*
X139256307Y-85644533D01*
X139290382Y-85771700D01*
X139323295Y-85828707D01*
X138256308Y-85828707D01*
X138256308Y-86228693D01*
X138266801Y-86331404D01*
X138321948Y-86497826D01*
X138321950Y-86497831D01*
X138413991Y-86647052D01*
X138537961Y-86771022D01*
X138687182Y-86863063D01*
X138687187Y-86863065D01*
X138853609Y-86918212D01*
X138853616Y-86918213D01*
X138956326Y-86928706D01*
X139506306Y-86928706D01*
X139506307Y-86928705D01*
X139506307Y-86011719D01*
X139563314Y-86044632D01*
X139690481Y-86078707D01*
X139822133Y-86078707D01*
X139949300Y-86044632D01*
X140006307Y-86011719D01*
X140006307Y-86928706D01*
X140556279Y-86928706D01*
X140556293Y-86928705D01*
X140659004Y-86918212D01*
X140825426Y-86863065D01*
X140825431Y-86863063D01*
X140974652Y-86771022D01*
X141098622Y-86647052D01*
X141190663Y-86497831D01*
X141190665Y-86497826D01*
X141245812Y-86331404D01*
X141245813Y-86331397D01*
X141256306Y-86228693D01*
X141256307Y-86228680D01*
X141256307Y-85828707D01*
X140189319Y-85828707D01*
X140222232Y-85771700D01*
X140256307Y-85644533D01*
X140256307Y-85512881D01*
X140222232Y-85385714D01*
X140189319Y-85328707D01*
X141256306Y-85328707D01*
X141256306Y-84928735D01*
X141256305Y-84928720D01*
X141245812Y-84826009D01*
X141190665Y-84659587D01*
X141190663Y-84659582D01*
X141098622Y-84510361D01*
X140974652Y-84386391D01*
X140819822Y-84290891D01*
X140773098Y-84238943D01*
X140761875Y-84169980D01*
X140789719Y-84105898D01*
X140797216Y-84097693D01*
X140936411Y-83958499D01*
X141061358Y-83786523D01*
X141157864Y-83597119D01*
X141223553Y-83394950D01*
X141256807Y-83184994D01*
X141256807Y-82972420D01*
X141223553Y-82762464D01*
X141157864Y-82560295D01*
X141061358Y-82370891D01*
X141061356Y-82370888D01*
X141061355Y-82370886D01*
X140936416Y-82198920D01*
X140786093Y-82048597D01*
X140614127Y-81923658D01*
X140424721Y-81827151D01*
X140424720Y-81827150D01*
X140424719Y-81827150D01*
X140222550Y-81761461D01*
X140222548Y-81761460D01*
X140222547Y-81761460D01*
X140061264Y-81735915D01*
X140012594Y-81728207D01*
X139500020Y-81728207D01*
X139451349Y-81735915D01*
X139290067Y-81761460D01*
X139087892Y-81827151D01*
X138898486Y-81923658D01*
X138726520Y-82048597D01*
X138576197Y-82198920D01*
X138451258Y-82370886D01*
X138354751Y-82560292D01*
X138289060Y-82762467D01*
X138255807Y-82972420D01*
X135753900Y-82972420D01*
X135753900Y-79922071D01*
X135756209Y-79911485D01*
X135755182Y-79904284D01*
X135765164Y-79870431D01*
X135771386Y-79856848D01*
X135822242Y-79745823D01*
X135868058Y-79693072D01*
X135869007Y-79692470D01*
X136016573Y-79599749D01*
X136016573Y-79599748D01*
X136016576Y-79599747D01*
X136140147Y-79476176D01*
X136233122Y-79328206D01*
X136290841Y-79163257D01*
X136305500Y-79033152D01*
X136305500Y-78396048D01*
X136290841Y-78265943D01*
X136233122Y-78100994D01*
X136140147Y-77953024D01*
X136016576Y-77829453D01*
X135868606Y-77736478D01*
X135868605Y-77736477D01*
X135868604Y-77736477D01*
X135703658Y-77678759D01*
X135703648Y-77678757D01*
X135573558Y-77664100D01*
X135573552Y-77664100D01*
X134359500Y-77664100D01*
X134350814Y-77661549D01*
X134341853Y-77662838D01*
X134317812Y-77651859D01*
X134292461Y-77644415D01*
X134286533Y-77637574D01*
X134278297Y-77633813D01*
X134264007Y-77611578D01*
X134246706Y-77591611D01*
X134244418Y-77581096D01*
X134240523Y-77575035D01*
X134235500Y-77540100D01*
X134235500Y-77349099D01*
X134255185Y-77282060D01*
X134307989Y-77236305D01*
X134359500Y-77225099D01*
X135852871Y-77225099D01*
X135852872Y-77225099D01*
X135912483Y-77218691D01*
X136047331Y-77168396D01*
X136162546Y-77082146D01*
X136248796Y-76966931D01*
X136299091Y-76832083D01*
X136305500Y-76772473D01*
X136305499Y-76093426D01*
X136305499Y-75576729D01*
X136305498Y-75576723D01*
X136305497Y-75576716D01*
X136299091Y-75517117D01*
X136248796Y-75382269D01*
X136248795Y-75382268D01*
X136248793Y-75382264D01*
X136162547Y-75267055D01*
X136162544Y-75267052D01*
X136047335Y-75180806D01*
X136047328Y-75180802D01*
X135912482Y-75130508D01*
X135912483Y-75130508D01*
X135852883Y-75124101D01*
X135852881Y-75124100D01*
X135852873Y-75124100D01*
X135852864Y-75124100D01*
X133957129Y-75124100D01*
X133957123Y-75124101D01*
X133897516Y-75130508D01*
X133762671Y-75180802D01*
X133762664Y-75180806D01*
X133647455Y-75267052D01*
X133647452Y-75267055D01*
X133561206Y-75382264D01*
X133561202Y-75382271D01*
X133510908Y-75517117D01*
X133506118Y-75561675D01*
X133504501Y-75576723D01*
X133504500Y-75576735D01*
X133504500Y-76270100D01*
X133484815Y-76337139D01*
X133432011Y-76382894D01*
X133380500Y-76394100D01*
X132166441Y-76394100D01*
X132036351Y-76408757D01*
X132036341Y-76408759D01*
X131871395Y-76466477D01*
X131723423Y-76559453D01*
X131599853Y-76683023D01*
X131506877Y-76830995D01*
X131449159Y-76995941D01*
X131449157Y-76995951D01*
X131434500Y-77126041D01*
X131434500Y-77763158D01*
X131449157Y-77893248D01*
X131449157Y-77893250D01*
X131449158Y-77893255D01*
X131449159Y-77893257D01*
X131468716Y-77949147D01*
X131472277Y-78018924D01*
X131437548Y-78079552D01*
X131375555Y-78111779D01*
X131351674Y-78114100D01*
X130729097Y-78114100D01*
X130662058Y-78094415D01*
X130641416Y-78077781D01*
X130121315Y-77557680D01*
X130087830Y-77496357D01*
X130092814Y-77426665D01*
X130121311Y-77382323D01*
X133591713Y-73911921D01*
X133591716Y-73911920D01*
X133703520Y-73800116D01*
X133753639Y-73713304D01*
X133782577Y-73663185D01*
X133823501Y-73510457D01*
X133823501Y-73352343D01*
X133823501Y-73344748D01*
X133823500Y-73344730D01*
X133823500Y-72421499D01*
X133843185Y-72354460D01*
X133895989Y-72308705D01*
X133947495Y-72297499D01*
X135840872Y-72297499D01*
X135900483Y-72291091D01*
X136035331Y-72240796D01*
X136150546Y-72154546D01*
X136236796Y-72039331D01*
X136287091Y-71904483D01*
X136293500Y-71844873D01*
X136293499Y-70649128D01*
X136288632Y-70603856D01*
X136301038Y-70535099D01*
X136348649Y-70483962D01*
X136416348Y-70466683D01*
X136482642Y-70488748D01*
X136499603Y-70502923D01*
X138420188Y-72423508D01*
X138453673Y-72484831D01*
X138452677Y-72541769D01*
X138342219Y-72975836D01*
X138332538Y-73001543D01*
X138328644Y-73009185D01*
X138328640Y-73009195D01*
X138262953Y-73211359D01*
X138229700Y-73421313D01*
X138229700Y-73633886D01*
X138262953Y-73843839D01*
X138328644Y-74046014D01*
X138425151Y-74235420D01*
X138550090Y-74407386D01*
X138689268Y-74546564D01*
X138722753Y-74607887D01*
X138717769Y-74677579D01*
X138675897Y-74733512D01*
X138666684Y-74739783D01*
X138511859Y-74835280D01*
X138511855Y-74835283D01*
X138387884Y-74959254D01*
X138295843Y-75108475D01*
X138295841Y-75108480D01*
X138240694Y-75274902D01*
X138240693Y-75274909D01*
X138230200Y-75377613D01*
X138230200Y-75777600D01*
X139297188Y-75777600D01*
X139264275Y-75834607D01*
X139230200Y-75961774D01*
X139230200Y-76093426D01*
X139264275Y-76220593D01*
X139297188Y-76277600D01*
X138230201Y-76277600D01*
X138230201Y-76677581D01*
X138240694Y-76780297D01*
X138295841Y-76946719D01*
X138295843Y-76946724D01*
X138387884Y-77095945D01*
X138511854Y-77219915D01*
X138661075Y-77311956D01*
X138661080Y-77311958D01*
X138827502Y-77367105D01*
X138827509Y-77367106D01*
X138930219Y-77377599D01*
X139480199Y-77377599D01*
X139480200Y-77377598D01*
X139480200Y-76460612D01*
X139537207Y-76493525D01*
X139664374Y-76527600D01*
X139796026Y-76527600D01*
X139923193Y-76493525D01*
X139980200Y-76460612D01*
X139980200Y-77377599D01*
X140530172Y-77377599D01*
X140530186Y-77377598D01*
X140632897Y-77367105D01*
X140799319Y-77311958D01*
X140799324Y-77311956D01*
X140948545Y-77219915D01*
X141072515Y-77095945D01*
X141164556Y-76946724D01*
X141164558Y-76946719D01*
X141219705Y-76780297D01*
X141219706Y-76780290D01*
X141230200Y-76677581D01*
X141230200Y-76277600D01*
X140163212Y-76277600D01*
X140196125Y-76220593D01*
X140230200Y-76093426D01*
X140230200Y-75961774D01*
X140196125Y-75834607D01*
X140163212Y-75777600D01*
X141230199Y-75777600D01*
X141230199Y-75377628D01*
X141230198Y-75377613D01*
X141219705Y-75274902D01*
X141164558Y-75108480D01*
X141164556Y-75108475D01*
X141072515Y-74959254D01*
X140948545Y-74835284D01*
X140793715Y-74739784D01*
X140746991Y-74687836D01*
X140735768Y-74618873D01*
X140763612Y-74554791D01*
X140771109Y-74546586D01*
X140910304Y-74407392D01*
X141035251Y-74235416D01*
X141131757Y-74046012D01*
X141197446Y-73843843D01*
X141230700Y-73633887D01*
X141230700Y-73421313D01*
X141197446Y-73211357D01*
X141131757Y-73009188D01*
X141035251Y-72819784D01*
X141035249Y-72819781D01*
X141035248Y-72819779D01*
X140910309Y-72647813D01*
X140869854Y-72607358D01*
X140849133Y-72579885D01*
X140746298Y-72394736D01*
X140730700Y-72334528D01*
X140730700Y-72220058D01*
X140730699Y-72220055D01*
X140717669Y-72154546D01*
X140692252Y-72026765D01*
X140641601Y-71904483D01*
X140616833Y-71844688D01*
X140616828Y-71844679D01*
X140507340Y-71680819D01*
X140507337Y-71680815D01*
X136902809Y-68076289D01*
X136902806Y-68076285D01*
X136902806Y-68076286D01*
X136895739Y-68069219D01*
X136895739Y-68069218D01*
X136756382Y-67929861D01*
X136756381Y-67929860D01*
X136756380Y-67929859D01*
X136592520Y-67820371D01*
X136592511Y-67820366D01*
X136519915Y-67790296D01*
X136463765Y-67767038D01*
X136410436Y-67744949D01*
X136410432Y-67744948D01*
X136410428Y-67744946D01*
X136313788Y-67725724D01*
X136217144Y-67706500D01*
X136217141Y-67706500D01*
X135813722Y-67706500D01*
X135772767Y-67699541D01*
X135691658Y-67671159D01*
X135691648Y-67671157D01*
X135561558Y-67656500D01*
X135561552Y-67656500D01*
X134224448Y-67656500D01*
X134224441Y-67656500D01*
X134094351Y-67671157D01*
X134094341Y-67671159D01*
X134013233Y-67699541D01*
X133972278Y-67706500D01*
X130670656Y-67706500D01*
X130477371Y-67744946D01*
X130477367Y-67744948D01*
X130477365Y-67744948D01*
X130477364Y-67744949D01*
X130401945Y-67776188D01*
X130401943Y-67776189D01*
X130295289Y-67820366D01*
X130295279Y-67820371D01*
X130214246Y-67874517D01*
X130131417Y-67929860D01*
X130131414Y-67929863D01*
X128795502Y-69265776D01*
X128776679Y-69281219D01*
X127605368Y-70063328D01*
X127605349Y-70063341D01*
X127562212Y-70095597D01*
X127562202Y-70095606D01*
X127561993Y-70095839D01*
X127558697Y-70098807D01*
X127557720Y-70099700D01*
X127557713Y-70099693D01*
X127542707Y-70113210D01*
X127473581Y-70163433D01*
X127328832Y-70308182D01*
X127287887Y-70364539D01*
X127232557Y-70407204D01*
X127162944Y-70413183D01*
X127101149Y-70380577D01*
X127069863Y-70330656D01*
X127055159Y-70286282D01*
X127055156Y-70286275D01*
X126963115Y-70137054D01*
X126839145Y-70013084D01*
X126689924Y-69921043D01*
X126689919Y-69921041D01*
X126523497Y-69865894D01*
X126523490Y-69865893D01*
X126420786Y-69855400D01*
X126070800Y-69855400D01*
X126070800Y-70839714D01*
X126066406Y-70835320D01*
X125975194Y-70782659D01*
X125873461Y-70755400D01*
X125768139Y-70755400D01*
X125666406Y-70782659D01*
X125575194Y-70835320D01*
X125570800Y-70839714D01*
X125570800Y-69855400D01*
X125220828Y-69855400D01*
X125220812Y-69855401D01*
X125118102Y-69865894D01*
X124951680Y-69921041D01*
X124951675Y-69921043D01*
X124802454Y-70013084D01*
X124678484Y-70137054D01*
X124586443Y-70286275D01*
X124586441Y-70286280D01*
X124531294Y-70452702D01*
X124531293Y-70452709D01*
X124520800Y-70555413D01*
X124520800Y-70905400D01*
X125505114Y-70905400D01*
X125500720Y-70909794D01*
X125448059Y-71001006D01*
X125420800Y-71102739D01*
X125420800Y-71208061D01*
X125448059Y-71309794D01*
X125500720Y-71401006D01*
X125505114Y-71405400D01*
X124520801Y-71405400D01*
X124520801Y-71755386D01*
X124531294Y-71858097D01*
X124586441Y-72024519D01*
X124586443Y-72024524D01*
X124678484Y-72173745D01*
X124802454Y-72297715D01*
X124951675Y-72389756D01*
X124951680Y-72389758D01*
X125118102Y-72444905D01*
X125118109Y-72444906D01*
X125220819Y-72455399D01*
X125570799Y-72455399D01*
X125570800Y-72455398D01*
X125570800Y-71471086D01*
X125575194Y-71475480D01*
X125666406Y-71528141D01*
X125768139Y-71555400D01*
X125873461Y-71555400D01*
X125975194Y-71528141D01*
X126066406Y-71475480D01*
X126070800Y-71471086D01*
X126070800Y-72455399D01*
X126420772Y-72455399D01*
X126420786Y-72455398D01*
X126523497Y-72444905D01*
X126689919Y-72389758D01*
X126689924Y-72389756D01*
X126839145Y-72297715D01*
X126963115Y-72173745D01*
X127055156Y-72024524D01*
X127055159Y-72024517D01*
X127069863Y-71980143D01*
X127109635Y-71922698D01*
X127174150Y-71895874D01*
X127242926Y-71908188D01*
X127287888Y-71946261D01*
X127328834Y-72002619D01*
X127473586Y-72147371D01*
X127628549Y-72259956D01*
X127639190Y-72267687D01*
X127730302Y-72314111D01*
X127821576Y-72360618D01*
X127821578Y-72360618D01*
X127821581Y-72360620D01*
X127911259Y-72389758D01*
X128016265Y-72423877D01*
X128117357Y-72439888D01*
X128218448Y-72455900D01*
X128218449Y-72455900D01*
X128423151Y-72455900D01*
X128423152Y-72455900D01*
X128625334Y-72423877D01*
X128820019Y-72360620D01*
X129002410Y-72267687D01*
X129095390Y-72200132D01*
X129168013Y-72147371D01*
X129168015Y-72147368D01*
X129168019Y-72147366D01*
X129312766Y-72002619D01*
X129386256Y-71901467D01*
X129394283Y-71891537D01*
X129412863Y-71870841D01*
X130194974Y-70699522D01*
X130210407Y-70680711D01*
X131147302Y-69743819D01*
X131174229Y-69729115D01*
X131200048Y-69712523D01*
X131206248Y-69711631D01*
X131208625Y-69710334D01*
X131234983Y-69707500D01*
X131298500Y-69707500D01*
X131365539Y-69727185D01*
X131411294Y-69779989D01*
X131422500Y-69831500D01*
X131422500Y-70295558D01*
X131437157Y-70425648D01*
X131437159Y-70425658D01*
X131464196Y-70502923D01*
X131494878Y-70590606D01*
X131587853Y-70738576D01*
X131711424Y-70862147D01*
X131859394Y-70955122D01*
X132024343Y-71012841D01*
X132024349Y-71012841D01*
X132024351Y-71012842D01*
X132065750Y-71017506D01*
X132154442Y-71027499D01*
X132154445Y-71027500D01*
X132154448Y-71027500D01*
X132370601Y-71027500D01*
X132372346Y-71028012D01*
X132374105Y-71027550D01*
X132405732Y-71037815D01*
X132437640Y-71047185D01*
X132439381Y-71048737D01*
X132440562Y-71049121D01*
X132466571Y-71072978D01*
X132594470Y-71229298D01*
X132621688Y-71293649D01*
X132622500Y-71307820D01*
X132622500Y-73131303D01*
X132602815Y-73198342D01*
X132586181Y-73218984D01*
X128971984Y-76833181D01*
X128910661Y-76866666D01*
X128884303Y-76869500D01*
X123657670Y-76869500D01*
X123657654Y-76869499D01*
X123650058Y-76869499D01*
X123491943Y-76869499D01*
X123415579Y-76889961D01*
X123339214Y-76910423D01*
X123339209Y-76910426D01*
X123202290Y-76989475D01*
X123202282Y-76989481D01*
X119519479Y-80672284D01*
X119498388Y-80708815D01*
X119489474Y-80724257D01*
X119440423Y-80809215D01*
X119399499Y-80961943D01*
X119399499Y-80961945D01*
X119399499Y-81130046D01*
X119399500Y-81130059D01*
X119399500Y-84626376D01*
X119382583Y-84688900D01*
X118616630Y-86000710D01*
X118613547Y-86006264D01*
X118603517Y-86021551D01*
X118583057Y-86048218D01*
X118583046Y-86048234D01*
X118471598Y-86241266D01*
X118471593Y-86241277D01*
X118386293Y-86447209D01*
X118386290Y-86447219D01*
X118328597Y-86662534D01*
X118328594Y-86662547D01*
X118299501Y-86883533D01*
X118299500Y-86883549D01*
X116500500Y-86883549D01*
X116500500Y-71643575D01*
X118300000Y-71643575D01*
X118300000Y-71866424D01*
X118329085Y-72087354D01*
X118329088Y-72087367D01*
X118386763Y-72302618D01*
X118472045Y-72508502D01*
X118472054Y-72508520D01*
X118583464Y-72701491D01*
X118583473Y-72701504D01*
X118634040Y-72767403D01*
X118634043Y-72767403D01*
X119435387Y-71966058D01*
X119440889Y-71986591D01*
X119519881Y-72123408D01*
X119631592Y-72235119D01*
X119768409Y-72314111D01*
X119788940Y-72319612D01*
X118987595Y-73120955D01*
X118987595Y-73120956D01*
X119053507Y-73171533D01*
X119246485Y-73282949D01*
X119246497Y-73282954D01*
X119452381Y-73368236D01*
X119667632Y-73425911D01*
X119667645Y-73425914D01*
X119888575Y-73455000D01*
X120111425Y-73455000D01*
X120332354Y-73425914D01*
X120332367Y-73425911D01*
X120547618Y-73368236D01*
X120753502Y-73282954D01*
X120753514Y-73282949D01*
X120946498Y-73171530D01*
X121012403Y-73120957D01*
X121012404Y-73120956D01*
X120211059Y-72319612D01*
X120231591Y-72314111D01*
X120368408Y-72235119D01*
X120480119Y-72123408D01*
X120559111Y-71986591D01*
X120564612Y-71966059D01*
X121365956Y-72767404D01*
X121365957Y-72767403D01*
X121416530Y-72701498D01*
X121527949Y-72508514D01*
X121527954Y-72508502D01*
X121613236Y-72302618D01*
X121670911Y-72087367D01*
X121670914Y-72087354D01*
X121700000Y-71866424D01*
X121700000Y-71643575D01*
X121670914Y-71422645D01*
X121670912Y-71422636D01*
X121661131Y-71386132D01*
X121661131Y-71386131D01*
X121613236Y-71207381D01*
X121527954Y-71001497D01*
X121527949Y-71001485D01*
X121416533Y-70808507D01*
X121365956Y-70742595D01*
X121365955Y-70742595D01*
X120564612Y-71543939D01*
X120559111Y-71523409D01*
X120480119Y-71386592D01*
X120368408Y-71274881D01*
X120231591Y-71195889D01*
X120211058Y-71190387D01*
X120936864Y-70464583D01*
X121012403Y-70389043D01*
X121012403Y-70389040D01*
X120946504Y-70338473D01*
X120946491Y-70338464D01*
X120753520Y-70227054D01*
X120753502Y-70227045D01*
X120547618Y-70141763D01*
X120332367Y-70084088D01*
X120332354Y-70084085D01*
X120111425Y-70055000D01*
X119888575Y-70055000D01*
X119667645Y-70084085D01*
X119667632Y-70084088D01*
X119452381Y-70141763D01*
X119246497Y-70227045D01*
X119246479Y-70227054D01*
X119053511Y-70338462D01*
X118987595Y-70389042D01*
X119788941Y-71190387D01*
X119768409Y-71195889D01*
X119631592Y-71274881D01*
X119519881Y-71386592D01*
X119440889Y-71523409D01*
X119435387Y-71543940D01*
X118634042Y-70742595D01*
X118583462Y-70808511D01*
X118472054Y-71001479D01*
X118472045Y-71001497D01*
X118386763Y-71207381D01*
X118329088Y-71422632D01*
X118329085Y-71422645D01*
X118300000Y-71643575D01*
X116500500Y-71643575D01*
X116500500Y-66733051D01*
X116500649Y-66726966D01*
X116506302Y-66611902D01*
X118499500Y-66611902D01*
X118499500Y-66848097D01*
X118536446Y-67081368D01*
X118609433Y-67305996D01*
X118716657Y-67516433D01*
X118855483Y-67707510D01*
X119022490Y-67874517D01*
X119213567Y-68013343D01*
X119312991Y-68064002D01*
X119424003Y-68120566D01*
X119424005Y-68120566D01*
X119424008Y-68120568D01*
X119544412Y-68159689D01*
X119648631Y-68193553D01*
X119881903Y-68230500D01*
X119881908Y-68230500D01*
X120118097Y-68230500D01*
X120351368Y-68193553D01*
X120575992Y-68120568D01*
X120786433Y-68013343D01*
X120977510Y-67874517D01*
X121144517Y-67707510D01*
X121283343Y-67516433D01*
X121390568Y-67305992D01*
X121463553Y-67081368D01*
X121500500Y-66848097D01*
X121500500Y-66611902D01*
X138499500Y-66611902D01*
X138499500Y-66848097D01*
X138536446Y-67081368D01*
X138609433Y-67305996D01*
X138716657Y-67516433D01*
X138855483Y-67707510D01*
X139022490Y-67874517D01*
X139213567Y-68013343D01*
X139312991Y-68064002D01*
X139424003Y-68120566D01*
X139424005Y-68120566D01*
X139424008Y-68120568D01*
X139544412Y-68159689D01*
X139648631Y-68193553D01*
X139881903Y-68230500D01*
X139881908Y-68230500D01*
X140118097Y-68230500D01*
X140351368Y-68193553D01*
X140575992Y-68120568D01*
X140786433Y-68013343D01*
X140977510Y-67874517D01*
X141144517Y-67707510D01*
X141283343Y-67516433D01*
X141390568Y-67305992D01*
X141463553Y-67081368D01*
X141500500Y-66848097D01*
X141500500Y-66611902D01*
X141463553Y-66378631D01*
X141390566Y-66154003D01*
X141283342Y-65943566D01*
X141144517Y-65752490D01*
X140977510Y-65585483D01*
X140786433Y-65446657D01*
X140575996Y-65339433D01*
X140351368Y-65266446D01*
X140118097Y-65229500D01*
X140118092Y-65229500D01*
X139881908Y-65229500D01*
X139881903Y-65229500D01*
X139648631Y-65266446D01*
X139424003Y-65339433D01*
X139213566Y-65446657D01*
X139104550Y-65525862D01*
X139022490Y-65585483D01*
X139022488Y-65585485D01*
X139022487Y-65585485D01*
X138855485Y-65752487D01*
X138855485Y-65752488D01*
X138855483Y-65752490D01*
X138795862Y-65834550D01*
X138716657Y-65943566D01*
X138609433Y-66154003D01*
X138536446Y-66378631D01*
X138499500Y-66611902D01*
X121500500Y-66611902D01*
X121463553Y-66378631D01*
X121390566Y-66154003D01*
X121283342Y-65943566D01*
X121144517Y-65752490D01*
X120977510Y-65585483D01*
X120786433Y-65446657D01*
X120575996Y-65339433D01*
X120351368Y-65266446D01*
X120118097Y-65229500D01*
X120118092Y-65229500D01*
X119881908Y-65229500D01*
X119881903Y-65229500D01*
X119648631Y-65266446D01*
X119424003Y-65339433D01*
X119213566Y-65446657D01*
X119104550Y-65525862D01*
X119022490Y-65585483D01*
X119022488Y-65585485D01*
X119022487Y-65585485D01*
X118855485Y-65752487D01*
X118855485Y-65752488D01*
X118855483Y-65752490D01*
X118795862Y-65834550D01*
X118716657Y-65943566D01*
X118609433Y-66154003D01*
X118536446Y-66378631D01*
X118499500Y-66611902D01*
X116506302Y-66611902D01*
X116506840Y-66600951D01*
X116506840Y-66600950D01*
X116517052Y-66393072D01*
X116518245Y-66380962D01*
X116518591Y-66378631D01*
X116566849Y-66053296D01*
X116569218Y-66041385D01*
X116649710Y-65720043D01*
X116653240Y-65708411D01*
X116697224Y-65585485D01*
X116764835Y-65396525D01*
X116769476Y-65385318D01*
X116911124Y-65085828D01*
X116916840Y-65075136D01*
X117087145Y-64790998D01*
X117093888Y-64780905D01*
X117291232Y-64514818D01*
X117298935Y-64505433D01*
X117521405Y-64259975D01*
X117529975Y-64251405D01*
X117775433Y-64028935D01*
X117784818Y-64021232D01*
X118050905Y-63823888D01*
X118060998Y-63817145D01*
X118345136Y-63646840D01*
X118355828Y-63641124D01*
X118655318Y-63499476D01*
X118666525Y-63494835D01*
X118978412Y-63383239D01*
X118990043Y-63379710D01*
X119311385Y-63299218D01*
X119323296Y-63296849D01*
X119650962Y-63248244D01*
X119663068Y-63247052D01*
X119996967Y-63230648D01*
X120003051Y-63230500D01*
X120065892Y-63230500D01*
X139934108Y-63230500D01*
X139996949Y-63230500D01*
X140003032Y-63230648D01*
G37*
%TD.AperFunction*%
%TD*%
%TA.AperFunction,Conductor*%
%TO.N,Net-(J5-Pin_2)*%
G36*
X139742140Y-71628826D02*
G01*
X139744095Y-71631418D01*
X140465264Y-72929834D01*
X140466286Y-72938730D01*
X140462334Y-72944660D01*
X139735729Y-73524459D01*
X139727124Y-73526941D01*
X139725008Y-73526502D01*
X138806695Y-73245540D01*
X138799786Y-73239843D01*
X138798779Y-73231469D01*
X139028666Y-72328075D01*
X139031729Y-72322691D01*
X139725595Y-71628825D01*
X139733867Y-71625399D01*
X139742140Y-71628826D01*
G37*
%TD.AperFunction*%
%TD*%
%TA.AperFunction,Conductor*%
%TO.N,Net-(J5-Pin_2)*%
G36*
X129094535Y-69688133D02*
G01*
X129788066Y-70381664D01*
X129791493Y-70389937D01*
X129789523Y-70396434D01*
X128992466Y-71590134D01*
X128985022Y-71595111D01*
X128976248Y-71593373D01*
X128322042Y-71157405D01*
X128318794Y-71154157D01*
X127882826Y-70499951D01*
X127881090Y-70491166D01*
X127886065Y-70483733D01*
X128038927Y-70381664D01*
X129079765Y-69686675D01*
X129088548Y-69684932D01*
X129094535Y-69688133D01*
G37*
%TD.AperFunction*%
%TD*%
%TA.AperFunction,Conductor*%
%TO.N,Net-(J6-Pin_2)*%
G36*
X129093966Y-80112977D02*
G01*
X129101405Y-80117961D01*
X129103143Y-80126735D01*
X128822676Y-81534414D01*
X128817699Y-81541858D01*
X128811202Y-81543828D01*
X127830398Y-81543828D01*
X127822125Y-81540401D01*
X127818924Y-81534414D01*
X127538456Y-80126735D01*
X127540200Y-80117952D01*
X127547631Y-80112977D01*
X128318507Y-79958659D01*
X128323093Y-79958659D01*
X129093966Y-80112977D01*
G37*
%TD.AperFunction*%
%TD*%
%TA.AperFunction,Conductor*%
%TO.N,Net-(J6-Pin_2)*%
G36*
X137511866Y-90046360D02*
G01*
X137515020Y-90052121D01*
X137844499Y-91550911D01*
X137842928Y-91559727D01*
X137837228Y-91564360D01*
X137017156Y-91876020D01*
X137008844Y-91876020D01*
X136188771Y-91564360D01*
X136182254Y-91558217D01*
X136181500Y-91550913D01*
X136510980Y-90052120D01*
X136516103Y-90044777D01*
X136522407Y-90042933D01*
X137503593Y-90042933D01*
X137511866Y-90046360D01*
G37*
%TD.AperFunction*%
%TD*%
%TA.AperFunction,Conductor*%
%TO.N,/STAGE 2*%
G36*
X133231178Y-69982508D02*
G01*
X133481760Y-70181919D01*
X133694484Y-70351204D01*
X133698824Y-70359037D01*
X133697551Y-70365811D01*
X133326291Y-71070752D01*
X133319404Y-71076475D01*
X133315939Y-71077000D01*
X133128544Y-71077000D01*
X133120271Y-71073573D01*
X133119489Y-71072709D01*
X132679699Y-70535188D01*
X132677112Y-70526615D01*
X132680473Y-70519513D01*
X132833896Y-70365811D01*
X133215616Y-69983396D01*
X133223884Y-69979964D01*
X133231178Y-69982508D01*
G37*
%TD.AperFunction*%
%TD*%
%TA.AperFunction,Conductor*%
%TO.N,/STAGE 2*%
G36*
X134180836Y-78195235D02*
G01*
X134502112Y-78708391D01*
X134503597Y-78717222D01*
X134502112Y-78720809D01*
X134180836Y-79233964D01*
X134173541Y-79239157D01*
X134164928Y-79237805D01*
X133460709Y-78818003D01*
X133455357Y-78810823D01*
X133455000Y-78807953D01*
X133455000Y-78621246D01*
X133458427Y-78612973D01*
X133460704Y-78611199D01*
X134164930Y-78191393D01*
X134173789Y-78190101D01*
X134180836Y-78195235D01*
G37*
%TD.AperFunction*%
%TD*%
%TA.AperFunction,Conductor*%
%TO.N,/STAGE 2*%
G36*
X135256129Y-83740427D02*
G01*
X135256911Y-83741291D01*
X135696700Y-84278811D01*
X135699287Y-84287384D01*
X135695926Y-84294486D01*
X135160785Y-84830601D01*
X135152515Y-84834035D01*
X135145219Y-84831490D01*
X134681915Y-84462795D01*
X134677575Y-84454962D01*
X134678847Y-84448189D01*
X135050109Y-83743247D01*
X135056996Y-83737525D01*
X135060461Y-83737000D01*
X135247856Y-83737000D01*
X135256129Y-83740427D01*
G37*
%TD.AperFunction*%
%TD*%
%TA.AperFunction,Conductor*%
%TO.N,/STAGE 2*%
G36*
X120101556Y-84808693D02*
G01*
X120103387Y-84811067D01*
X120946828Y-86255587D01*
X120948040Y-86264459D01*
X120943853Y-86270764D01*
X120007129Y-86990522D01*
X119998481Y-86992845D01*
X119992871Y-86990522D01*
X119056146Y-86270764D01*
X119051674Y-86263005D01*
X119053170Y-86255589D01*
X119896613Y-84811067D01*
X119903744Y-84805650D01*
X119906717Y-84805266D01*
X120093283Y-84805266D01*
X120101556Y-84808693D01*
G37*
%TD.AperFunction*%
%TD*%
%TA.AperFunction,Conductor*%
%TO.N,/STAGE 2*%
G36*
X134514913Y-78719164D02*
G01*
X135477268Y-79259324D01*
X135482805Y-79266362D01*
X135482178Y-79274400D01*
X135256527Y-79767014D01*
X135249966Y-79773108D01*
X135245890Y-79773841D01*
X135056680Y-79773841D01*
X135050598Y-79772136D01*
X135042181Y-79767014D01*
X134195741Y-79251907D01*
X134190456Y-79244679D01*
X134191790Y-79235896D01*
X134499154Y-78723348D01*
X134506346Y-78718017D01*
X134514913Y-78719164D01*
G37*
%TD.AperFunction*%
%TD*%
M02*
